Vampiro.ufo
<glyph name="exclam" format="1">
  <advance width="482"/>
  <unicode hex="0021"/>
  <outline>
    <contour>
      <point x="211" y="143" type="line" name="hr00"/>
      <point x="241" y="214"/>
      <point x="298" y="331"/>
      <point x="362" y="441"/>
      <point x="438" y="553"/>
      <point x="486" y="619" type="qcurve"/>
      <point x="374" y="718" type="line"/>
      <point x="323" y="647"/>
      <point x="247" y="533"/>
      <point x="184" y="425"/>
      <point x="129" y="314"/>
      <point x="99" y="246" type="qcurve"/>
    </contour>
    <contour>
      <point x="0" y="10" type="qcurve"/>
      <point x="0" y="-9"/>
      <point x="14" y="-43"/>
      <point x="40" y="-68"/>
      <point x="73" y="-83"/>
      <point x="93" y="-83" type="qcurve"/>
      <point x="112" y="-83"/>
      <point x="146" y="-68"/>
      <point x="172" y="-43"/>
      <point x="186" y="-9"/>
      <point x="186" y="10" type="qcurve"/>
      <point x="186" y="49"/>
      <point x="132" y="103"/>
      <point x="93" y="103" type="qcurve"/>
      <point x="54" y="103"/>
      <point x="0" y="49"/>
    </contour>
  </outline>
</glyph>
<glyph name="numbersign" format="1">
  <advance width="688"/>
  <unicode hex="0023"/>
  <outline>
    <contour>
      <point x="71" y="139" type="line" name="hr00"/>
      <point x="174" y="94" type="line"/>
      <point x="219" y="218" type="line"/>
      <point x="239" y="210"/>
      <point x="276" y="195"/>
      <point x="295" y="187" type="qcurve"/>
      <point x="284" y="158"/>
      <point x="260" y="98"/>
      <point x="248" y="65" type="qcurve"/>
      <point x="351" y="22" type="line"/>
      <point x="362" y="55"/>
      <point x="385" y="115"/>
      <point x="396" y="144" type="qcurve"/>
      <point x="416" y="135"/>
      <point x="453" y="116"/>
      <point x="472" y="107" type="qcurve"/>
      <point x="517" y="204" type="line"/>
      <point x="436" y="243" type="line"/>
      <point x="454" y="285" type="line"/>
      <point x="463" y="306"/>
      <point x="473" y="327" type="qcurve"/>
      <point x="553" y="289" type="line"/>
      <point x="598" y="385" type="line"/>
      <point x="578" y="394"/>
      <point x="539" y="413"/>
      <point x="519" y="422" type="qcurve"/>
      <point x="531" y="446"/>
      <point x="557" y="495"/>
      <point x="571" y="522" type="qcurve"/>
      <point x="474" y="566" type="line"/>
      <point x="460" y="539"/>
      <point x="433" y="489"/>
      <point x="421" y="465" type="qcurve"/>
      <point x="343" y="496" type="line"/>
      <point x="355" y="520"/>
      <point x="381" y="569"/>
      <point x="395" y="595" type="qcurve"/>
      <point x="297" y="641" type="line"/>
      <point x="242" y="533" type="line"/>
      <point x="221" y="541"/>
      <point x="180" y="555"/>
      <point x="159" y="562" type="qcurve"/>
      <point x="119" y="463" type="line"/>
      <point x="157" y="451" type="line"/>
      <point x="176" y="445"/>
      <point x="195" y="438" type="qcurve"/>
      <point x="157" y="354" type="line"/>
      <point x="78" y="380" type="line"/>
      <point x="37" y="283" type="line"/>
      <point x="57" y="276"/>
      <point x="96" y="264"/>
      <point x="116" y="256" type="qcurve"/>
    </contour>
    <contour>
      <point x="259" y="317" type="line"/>
      <point x="277" y="359" type="line"/>
      <point x="286" y="380"/>
      <point x="296" y="401" type="qcurve"/>
      <point x="316" y="393"/>
      <point x="354" y="377"/>
      <point x="374" y="369" type="qcurve"/>
      <point x="336" y="286" type="line"/>
    </contour>
  </outline>
</glyph>
<glyph name="dollar" format="1">
  <advance width="661"/>
  <unicode hex="0024"/>
  <outline>
    <contour>
      <point x="16" y="-23" type="qcurve" name="hr00"/>
      <point x="94" y="-84" type="line"/>
      <point x="114" y="-58"/>
      <point x="159" y="0"/>
      <point x="182" y="29" type="qcurve"/>
      <point x="230" y="12"/>
      <point x="333" y="-11"/>
      <point x="393" y="-16" type="qcurve"/>
      <point x="473" y="126" type="line"/>
      <point x="448" y="175"/>
      <point x="396" y="254"/>
      <point x="351" y="324"/>
      <point x="318" y="387"/>
      <point x="311" y="420" type="qcurve"/>
      <point x="333" y="444"/>
      <point x="366" y="478"/>
      <point x="397" y="506"/>
      <point x="431" y="532"/>
      <point x="455" y="548" type="qcurve"/>
      <point x="448" y="516"/>
      <point x="433" y="451"/>
      <point x="419" y="419" type="qcurve"/>
      <point x="541" y="360" type="line"/>
      <point x="561" y="404"/>
      <point x="596" y="500"/>
      <point x="603" y="542" type="qcurve"/>
      <point x="545" y="577" type="line"/>
      <point x="619" y="684" type="line"/>
      <point x="541" y="742" type="line"/>
      <point x="521" y="715"/>
      <point x="481" y="658"/>
      <point x="460" y="629" type="qcurve"/>
      <point x="406" y="663" type="line"/>
      <point x="370" y="640"/>
      <point x="303" y="594"/>
      <point x="239" y="541"/>
      <point x="175" y="480"/>
      <point x="141" y="443" type="qcurve"/>
      <point x="150" y="396"/>
      <point x="187" y="320"/>
      <point x="232" y="248"/>
      <point x="283" y="176"/>
      <point x="306" y="133" type="qcurve"/>
      <point x="238" y="151"/>
      <point x="110" y="211"/>
      <point x="47" y="251" type="qcurve"/>
      <point x="-15" y="129" type="line"/>
      <point x="10" y="113"/>
      <point x="60" y="85"/>
      <point x="87" y="71" type="qcurve"/>
      <point x="69" y="45"/>
      <point x="33" y="-2"/>
    </contour>
  </outline>
</glyph>
<glyph name="percent" format="1">
  <advance width="788"/>
  <unicode hex="0025"/>
  <outline>
    <contour>
      <point x="181" y="414" type="qcurve" name="hr00"/>
      <point x="205" y="404"/>
      <point x="233" y="404" type="qcurve"/>
      <point x="260" y="404"/>
      <point x="307" y="425"/>
      <point x="343" y="460"/>
      <point x="363" y="508"/>
      <point x="363" y="535" type="qcurve"/>
      <point x="363" y="562"/>
      <point x="343" y="610"/>
      <point x="307" y="646"/>
      <point x="260" y="666"/>
      <point x="233" y="666" type="qcurve"/>
      <point x="205" y="666"/>
      <point x="157" y="646"/>
      <point x="121" y="610"/>
      <point x="101" y="562"/>
      <point x="101" y="535" type="qcurve"/>
      <point x="101" y="508"/>
      <point x="121" y="460"/>
      <point x="157" y="425"/>
    </contour>
    <contour>
      <point x="40" y="85" type="qcurve"/>
      <point x="103" y="22" type="line"/>
      <point x="186" y="106"/>
      <point x="333" y="243"/>
      <point x="480" y="364"/>
      <point x="639" y="481"/>
      <point x="735" y="546" type="qcurve"/>
      <point x="681" y="614" type="line"/>
      <point x="584" y="548"/>
      <point x="424" y="430"/>
      <point x="276" y="306"/>
      <point x="126" y="169"/>
    </contour>
    <contour>
      <point x="232" y="473" type="qcurve"/>
      <point x="206" y="473"/>
      <point x="170" y="509"/>
      <point x="170" y="535" type="qcurve"/>
      <point x="170" y="561"/>
      <point x="206" y="597"/>
      <point x="232" y="597" type="qcurve"/>
      <point x="257" y="597"/>
      <point x="293" y="561"/>
      <point x="293" y="535" type="qcurve"/>
      <point x="293" y="509"/>
      <point x="257" y="473"/>
    </contour>
    <contour>
      <point x="371" y="121" type="qcurve"/>
      <point x="371" y="94"/>
      <point x="391" y="46"/>
      <point x="427" y="11"/>
      <point x="475" y="-10"/>
      <point x="503" y="-10" type="qcurve"/>
      <point x="530" y="-10"/>
      <point x="577" y="11"/>
      <point x="613" y="46"/>
      <point x="633" y="94"/>
      <point x="633" y="121" type="qcurve"/>
      <point x="633" y="148"/>
      <point x="613" y="196"/>
      <point x="577" y="232"/>
      <point x="530" y="252"/>
      <point x="503" y="252" type="qcurve"/>
      <point x="475" y="252"/>
      <point x="427" y="232"/>
      <point x="391" y="196"/>
      <point x="371" y="148"/>
    </contour>
    <contour>
      <point x="458" y="77" type="qcurve"/>
      <point x="440" y="95"/>
      <point x="440" y="121" type="qcurve"/>
      <point x="440" y="147"/>
      <point x="476" y="183"/>
      <point x="502" y="183" type="qcurve"/>
      <point x="527" y="183"/>
      <point x="563" y="147"/>
      <point x="563" y="121" type="qcurve"/>
      <point x="563" y="95"/>
      <point x="527" y="59"/>
      <point x="502" y="59" type="qcurve"/>
      <point x="476" y="59"/>
    </contour>
  </outline>
</glyph>
<glyph name="ampersand" format="1">
  <advance width="756"/>
  <unicode hex="0026"/>
  <outline>
    <contour>
      <point x="49" y="-20" type="line" name="hr00"/>
      <point x="191" y="-8"/>
      <point x="320" y="33" type="qcurve"/>
      <point x="357" y="-35"/>
      <point x="404" y="-98" type="qcurve"/>
      <point x="532" y="-24" type="line"/>
      <point x="511" y="2"/>
      <point x="475" y="56"/>
      <point x="458" y="85" type="qcurve"/>
      <point x="546" y="124"/>
      <point x="615" y="171" type="qcurve"/>
      <point x="555" y="268" type="line"/>
      <point x="520" y="246"/>
      <point x="445" y="210"/>
      <point x="406" y="195" type="qcurve"/>
      <point x="396" y="221"/>
      <point x="380" y="274"/>
      <point x="375" y="300" type="qcurve"/>
      <point x="415" y="312"/>
      <point x="484" y="341"/>
      <point x="549" y="377"/>
      <point x="609" y="422"/>
      <point x="640" y="449" type="qcurve"/>
      <point x="590" y="573" type="line"/>
      <point x="552" y="602"/>
      <point x="459" y="659"/>
      <point x="418" y="679" type="qcurve"/>
      <point x="249" y="630" type="line"/>
      <point x="229" y="562"/>
      <point x="215" y="432"/>
      <point x="219" y="369" type="qcurve"/>
      <point x="174" y="348"/>
      <point x="98" y="306"/>
      <point x="28" y="259"/>
      <point x="-40" y="202"/>
      <point x="-77" y="166" type="qcurve"/>
    </contour>
    <contour>
      <point x="360" y="418" type="qcurve"/>
      <point x="359" y="453"/>
      <point x="364" y="524"/>
      <point x="371" y="559" type="qcurve"/>
      <point x="400" y="544"/>
      <point x="464" y="506"/>
      <point x="495" y="486" type="qcurve"/>
      <point x="464" y="464"/>
      <point x="399" y="432"/>
    </contour>
    <contour>
      <point x="85" y="126" type="qcurve"/>
      <point x="105" y="143"/>
      <point x="140" y="173"/>
      <point x="176" y="200"/>
      <point x="214" y="226"/>
      <point x="238" y="240" type="qcurve"/>
      <point x="249" y="194"/>
      <point x="265" y="152" type="qcurve"/>
      <point x="170" y="131"/>
    </contour>
  </outline>
</glyph>
<glyph name="quotesingle" format="1">
  <advance width="260"/>
  <unicode hex="0027"/>
  <outline>
    <contour>
      <point x="172" y="407" type="line" name="hr00"/>
      <point x="195" y="442"/>
      <point x="235" y="502"/>
      <point x="272" y="562"/>
      <point x="310" y="625"/>
      <point x="331" y="662" type="qcurve"/>
      <point x="217" y="726" type="line"/>
      <point x="198" y="690"/>
      <point x="162" y="627"/>
      <point x="126" y="565"/>
      <point x="88" y="501"/>
      <point x="66" y="465" type="qcurve"/>
    </contour>
  </outline>
</glyph>
<glyph name="parenleft" format="1">
  <advance width="431"/>
  <unicode hex="0028"/>
  <outline>
    <contour>
      <point x="69" y="170" type="qcurve" name="hr00"/>
      <point x="51" y="45"/>
      <point x="58" y="-100" type="qcurve"/>
      <point x="166" y="-173" type="line"/>
      <point x="164" y="-14"/>
      <point x="201" y="242"/>
      <point x="296" y="449"/>
      <point x="458" y="615"/>
      <point x="581" y="683" type="qcurve"/>
      <point x="508" y="756" type="line"/>
      <point x="371" y="685"/>
      <point x="191" y="508"/>
      <point x="87" y="295"/>
    </contour>
  </outline>
</glyph>
<glyph name="asterisk" format="1">
  <advance width="576"/>
  <unicode hex="002A"/>
  <outline>
    <contour>
      <point x="166" y="359" type="line" name="hr00"/>
      <point x="194" y="379"/>
      <point x="255" y="416"/>
      <point x="287" y="433" type="qcurve"/>
      <point x="297" y="397"/>
      <point x="319" y="330"/>
      <point x="334" y="292" type="qcurve"/>
      <point x="428" y="319" type="line"/>
      <point x="418" y="351"/>
      <point x="403" y="419"/>
      <point x="398" y="453" type="qcurve"/>
      <point x="433" y="451"/>
      <point x="499" y="453"/>
      <point x="539" y="455" type="qcurve"/>
      <point x="544" y="553" type="line"/>
      <point x="510" y="553"/>
      <point x="442" y="560"/>
      <point x="408" y="565" type="qcurve"/>
      <point x="422" y="600"/>
      <point x="443" y="666"/>
      <point x="454" y="706" type="qcurve"/>
      <point x="362" y="742" type="line"/>
      <point x="351" y="708"/>
      <point x="322" y="642"/>
      <point x="305" y="610" type="qcurve"/>
      <point x="276" y="634"/>
      <point x="219" y="674"/>
      <point x="185" y="697" type="qcurve"/>
      <point x="124" y="620" type="line"/>
      <point x="178" y="578"/>
      <point x="228" y="528" type="qcurve"/>
      <point x="197" y="508"/>
      <point x="143" y="468"/>
      <point x="111" y="443" type="qcurve"/>
    </contour>
  </outline>
</glyph>
<glyph name="plus" format="1">
  <advance width="609"/>
  <unicode hex="002B"/>
  <outline>
    <contour>
      <point x="148" y="140" type="qcurve" name="hr00"/>
      <point x="263" y="100" type="line"/>
      <point x="271" y="129"/>
      <point x="293" y="197"/>
      <point x="305" y="233" type="qcurve"/>
      <point x="340" y="220"/>
      <point x="406" y="194"/>
      <point x="436" y="181" type="qcurve"/>
      <point x="481" y="292" type="line"/>
      <point x="451" y="306"/>
      <point x="383" y="332"/>
      <point x="347" y="346" type="qcurve"/>
      <point x="360" y="380"/>
      <point x="386" y="444"/>
      <point x="399" y="473" type="qcurve"/>
      <point x="288" y="518" type="line"/>
      <point x="274" y="488"/>
      <point x="247" y="421"/>
      <point x="233" y="385" type="qcurve"/>
      <point x="198" y="396"/>
      <point x="132" y="416"/>
      <point x="103" y="424" type="qcurve"/>
      <point x="58" y="310" type="line"/>
      <point x="89" y="302"/>
      <point x="156" y="283"/>
      <point x="191" y="272" type="qcurve"/>
      <point x="179" y="237"/>
      <point x="157" y="170"/>
    </contour>
  </outline>
</glyph>
<glyph name="comma" format="1">
  <advance width="367"/>
  <unicode hex="002C"/>
  <outline>
    <contour>
      <point x="23" y="29" type="qcurve" name="hr00"/>
      <point x="6" y="-5"/>
      <point x="-29" y="-68"/>
      <point x="-67" y="-131"/>
      <point x="-88" y="-165" type="qcurve"/>
      <point x="18" y="-223" type="line"/>
      <point x="69" y="-160"/>
      <point x="149" y="-42"/>
      <point x="187" y="26" type="qcurve"/>
      <point x="57" y="103" type="line"/>
      <point x="40" y="63"/>
    </contour>
  </outline>
</glyph>
<glyph name="hyphen" format="1">
  <advance width="591"/>
  <unicode hex="002D"/>
  <outline>
    <contour>
      <point x="37" y="310" type="line" name="hr00"/>
      <point x="81" y="299"/>
      <point x="179" y="270"/>
      <point x="278" y="236"/>
      <point x="373" y="199"/>
      <point x="415" y="181" type="qcurve"/>
      <point x="461" y="292" type="line"/>
      <point x="420" y="310"/>
      <point x="323" y="348"/>
      <point x="223" y="382"/>
      <point x="125" y="413"/>
      <point x="83" y="424" type="qcurve"/>
    </contour>
  </outline>
</glyph>
<glyph name="period" format="1">
  <advance width="366"/>
  <unicode hex="002E"/>
  <outline>
    <contour>
      <point x="0" y="10" type="qcurve" name="hr00"/>
      <point x="0" y="-9"/>
      <point x="14" y="-43"/>
      <point x="40" y="-68"/>
      <point x="73" y="-83"/>
      <point x="93" y="-83" type="qcurve"/>
      <point x="112" y="-83"/>
      <point x="146" y="-68"/>
      <point x="172" y="-43"/>
      <point x="186" y="-9"/>
      <point x="186" y="10" type="qcurve"/>
      <point x="186" y="49"/>
      <point x="132" y="103"/>
      <point x="93" y="103" type="qcurve"/>
      <point x="54" y="103"/>
      <point x="0" y="49"/>
    </contour>
  </outline>
</glyph>
<glyph name="slash" format="1">
  <advance width="563"/>
  <unicode hex="002F"/>
  <outline>
    <contour>
      <point x="48" y="-5" type="line" name="hr00"/>
      <point x="129" y="87"/>
      <point x="277" y="245"/>
      <point x="423" y="390"/>
      <point x="575" y="529"/>
      <point x="659" y="603" type="qcurve"/>
      <point x="600" y="671" type="line"/>
      <point x="516" y="597"/>
      <point x="363" y="456"/>
      <point x="215" y="311"/>
      <point x="64" y="156"/>
      <point x="-19" y="67" type="qcurve"/>
    </contour>
  </outline>
</glyph>
<glyph name="zero" format="1">
  <advance width="664"/>
  <unicode hex="0030"/>
  <outline>
    <contour>
      <point x="46" y="61" type="qcurve" name="hr00"/>
      <point x="217" y="-36" type="line"/>
      <point x="401" y="31"/>
      <point x="576" y="256"/>
      <point x="576" y="422" type="qcurve"/>
      <point x="576" y="495"/>
      <point x="560" y="575" type="qcurve"/>
      <point x="389" y="674" type="line"/>
      <point x="302" y="649"/>
      <point x="166" y="562"/>
      <point x="72" y="445"/>
      <point x="23" y="302"/>
      <point x="23" y="220" type="qcurve"/>
      <point x="23" y="147"/>
    </contour>
    <contour>
      <point x="173" y="103" type="qcurve"/>
      <point x="168" y="126"/>
      <point x="165" y="171"/>
      <point x="165" y="192" type="qcurve"/>
      <point x="165" y="323"/>
      <point x="302" y="501"/>
      <point x="422" y="539" type="qcurve"/>
      <point x="427" y="511"/>
      <point x="433" y="460"/>
      <point x="433" y="436" type="qcurve"/>
      <point x="433" y="308"/>
      <point x="295" y="145"/>
    </contour>
  </outline>
</glyph>
<glyph name="one" format="1">
  <advance width="476"/>
  <unicode hex="0031"/>
  <outline>
    <contour>
      <point x="22" y="68" type="qcurve" name="hr00"/>
      <point x="131" y="-29" type="line"/>
      <point x="212" y="133"/>
      <point x="385" y="414"/>
      <point x="476" y="544" type="qcurve"/>
      <point x="359" y="667" type="line"/>
      <point x="270" y="637"/>
      <point x="140" y="581"/>
      <point x="90" y="552" type="qcurve"/>
      <point x="141" y="428" type="line"/>
      <point x="177" y="447"/>
      <point x="250" y="482"/>
      <point x="293" y="499" type="qcurve"/>
      <point x="218" y="396"/>
      <point x="84" y="186"/>
    </contour>
  </outline>
</glyph>
<glyph name="two" format="1">
  <advance width="607"/>
  <unicode hex="0032"/>
  <outline>
    <contour>
      <point x="10" y="47" type="line" name="hr00"/>
      <point x="46" y="33"/>
      <point x="130" y="10"/>
      <point x="221" y="-8"/>
      <point x="317" y="-21"/>
      <point x="366" y="-27" type="qcurve"/>
      <point x="424" y="99" type="line"/>
      <point x="315" y="111"/>
      <point x="160" y="140"/>
      <point x="99" y="161" type="qcurve"/>
      <point x="139" y="189"/>
      <point x="225" y="225"/>
      <point x="313" y="253"/>
      <point x="399" y="282"/>
      <point x="481" y="325"/>
      <point x="557" y="392"/>
      <point x="589" y="444" type="qcurve"/>
      <point x="533" y="599" type="line"/>
      <point x="512" y="613"/>
      <point x="456" y="637"/>
      <point x="393" y="654"/>
      <point x="328" y="664"/>
      <point x="299" y="664" type="qcurve"/>
      <point x="278" y="664"/>
      <point x="229" y="659"/>
      <point x="216" y="654" type="qcurve"/>
      <point x="157" y="533" type="line"/>
      <point x="164" y="534"/>
      <point x="187" y="537"/>
      <point x="214" y="539"/>
      <point x="240" y="540"/>
      <point x="250" y="540" type="qcurve"/>
      <point x="285" y="540"/>
      <point x="341" y="534"/>
      <point x="389" y="523"/>
      <point x="431" y="506"/>
      <point x="452" y="495" type="qcurve"/>
      <point x="426" y="464"/>
      <point x="353" y="419"/>
      <point x="267" y="383"/>
      <point x="174" y="350"/>
      <point x="80" y="311"/>
      <point x="-8" y="261"/>
      <point x="-45" y="226" type="qcurve"/>
    </contour>
  </outline>
</glyph>
<glyph name="three" format="1">
  <advance width="599"/>
  <unicode hex="0033"/>
  <outline>
    <contour>
      <point x="-40" y="12" type="line" name="hr00"/>
      <point x="50" y="-17"/>
      <point x="136" y="-17" type="qcurve"/>
      <point x="230" y="-17"/>
      <point x="399" y="53"/>
      <point x="467" y="127" type="qcurve"/>
      <point x="421" y="253" type="line"/>
      <point x="395" y="271"/>
      <point x="338" y="303"/>
      <point x="309" y="317" type="qcurve"/>
      <point x="343" y="323"/>
      <point x="409" y="341"/>
      <point x="476" y="369"/>
      <point x="546" y="407"/>
      <point x="584" y="432" type="qcurve"/>
      <point x="526" y="597" type="line"/>
      <point x="472" y="627"/>
      <point x="356" y="664"/>
      <point x="294" y="664" type="qcurve"/>
      <point x="276" y="664"/>
      <point x="238" y="662"/>
      <point x="221" y="660" type="qcurve"/>
      <point x="160" y="537" type="line"/>
      <point x="179" y="538"/>
      <point x="218" y="540"/>
      <point x="238" y="540" type="qcurve"/>
      <point x="302" y="540"/>
      <point x="401" y="514"/>
      <point x="449" y="488" type="qcurve"/>
      <point x="386" y="451"/>
      <point x="228" y="412"/>
      <point x="130" y="412" type="qcurve"/>
      <point x="73" y="297" type="line"/>
      <point x="101" y="289"/>
      <point x="168" y="262"/>
      <point x="235" y="231"/>
      <point x="296" y="198"/>
      <point x="318" y="183" type="qcurve"/>
      <point x="277" y="148"/>
      <point x="176" y="120"/>
      <point x="122" y="120" type="qcurve"/>
      <point x="74" y="120"/>
      <point x="-17" y="137"/>
      <point x="-57" y="148" type="qcurve"/>
    </contour>
  </outline>
</glyph>
<glyph name="four" format="1">
  <advance width="664"/>
  <unicode hex="0034"/>
  <outline>
    <contour>
      <point x="192" y="67" type="qcurve" name="hr00"/>
      <point x="301" y="-29" type="line"/>
      <point x="321" y="19"/>
      <point x="366" y="113"/>
      <point x="390" y="161" type="qcurve"/>
      <point x="422" y="150"/>
      <point x="490" y="126"/>
      <point x="525" y="112" type="qcurve"/>
      <point x="578" y="230" type="line"/>
      <point x="545" y="244"/>
      <point x="483" y="267"/>
      <point x="453" y="278" type="qcurve"/>
      <point x="544" y="439"/>
      <point x="645" y="573" type="qcurve"/>
      <point x="550" y="651" type="line"/>
      <point x="489" y="574"/>
      <point x="374" y="409"/>
      <point x="323" y="324" type="qcurve"/>
      <point x="285" y="337"/>
      <point x="209" y="360"/>
      <point x="168" y="372" type="qcurve"/>
      <point x="226" y="435"/>
      <point x="347" y="542"/>
      <point x="419" y="602" type="qcurve"/>
      <point x="322" y="680" type="line"/>
      <point x="231" y="612"/>
      <point x="87" y="479"/>
      <point x="27" y="402" type="qcurve"/>
      <point x="48" y="257" type="line"/>
      <point x="104" y="243"/>
      <point x="205" y="217"/>
      <point x="255" y="203" type="qcurve"/>
      <point x="237" y="168"/>
      <point x="206" y="100"/>
    </contour>
  </outline>
</glyph>
<glyph name="five" format="1">
  <advance width="603"/>
  <unicode hex="0035"/>
  <outline>
    <contour>
      <point x="-46" y="14" type="line" name="hr00"/>
      <point x="41" y="-13"/>
      <point x="126" y="-13" type="qcurve"/>
      <point x="234" y="-13"/>
      <point x="417" y="79"/>
      <point x="482" y="176" type="qcurve"/>
      <point x="434" y="308" type="line"/>
      <point x="398" y="324"/>
      <point x="336" y="349"/>
      <point x="279" y="370"/>
      <point x="224" y="387"/>
      <point x="196" y="395" type="qcurve"/>
      <point x="292" y="533" type="line"/>
      <point x="325" y="525"/>
      <point x="385" y="507"/>
      <point x="446" y="485"/>
      <point x="513" y="459"/>
      <point x="553" y="442" type="qcurve"/>
      <point x="607" y="577" type="line"/>
      <point x="566" y="594"/>
      <point x="503" y="620"/>
      <point x="446" y="641"/>
      <point x="388" y="658"/>
      <point x="353" y="667" type="qcurve"/>
      <point x="321" y="662"/>
      <point x="241" y="640"/>
      <point x="208" y="626" type="qcurve"/>
      <point x="67" y="423" type="line"/>
      <point x="74" y="301" type="line"/>
      <point x="112" y="291"/>
      <point x="177" y="272"/>
      <point x="236" y="252"/>
      <point x="295" y="230"/>
      <point x="327" y="217" type="qcurve"/>
      <point x="282" y="164"/>
      <point x="161" y="121"/>
      <point x="97" y="121" type="qcurve"/>
      <point x="55" y="121"/>
      <point x="-24" y="135"/>
      <point x="-61" y="148" type="qcurve"/>
    </contour>
  </outline>
</glyph>
<glyph name="six" format="1">
  <advance width="610"/>
  <unicode hex="0036"/>
  <outline>
    <contour>
      <point x="-5" y="102" type="qcurve" name="hr00"/>
      <point x="156" y="-28" type="line"/>
      <point x="231" y="-18"/>
      <point x="355" y="39"/>
      <point x="449" y="129"/>
      <point x="511" y="248"/>
      <point x="523" y="321" type="qcurve"/>
      <point x="403" y="422" type="line"/>
      <point x="390" y="423"/>
      <point x="369" y="425"/>
      <point x="356" y="425" type="qcurve"/>
      <point x="315" y="425"/>
      <point x="251" y="412"/>
      <point x="223" y="401" type="qcurve"/>
      <point x="266" y="464"/>
      <point x="418" y="559"/>
      <point x="543" y="593" type="qcurve"/>
      <point x="429" y="688" type="line"/>
      <point x="310" y="651"/>
      <point x="149" y="543"/>
      <point x="48" y="399"/>
      <point x="1" y="215"/>
    </contour>
    <contour>
      <point x="139" y="100" type="qcurve"/>
      <point x="142" y="150"/>
      <point x="155" y="240"/>
      <point x="167" y="282" type="qcurve"/>
      <point x="209" y="296"/>
      <point x="293" y="311"/>
      <point x="338" y="311" type="qcurve"/>
      <point x="355" y="311" type="line"/>
      <point x="364" y="311"/>
      <point x="373" y="310" type="qcurve"/>
      <point x="360" y="261"/>
      <point x="313" y="187"/>
      <point x="250" y="134"/>
      <point x="177" y="104"/>
    </contour>
  </outline>
</glyph>
<glyph name="seven" format="1">
  <advance width="554"/>
  <unicode hex="0037"/>
  <outline>
    <contour>
      <point x="-9" y="87" type="qcurve" name="hr00"/>
      <point x="102" y="-29" type="line"/>
      <point x="160" y="53"/>
      <point x="266" y="189"/>
      <point x="378" y="311"/>
      <point x="504" y="427"/>
      <point x="582" y="489" type="qcurve"/>
      <point x="523" y="613" type="line"/>
      <point x="476" y="625"/>
      <point x="386" y="644"/>
      <point x="296" y="656"/>
      <point x="201" y="663"/>
      <point x="149" y="665" type="qcurve"/>
      <point x="85" y="529" type="line"/>
      <point x="168" y="526"/>
      <point x="320" y="509"/>
      <point x="395" y="495" type="qcurve"/>
      <point x="333" y="445"/>
      <point x="225" y="353"/>
      <point x="128" y="256"/>
      <point x="37" y="150"/>
    </contour>
  </outline>
</glyph>
<glyph name="eight" format="1">
  <advance width="620"/>
  <unicode hex="0038"/>
  <outline>
    <contour>
      <point x="26" y="56" type="qcurve"/>
      <point x="210" y="-47" type="line"/>
      <point x="260" y="-45"/>
      <point x="352" y="-15"/>
      <point x="422" y="36"/>
      <point x="464" y="106"/>
      <point x="464" y="148" type="qcurve"/>
      <point x="464" y="222"/>
      <point x="407" y="300" type="qcurve"/>
      <point x="442" y="304"/>
      <point x="508" y="325"/>
      <point x="558" y="359"/>
      <point x="588" y="410"/>
      <point x="588" y="445" type="qcurve" name="hr01"/>
      <point x="588" y="480"/>
      <point x="561" y="547"/>
      <point x="544" y="579" type="qcurve"/>
      <point x="369" y="678" type="line"/>
      <point x="322" y="674"/>
      <point x="243" y="648"/>
      <point x="185" y="603"/>
      <point x="153" y="537"/>
      <point x="153" y="494" type="qcurve"/>
      <point x="153" y="471"/>
      <point x="169" y="415"/>
      <point x="181" y="387" type="qcurve"/>
      <point x="139" y="382"/>
      <point x="64" y="358"/>
      <point x="7" y="314"/>
      <point x="-27" y="249"/>
      <point x="-27" y="203" type="qcurve"/>
      <point x="-27" y="161"/>
      <point x="6" y="88"/>
    </contour>
    <contour>
      <point x="335" y="390" type="qcurve"/>
      <point x="318" y="416"/>
      <point x="296" y="462"/>
      <point x="296" y="482" type="qcurve"/>
      <point x="296" y="524"/>
      <point x="362" y="573"/>
      <point x="422" y="575" type="qcurve"/>
      <point x="439" y="550"/>
      <point x="457" y="502"/>
      <point x="457" y="483" type="qcurve"/>
      <point x="457" y="459"/>
      <point x="435" y="426"/>
      <point x="400" y="405"/>
      <point x="357" y="393"/>
    </contour>
    <contour>
      <point x="161" y="77" type="qcurve"/>
      <point x="141" y="103"/>
      <point x="108" y="165"/>
      <point x="108" y="197" type="qcurve"/>
      <point x="108" y="244"/>
      <point x="182" y="288"/>
      <point x="244" y="294" type="qcurve"/>
      <point x="274" y="263"/>
      <point x="315" y="206"/>
      <point x="315" y="179" type="qcurve"/>
      <point x="315" y="152"/>
      <point x="285" y="115"/>
      <point x="239" y="91"/>
      <point x="185" y="78"/>
    </contour>
  </outline>
</glyph>
<glyph name="nine" format="1">
  <advance width="608"/>
  <unicode hex="0039"/>
  <outline>
    <contour>
      <point x="11" y="58" type="qcurve" name="hr00"/>
      <point x="127" y="-38" type="line"/>
      <point x="246" y="-1"/>
      <point x="407" y="118"/>
      <point x="505" y="271"/>
      <point x="547" y="451"/>
      <point x="547" y="547" type="qcurve"/>
      <point x="388" y="669" type="line"/>
      <point x="313" y="659"/>
      <point x="187" y="602"/>
      <point x="93" y="513"/>
      <point x="31" y="393"/>
      <point x="19" y="320" type="qcurve"/>
      <point x="139" y="218" type="line"/>
      <point x="166" y="215"/>
      <point x="191" y="215" type="qcurve"/>
      <point x="259" y="215"/>
      <point x="317" y="240" type="qcurve"/>
      <point x="275" y="181"/>
      <point x="129" y="90"/>
    </contour>
    <contour>
      <point x="169" y="338" type="qcurve"/>
      <point x="182" y="385"/>
      <point x="231" y="459"/>
      <point x="293" y="513"/>
      <point x="366" y="545"/>
      <point x="404" y="549" type="qcurve"/>
      <point x="400" y="497"/>
      <point x="387" y="404"/>
      <point x="375" y="362" type="qcurve"/>
      <point x="333" y="348"/>
      <point x="249" y="337"/>
      <point x="204" y="337" type="qcurve"/>
      <point x="186" y="337" type="line"/>
      <point x="178" y="337"/>
    </contour>
  </outline>
</glyph>
<glyph name="less" format="1">
  <advance width="609"/>
  <unicode hex="003C"/>
  <outline>
    <contour>
      <point x="188" y="163" type="qcurve" name="hr00"/>
      <point x="229" y="101"/>
      <point x="277" y="40" type="qcurve"/>
      <point x="373" y="94" type="line"/>
      <point x="359" y="114"/>
      <point x="328" y="164"/>
      <point x="312" y="191" type="qcurve"/>
      <point x="280" y="245" type="line"/>
      <point x="264" y="272"/>
      <point x="251" y="298" type="qcurve"/>
      <point x="299" y="323"/>
      <point x="410" y="361"/>
      <point x="478" y="381" type="qcurve"/>
      <point x="438" y="482" type="line"/>
      <point x="360" y="463"/>
      <point x="210" y="417"/>
      <point x="153" y="389" type="qcurve"/>
      <point x="111" y="294" type="line"/>
      <point x="147" y="225"/>
    </contour>
  </outline>
</glyph>
<glyph name="question" format="1">
  <advance width="590"/>
  <unicode hex="003F"/>
  <outline>
    <contour>
      <point x="117" y="222" type="qcurve" name="hr00"/>
      <point x="235" y="135" type="line"/>
      <point x="253" y="176"/>
      <point x="316" y="236"/>
      <point x="390" y="287"/>
      <point x="467" y="339"/>
      <point x="533" y="406"/>
      <point x="580" y="497"/>
      <point x="587" y="562" type="qcurve"/>
      <point x="497" y="701" type="line"/>
      <point x="450" y="712"/>
      <point x="397" y="712" type="qcurve"/>
      <point x="327" y="712"/>
      <point x="180" y="672"/>
      <point x="116" y="643" type="qcurve"/>
      <point x="156" y="517" type="line"/>
      <point x="214" y="540"/>
      <point x="339" y="574"/>
      <point x="396" y="574" type="qcurve"/>
      <point x="418" y="574"/>
      <point x="439" y="571" type="qcurve"/>
      <point x="432" y="528"/>
      <point x="389" y="465"/>
      <point x="330" y="416"/>
      <point x="260" y="372"/>
      <point x="193" y="323"/>
      <point x="135" y="263"/>
    </contour>
    <contour>
      <point x="9" y="10" type="qcurve"/>
      <point x="9" y="-9"/>
      <point x="23" y="-43"/>
      <point x="49" y="-68"/>
      <point x="82" y="-83"/>
      <point x="102" y="-83" type="qcurve"/>
      <point x="121" y="-83"/>
      <point x="155" y="-68"/>
      <point x="181" y="-43"/>
      <point x="195" y="-9"/>
      <point x="195" y="10" type="qcurve"/>
      <point x="195" y="49"/>
      <point x="141" y="103"/>
      <point x="102" y="103" type="qcurve"/>
      <point x="63" y="103"/>
      <point x="9" y="49"/>
    </contour>
  </outline>
</glyph>
<glyph name="at" format="1">
  <advance width="1138"/>
  <unicode hex="0040"/>
  <outline>
    <contour>
      <point x="50" y="127" type="qcurve" name="hr00"/>
      <point x="50" y="52"/>
      <point x="106" y="-78"/>
      <point x="207" y="-174"/>
      <point x="349" y="-230"/>
      <point x="435" y="-230" type="qcurve"/>
      <point x="574" y="-230"/>
      <point x="829" y="-125"/>
      <point x="949" y="-28" type="qcurve"/>
      <point x="897" y="57" type="line"/>
      <point x="779" y="-31"/>
      <point x="560" y="-120"/>
      <point x="442" y="-120" type="qcurve"/>
      <point x="381" y="-120"/>
      <point x="282" y="-80"/>
      <point x="212" y="-10"/>
      <point x="174" y="87"/>
      <point x="174" y="144" type="qcurve"/>
      <point x="174" y="240"/>
      <point x="253" y="403"/>
      <point x="379" y="522"/>
      <point x="537" y="589"/>
      <point x="615" y="589" type="qcurve"/>
      <point x="669" y="589"/>
      <point x="766" y="550"/>
      <point x="839" y="483"/>
      <point x="882" y="391"/>
      <point x="882" y="337" type="qcurve"/>
      <point x="882" y="314"/>
      <point x="873" y="248"/>
      <point x="864" y="221" type="qcurve"/>
      <point x="848" y="212"/>
      <point x="791" y="191"/>
      <point x="728" y="170"/>
      <point x="668" y="151"/>
      <point x="647" y="146" type="qcurve"/>
      <point x="660" y="176"/>
      <point x="696" y="242"/>
      <point x="735" y="306"/>
      <point x="774" y="365"/>
      <point x="791" y="387" type="qcurve"/>
      <point x="707" y="454" type="line"/>
      <point x="694" y="438"/>
      <point x="672" y="411"/>
      <point x="663" y="399" type="qcurve"/>
      <point x="607" y="485" type="line"/>
      <point x="529" y="478"/>
      <point x="410" y="409"/>
      <point x="329" y="304"/>
      <point x="288" y="174"/>
      <point x="288" y="106" type="qcurve"/>
      <point x="394" y="8" type="line"/>
      <point x="442" y="23"/>
      <point x="521" y="64"/>
      <point x="550" y="85" type="qcurve"/>
      <point x="616" y="11" type="line"/>
      <point x="649" y="22"/>
      <point x="742" y="59"/>
      <point x="842" y="104"/>
      <point x="940" y="155"/>
      <point x="979" y="180" type="qcurve"/>
      <point x="1001" y="252"/>
      <point x="1001" y="320" type="qcurve"/>
      <point x="1001" y="401"/>
      <point x="942" y="540"/>
      <point x="840" y="642"/>
      <point x="701" y="700"/>
      <point x="620" y="700" type="qcurve"/>
      <point x="549" y="700"/>
      <point x="410" y="662"/>
      <point x="283" y="592"/>
      <point x="175" y="490"/>
      <point x="95" y="363"/>
      <point x="50" y="212"/>
    </contour>
    <contour>
      <point x="414" y="131" type="qcurve"/>
      <point x="415" y="173"/>
      <point x="439" y="249"/>
      <point x="486" y="310"/>
      <point x="558" y="354"/>
      <point x="607" y="364" type="qcurve"/>
      <point x="599" y="317"/>
      <point x="572" y="242"/>
      <point x="527" y="185"/>
      <point x="461" y="144"/>
    </contour>
  </outline>
</glyph>
<glyph name="A" format="1">
  <advance width="686"/>
  <unicode hex="0041"/>
  <outline>
    <contour>
      <point x="27" y="-29" type="line" name="hr00"/>
      <point x="62" y="49"/>
      <point x="152" y="192"/>
      <point x="202" y="256" type="qcurve"/>
      <point x="237" y="231"/>
      <point x="301" y="176"/>
      <point x="332" y="142" type="qcurve"/>
      <point x="320" y="119"/>
      <point x="297" y="77"/>
      <point x="286" y="57" type="qcurve"/>
      <point x="400" y="-47" type="line"/>
      <point x="495" y="134"/>
      <point x="612" y="459"/>
      <point x="639" y="596" type="qcurve"/>
      <point x="514" y="704" type="line"/>
      <point x="505" y="644"/>
      <point x="490" y="582" type="qcurve"/>
      <point x="416" y="649" type="line"/>
      <point x="359" y="606"/>
      <point x="240" y="497"/>
      <point x="180" y="433" type="qcurve"/>
      <point x="115" y="469" type="line"/>
      <point x="29" y="361" type="line"/>
      <point x="89" y="327" type="line"/>
      <point x="41" y="267"/>
      <point x="-46" y="140"/>
      <point x="-82" y="72" type="qcurve"/>
    </contour>
    <contour>
      <point x="289" y="358" type="qcurve"/>
      <point x="340" y="413"/>
      <point x="436" y="503"/>
      <point x="478" y="536" type="qcurve"/>
      <point x="461" y="469"/>
      <point x="414" y="334"/>
      <point x="388" y="269" type="qcurve"/>
      <point x="343" y="317"/>
    </contour>
  </outline>
</glyph>
<glyph name="B" format="1">
  <advance width="681"/>
  <unicode hex="0042"/>
  <outline>
    <contour>
      <point x="42" y="-33" type="line" name="hr00"/>
      <point x="93" y="-33"/>
      <point x="207" y="-21"/>
      <point x="323" y="6"/>
      <point x="436" y="49"/>
      <point x="486" y="81" type="qcurve"/>
      <point x="506" y="207" type="line"/>
      <point x="483" y="226"/>
      <point x="435" y="262"/>
      <point x="411" y="278" type="qcurve"/>
      <point x="486" y="300"/>
      <point x="621" y="378"/>
      <point x="677" y="437" type="qcurve"/>
      <point x="601" y="606" type="line"/>
      <point x="495" y="652"/>
      <point x="273" y="689"/>
      <point x="153" y="694" type="qcurve"/>
      <point x="110" y="575" type="line"/>
      <point x="136" y="575"/>
      <point x="197" y="569"/>
      <point x="232" y="564" type="qcurve"/>
      <point x="185" y="507"/>
      <point x="105" y="395"/>
      <point x="32" y="275"/>
      <point x="-37" y="144"/>
      <point x="-71" y="69" type="qcurve"/>
    </contour>
    <contour>
      <point x="246" y="347" type="qcurve"/>
      <point x="270" y="384"/>
      <point x="322" y="453"/>
      <point x="348" y="487" type="qcurve"/>
      <point x="259" y="559" type="line"/>
      <point x="295" y="553"/>
      <point x="370" y="536"/>
      <point x="440" y="515"/>
      <point x="503" y="492"/>
      <point x="529" y="479" type="qcurve"/>
      <point x="503" y="456"/>
      <point x="446" y="418"/>
      <point x="378" y="386"/>
      <point x="296" y="359"/>
    </contour>
    <contour>
      <point x="104" y="103" type="qcurve"/>
      <point x="126" y="148"/>
      <point x="172" y="230"/>
      <point x="196" y="269" type="qcurve"/>
      <point x="219" y="259"/>
      <point x="269" y="236"/>
      <point x="316" y="209"/>
      <point x="356" y="181"/>
      <point x="369" y="166" type="qcurve"/>
      <point x="321" y="140"/>
      <point x="184" y="106"/>
    </contour>
  </outline>
</glyph>
<glyph name="C" format="1">
  <advance width="608"/>
  <unicode hex="0043"/>
  <outline>
    <contour>
      <point x="75" y="-32" type="line" name="hr00"/>
      <point x="116" y="-29"/>
      <point x="210" y="-13"/>
      <point x="308" y="15"/>
      <point x="407" y="56"/>
      <point x="454" y="85" type="qcurve"/>
      <point x="415" y="199" type="line"/>
      <point x="340" y="162"/>
      <point x="200" y="129"/>
      <point x="127" y="124" type="qcurve"/>
      <point x="137" y="188"/>
      <point x="196" y="321"/>
      <point x="285" y="441"/>
      <point x="398" y="540"/>
      <point x="461" y="571" type="qcurve"/>
      <point x="447" y="522"/>
      <point x="398" y="422"/>
      <point x="370" y="374" type="qcurve"/>
      <point x="486" y="310" type="line"/>
      <point x="503" y="334"/>
      <point x="541" y="396"/>
      <point x="577" y="464"/>
      <point x="607" y="532"/>
      <point x="616" y="562" type="qcurve"/>
      <point x="426" y="699" type="line"/>
      <point x="326" y="657"/>
      <point x="168" y="523"/>
      <point x="49" y="359"/>
      <point x="-31" y="177"/>
      <point x="-52" y="86" type="qcurve"/>
    </contour>
  </outline>
</glyph>
<glyph name="D" format="1">
  <advance width="692"/>
  <unicode hex="0044"/>
  <outline>
    <contour>
      <point x="71" y="-26" type="line" name="hr00"/>
      <point x="174" y="-7"/>
      <point x="362" y="74"/>
      <point x="516" y="198"/>
      <point x="627" y="366"/>
      <point x="652" y="472" type="qcurve"/>
      <point x="593" y="606" type="line"/>
      <point x="487" y="652"/>
      <point x="265" y="689"/>
      <point x="145" y="694" type="qcurve"/>
      <point x="102" y="575" type="line"/>
      <point x="128" y="575"/>
      <point x="192" y="569"/>
      <point x="227" y="564" type="qcurve"/>
      <point x="180" y="507"/>
      <point x="102" y="397"/>
      <point x="34" y="282"/>
      <point x="-27" y="160"/>
      <point x="-57" y="92" type="qcurve"/>
    </contour>
    <contour>
      <point x="119" y="123" type="qcurve"/>
      <point x="166" y="226"/>
      <point x="277" y="402"/>
      <point x="344" y="487" type="qcurve"/>
      <point x="256" y="559" type="line"/>
      <point x="322" y="548"/>
      <point x="454" y="512"/>
      <point x="506" y="490" type="qcurve"/>
      <point x="488" y="422"/>
      <point x="412" y="304"/>
      <point x="308" y="210"/>
      <point x="185" y="142"/>
    </contour>
  </outline>
</glyph>
<glyph name="E" format="1">
  <advance width="607"/>
  <unicode hex="0045"/>
  <outline>
    <contour>
      <point x="60" y="8" type="line" name="hr00"/>
      <point x="129" y="-7"/>
      <point x="286" y="-30"/>
      <point x="380" y="-32" type="qcurve"/>
      <point x="421" y="97" type="line"/>
      <point x="334" y="100"/>
      <point x="188" y="117"/>
      <point x="116" y="133" type="qcurve"/>
      <point x="150" y="204"/>
      <point x="188" y="267" type="qcurve"/>
      <point x="211" y="261"/>
      <point x="258" y="250"/>
      <point x="310" y="239"/>
      <point x="373" y="228"/>
      <point x="412" y="221" type="qcurve"/>
      <point x="457" y="348" type="line"/>
      <point x="426" y="351"/>
      <point x="374" y="358"/>
      <point x="328" y="366"/>
      <point x="283" y="374"/>
      <point x="260" y="379" type="qcurve"/>
      <point x="281" y="411"/>
      <point x="324" y="469"/>
      <point x="347" y="497" type="qcurve"/>
      <point x="261" y="568" type="line"/>
      <point x="303" y="560"/>
      <point x="394" y="537"/>
      <point x="483" y="509"/>
      <point x="568" y="477"/>
      <point x="604" y="460" type="qcurve"/>
      <point x="661" y="606" type="line"/>
      <point x="534" y="660"/>
      <point x="283" y="704"/>
      <point x="162" y="708" type="qcurve"/>
      <point x="115" y="584" type="line"/>
      <point x="139" y="584"/>
      <point x="198" y="578"/>
      <point x="230" y="573" type="qcurve"/>
      <point x="193" y="528"/>
      <point x="114" y="414"/>
      <point x="38" y="291"/>
      <point x="-30" y="167"/>
      <point x="-54" y="112" type="qcurve"/>
    </contour>
  </outline>
</glyph>
<glyph name="F" format="1">
  <advance width="584"/>
  <unicode hex="0046"/>
  <outline>
    <contour>
      <point x="37" y="-29" type="line" name="hr00"/>
      <point x="64" y="38"/>
      <point x="134" y="175"/>
      <point x="173" y="241" type="qcurve"/>
      <point x="197" y="235"/>
      <point x="244" y="222"/>
      <point x="295" y="206"/>
      <point x="355" y="186"/>
      <point x="392" y="174" type="qcurve"/>
      <point x="441" y="296" type="line"/>
      <point x="377" y="316"/>
      <point x="288" y="342"/>
      <point x="243" y="351" type="qcurve"/>
      <point x="269" y="389"/>
      <point x="319" y="458"/>
      <point x="344" y="490" type="qcurve"/>
      <point x="258" y="561" type="line"/>
      <point x="298" y="553"/>
      <point x="384" y="532"/>
      <point x="469" y="506"/>
      <point x="550" y="476"/>
      <point x="586" y="460" type="qcurve"/>
      <point x="643" y="605" type="line"/>
      <point x="520" y="654"/>
      <point x="275" y="697"/>
      <point x="158" y="701" type="qcurve"/>
      <point x="112" y="577" type="line"/>
      <point x="136" y="577"/>
      <point x="195" y="571"/>
      <point x="227" y="566" type="qcurve"/>
      <point x="190" y="521"/>
      <point x="104" y="397"/>
      <point x="21" y="264"/>
      <point x="-52" y="131"/>
      <point x="-77" y="76" type="qcurve"/>
    </contour>
  </outline>
</glyph>
<glyph name="G" format="1">
  <advance width="667"/>
  <unicode hex="0047"/>
  <outline>
    <contour>
      <point x="58" y="-1" type="line" name="hr00"/>
      <point x="157" y="11"/>
      <point x="254" y="43" type="qcurve"/>
      <point x="233" y="12"/>
      <point x="183" y="-53"/>
      <point x="154" y="-90" type="qcurve"/>
      <point x="261" y="-187" type="line"/>
      <point x="304" y="-132"/>
      <point x="377" y="-29"/>
      <point x="442" y="72"/>
      <point x="499" y="172"/>
      <point x="525" y="223" type="qcurve"/>
      <point x="391" y="292" type="line"/>
      <point x="377" y="260"/>
      <point x="353" y="208"/>
      <point x="341" y="184" type="qcurve"/>
      <point x="288" y="168"/>
      <point x="187" y="148"/>
      <point x="133" y="140" type="qcurve"/>
      <point x="149" y="207"/>
      <point x="215" y="331"/>
      <point x="307" y="438"/>
      <point x="423" y="528"/>
      <point x="489" y="562" type="qcurve"/>
      <point x="482" y="539"/>
      <point x="465" y="492"/>
      <point x="455" y="472" type="qcurve"/>
      <point x="578" y="404" type="line"/>
      <point x="601" y="443"/>
      <point x="639" y="527"/>
      <point x="649" y="562" type="qcurve"/>
      <point x="467" y="695" type="line"/>
      <point x="367" y="653"/>
      <point x="198" y="523"/>
      <point x="66" y="365"/>
      <point x="-26" y="187"/>
      <point x="-47" y="97" type="qcurve"/>
    </contour>
  </outline>
</glyph>
<glyph name="H" format="1">
  <advance width="730"/>
  <unicode hex="0048"/>
  <outline>
    <contour>
      <point x="67" y="-29" type="line" name="hr00"/>
      <point x="96" y="40"/>
      <point x="165" y="183"/>
      <point x="206" y="261" type="qcurve"/>
      <point x="241" y="242"/>
      <point x="307" y="202"/>
      <point x="341" y="180" type="qcurve"/>
      <point x="323" y="145"/>
      <point x="291" y="80"/>
      <point x="277" y="49" type="qcurve"/>
      <point x="393" y="-58" type="line"/>
      <point x="407" y="-21"/>
      <point x="442" y="57"/>
      <point x="462" y="97" type="qcurve"/>
      <point x="479" y="84"/>
      <point x="515" y="57"/>
      <point x="533" y="43" type="qcurve"/>
      <point x="611" y="157" type="line"/>
      <point x="526" y="220" type="line"/>
      <point x="583" y="320"/>
      <point x="702" y="502"/>
      <point x="753" y="571" type="qcurve"/>
      <point x="645" y="668" type="line"/>
      <point x="622" y="639"/>
      <point x="566" y="559"/>
      <point x="504" y="463"/>
      <point x="439" y="356"/>
      <point x="407" y="301" type="qcurve"/>
      <point x="375" y="321"/>
      <point x="311" y="359"/>
      <point x="277" y="378" type="qcurve"/>
      <point x="315" y="436"/>
      <point x="389" y="547"/>
      <point x="421" y="589" type="qcurve"/>
      <point x="313" y="686" type="line"/>
      <point x="280" y="644"/>
      <point x="194" y="518"/>
      <point x="148" y="443" type="qcurve"/>
      <point x="68" y="481" type="line"/>
      <point x="0" y="364" type="line"/>
      <point x="79" y="326" type="line"/>
      <point x="42" y="262"/>
      <point x="-24" y="136"/>
      <point x="-50" y="78" type="qcurve"/>
    </contour>
  </outline>
</glyph>
<glyph name="I" format="1">
  <advance width="360"/>
  <unicode hex="0049"/>
  <outline>
    <contour>
      <point x="52" y="-29" type="line" name="hr00"/>
      <point x="85" y="49"/>
      <point x="165" y="210"/>
      <point x="253" y="369"/>
      <point x="349" y="519"/>
      <point x="397" y="585" type="qcurve"/>
      <point x="295" y="689" type="line"/>
      <point x="179" y="534"/>
      <point x="7" y="234"/>
      <point x="-63" y="77" type="qcurve"/>
    </contour>
  </outline>
</glyph>
<glyph name="J" format="1">
  <advance width="494"/>
  <unicode hex="004A"/>
  <outline>
    <contour>
      <point x="-23" y="-29" type="qcurve" name="hr00"/>
      <point x="203" y="-2" type="line"/>
      <point x="233" y="65"/>
      <point x="314" y="226"/>
      <point x="402" y="385"/>
      <point x="492" y="531"/>
      <point x="531" y="585" type="qcurve"/>
      <point x="427" y="689" type="line"/>
      <point x="377" y="623"/>
      <point x="283" y="474"/>
      <point x="197" y="320"/>
      <point x="120" y="164"/>
      <point x="88" y="92" type="qcurve"/>
      <point x="76" y="134"/>
      <point x="60" y="207"/>
      <point x="54" y="245" type="qcurve"/>
      <point x="-78" y="219" type="line"/>
      <point x="-73" y="171"/>
      <point x="-48" y="47"/>
    </contour>
  </outline>
</glyph>
<glyph name="K" format="1">
  <advance width="674"/>
  <unicode hex="004B"/>
  <outline>
    <contour>
      <point x="33" y="-29" type="line" name="hr00"/>
      <point x="75" y="54"/>
      <point x="150" y="195"/>
      <point x="186" y="256" type="qcurve"/>
      <point x="228" y="167"/>
      <point x="313" y="16"/>
      <point x="364" y="-58" type="qcurve"/>
      <point x="498" y="28" type="line"/>
      <point x="445" y="98"/>
      <point x="374" y="202"/>
      <point x="346" y="251" type="qcurve"/>
      <point x="398" y="279"/>
      <point x="491" y="334"/>
      <point x="581" y="397"/>
      <point x="670" y="471"/>
      <point x="718" y="517" type="qcurve"/>
      <point x="625" y="625" type="line"/>
      <point x="578" y="581"/>
      <point x="485" y="504"/>
      <point x="389" y="434"/>
      <point x="288" y="367"/>
      <point x="234" y="334" type="qcurve"/>
      <point x="279" y="407"/>
      <point x="365" y="528"/>
      <point x="409" y="583" type="qcurve"/>
      <point x="306" y="689" type="line"/>
      <point x="256" y="623"/>
      <point x="164" y="491"/>
      <point x="73" y="345"/>
      <point x="-23" y="176"/>
      <point x="-77" y="73" type="qcurve"/>
    </contour>
  </outline>
</glyph>
<glyph name="L" format="1">
  <advance width="510"/>
  <unicode hex="004C"/>
  <outline>
    <contour>
      <point x="58" y="4" type="line" name="hr00"/>
      <point x="92" y="-3"/>
      <point x="156" y="-15"/>
      <point x="224" y="-24"/>
      <point x="301" y="-33"/>
      <point x="348" y="-37" type="qcurve"/>
      <point x="391" y="102" type="line"/>
      <point x="309" y="110"/>
      <point x="186" y="127"/>
      <point x="125" y="140" type="qcurve"/>
      <point x="158" y="201"/>
      <point x="229" y="326"/>
      <point x="301" y="441"/>
      <point x="370" y="544"/>
      <point x="400" y="585" type="qcurve"/>
      <point x="297" y="689" type="line"/>
      <point x="255" y="632"/>
      <point x="158" y="493"/>
      <point x="62" y="342"/>
      <point x="-27" y="186"/>
      <point x="-62" y="113" type="qcurve"/>
    </contour>
  </outline>
</glyph>
<glyph name="M" format="1">
  <advance width="891"/>
  <unicode hex="004D"/>
  <outline>
    <contour>
      <point x="29" y="-14" type="line" name="hr00"/>
      <point x="68" y="70"/>
      <point x="135" y="206"/>
      <point x="198" y="323"/>
      <point x="261" y="429"/>
      <point x="295" y="483" type="qcurve"/>
      <point x="282" y="437"/>
      <point x="260" y="343"/>
      <point x="239" y="240"/>
      <point x="218" y="125"/>
      <point x="207" y="58" type="qcurve"/>
      <point x="313" y="-34" type="line"/>
      <point x="370" y="34"/>
      <point x="464" y="149"/>
      <point x="549" y="256"/>
      <point x="628" y="358"/>
      <point x="669" y="412" type="qcurve"/>
      <point x="654" y="371"/>
      <point x="621" y="288"/>
      <point x="582" y="196"/>
      <point x="533" y="92"/>
      <point x="503" y="31" type="qcurve"/>
      <point x="622" y="-66" type="line"/>
      <point x="651" y="-1"/>
      <point x="699" y="111"/>
      <point x="739" y="212"/>
      <point x="775" y="306"/>
      <point x="807" y="400"/>
      <point x="839" y="500"/>
      <point x="856" y="555" type="qcurve"/>
      <point x="713" y="678" type="line"/>
      <point x="665" y="609"/>
      <point x="579" y="490"/>
      <point x="497" y="380"/>
      <point x="414" y="273"/>
      <point x="368" y="217" type="qcurve"/>
      <point x="376" y="265"/>
      <point x="394" y="352"/>
      <point x="415" y="440"/>
      <point x="440" y="532"/>
      <point x="456" y="584" type="qcurve"/>
      <point x="309" y="713" type="line"/>
      <point x="244" y="628"/>
      <point x="142" y="480"/>
      <point x="52" y="334"/>
      <point x="-32" y="179"/>
      <point x="-78" y="86" type="qcurve"/>
    </contour>
  </outline>
</glyph>
<glyph name="N" format="1">
  <advance width="727"/>
  <unicode hex="004E"/>
  <outline>
    <contour>
      <point x="46" y="-29" type="line" name="hr00"/>
      <point x="88" y="78"/>
      <point x="202" y="307"/>
      <point x="265" y="413" type="qcurve"/>
      <point x="270" y="310"/>
      <point x="290" y="90"/>
      <point x="307" y="-37" type="qcurve"/>
      <point x="440" y="-10" type="line"/>
      <point x="507" y="148"/>
      <point x="665" y="448"/>
      <point x="753" y="571" type="qcurve"/>
      <point x="651" y="665" type="line"/>
      <point x="576" y="562"/>
      <point x="458" y="357"/>
      <point x="410" y="256" type="qcurve"/>
      <point x="402" y="347"/>
      <point x="393" y="517"/>
      <point x="392" y="607" type="qcurve"/>
      <point x="293" y="704" type="line"/>
      <point x="245" y="641"/>
      <point x="143" y="486"/>
      <point x="47" y="319"/>
      <point x="-39" y="152"/>
      <point x="-70" y="77" type="qcurve"/>
    </contour>
  </outline>
</glyph>
<glyph name="O" format="1">
  <advance width="686"/>
  <unicode hex="004F"/>
  <outline>
    <contour>
      <point x="-18" y="84" type="qcurve" name="hr00"/>
      <point x="130" y="-52" type="line"/>
      <point x="226" y="-34"/>
      <point x="375" y="40"/>
      <point x="490" y="150"/>
      <point x="575" y="296"/>
      <point x="607" y="386" type="qcurve"/>
      <point x="652" y="521" type="line"/>
      <point x="598" y="578"/>
      <point x="485" y="661"/>
      <point x="418" y="695" type="qcurve"/>
      <point x="313" y="646"/>
      <point x="157" y="515"/>
      <point x="51" y="359"/>
      <point x="-9" y="181"/>
    </contour>
    <contour>
      <point x="136" y="91" type="qcurve"/>
      <point x="141" y="160"/>
      <point x="190" y="297"/>
      <point x="265" y="417"/>
      <point x="359" y="511"/>
      <point x="409" y="537" type="qcurve"/>
      <point x="437" y="520"/>
      <point x="484" y="488"/>
      <point x="529" y="453"/>
      <point x="578" y="412"/>
      <point x="607" y="386" type="qcurve"/>
      <point x="469" y="436" type="line"/>
      <point x="441" y="362"/>
      <point x="366" y="246"/>
      <point x="279" y="160"/>
      <point x="184" y="104"/>
    </contour>
  </outline>
</glyph>
<glyph name="P" format="1">
  <advance width="674"/>
  <unicode hex="0050"/>
  <outline>
    <contour>
      <point x="48" y="-30" type="line" name="hr00"/>
      <point x="80" y="48"/>
      <point x="149" y="186"/>
      <point x="187" y="250" type="qcurve"/>
      <point x="253" y="156" type="line"/>
      <point x="378" y="190"/>
      <point x="593" y="333"/>
      <point x="662" y="431" type="qcurve"/>
      <point x="584" y="606" type="line"/>
      <point x="531" y="629"/>
      <point x="427" y="661"/>
      <point x="322" y="681"/>
      <point x="212" y="692"/>
      <point x="152" y="694" type="qcurve"/>
      <point x="109" y="575" type="line"/>
      <point x="164" y="575"/>
      <point x="233" y="563" type="qcurve"/>
      <point x="186" y="507"/>
      <point x="106" y="396"/>
      <point x="35" y="279"/>
      <point x="-32" y="150"/>
      <point x="-66" y="75" type="qcurve"/>
    </contour>
    <contour>
      <point x="202" y="275" type="qcurve"/>
      <point x="270" y="386"/>
      <point x="350" y="487" type="qcurve"/>
      <point x="264" y="558" type="line"/>
      <point x="333" y="544"/>
      <point x="469" y="502"/>
      <point x="519" y="476" type="qcurve"/>
      <point x="466" y="412"/>
      <point x="303" y="310"/>
    </contour>
  </outline>
</glyph>
<glyph name="Q" format="1">
  <advance width="666"/>
  <unicode hex="0051"/>
  <outline>
    <contour>
      <point x="-20" y="-4" type="line" name="hr00"/>
      <point x="26" y="-38"/>
      <point x="108" y="-92"/>
      <point x="194" y="-138"/>
      <point x="288" y="-181"/>
      <point x="347" y="-203" type="qcurve"/>
      <point x="411" y="-78" type="line"/>
      <point x="347" y="-54"/>
      <point x="247" y="-12"/>
      <point x="202" y="10" type="qcurve"/>
      <point x="399" y="73"/>
      <point x="607" y="366"/>
      <point x="633" y="583" type="qcurve"/>
      <point x="501" y="684" type="line"/>
      <point x="499" y="661"/>
      <point x="494" y="617"/>
      <point x="490" y="596" type="qcurve"/>
      <point x="426" y="697" type="line"/>
      <point x="337" y="671"/>
      <point x="190" y="571"/>
      <point x="81" y="436"/>
      <point x="14" y="272"/>
      <point x="7" y="182" type="qcurve"/>
      <point x="106" y="114" type="line"/>
      <point x="88" y="108"/>
      <point x="52" y="98"/>
      <point x="32" y="94" type="qcurve"/>
    </contour>
    <contour>
      <point x="131" y="123" type="qcurve"/>
      <point x="155" y="293"/>
      <point x="338" y="529"/>
      <point x="487" y="579" type="qcurve"/>
      <point x="455" y="405"/>
      <point x="276" y="178"/>
    </contour>
  </outline>
</glyph>
<glyph name="R" format="1">
  <advance width="678"/>
  <unicode hex="0052"/>
  <outline>
    <contour>
      <point x="47" y="-29" type="line" name="hr00"/>
      <point x="76" y="41"/>
      <point x="138" y="167"/>
      <point x="172" y="226" type="qcurve"/>
      <point x="215" y="142"/>
      <point x="300" y="5"/>
      <point x="349" y="-58" type="qcurve"/>
      <point x="482" y="28" type="line"/>
      <point x="437" y="76"/>
      <point x="367" y="167"/>
      <point x="338" y="213" type="qcurve"/>
      <point x="441" y="253"/>
      <point x="606" y="361"/>
      <point x="661" y="434" type="qcurve"/>
      <point x="583" y="606" type="line"/>
      <point x="530" y="629"/>
      <point x="426" y="661"/>
      <point x="321" y="681"/>
      <point x="211" y="692"/>
      <point x="151" y="694" type="qcurve"/>
      <point x="108" y="575" type="line"/>
      <point x="164" y="575"/>
      <point x="233" y="563" type="qcurve"/>
      <point x="186" y="507"/>
      <point x="106" y="396"/>
      <point x="35" y="279"/>
      <point x="-32" y="150"/>
      <point x="-66" y="75" type="qcurve"/>
    </contour>
    <contour>
      <point x="212" y="293" type="qcurve"/>
      <point x="244" y="344"/>
      <point x="313" y="440"/>
      <point x="350" y="487" type="qcurve"/>
      <point x="264" y="557" type="line"/>
      <point x="333" y="544"/>
      <point x="467" y="503"/>
      <point x="516" y="477" type="qcurve"/>
      <point x="490" y="450"/>
      <point x="418" y="397"/>
      <point x="337" y="349"/>
      <point x="251" y="308"/>
    </contour>
  </outline>
</glyph>
<glyph name="S" format="1">
  <advance width="612"/>
  <unicode hex="0053"/>
  <outline>
    <contour>
      <point x="21" y="84" type="qcurve" name="hr00"/>
      <point x="67" y="56"/>
      <point x="169" y="7"/>
      <point x="284" y="-35"/>
      <point x="353" y="-53" type="qcurve"/>
      <point x="437" y="81" type="line"/>
      <point x="420" y="134"/>
      <point x="374" y="232"/>
      <point x="327" y="321"/>
      <point x="285" y="400"/>
      <point x="274" y="435" type="qcurve"/>
      <point x="316" y="481"/>
      <point x="417" y="560"/>
      <point x="468" y="587" type="qcurve"/>
      <point x="449" y="534"/>
      <point x="404" y="432"/>
      <point x="384" y="400" type="qcurve"/>
      <point x="504" y="331" type="line"/>
      <point x="517" y="350"/>
      <point x="551" y="413"/>
      <point x="586" y="486"/>
      <point x="614" y="561"/>
      <point x="621" y="593" type="qcurve"/>
      <point x="428" y="722" type="line"/>
      <point x="390" y="704"/>
      <point x="303" y="649"/>
      <point x="216" y="581"/>
      <point x="134" y="503"/>
      <point x="102" y="463" type="qcurve"/>
      <point x="114" y="421"/>
      <point x="157" y="336"/>
      <point x="207" y="249"/>
      <point x="257" y="159"/>
      <point x="277" y="110" type="qcurve"/>
      <point x="202" y="139"/>
      <point x="64" y="219"/>
      <point x="-1" y="264" type="qcurve"/>
      <point x="-68" y="142" type="line"/>
      <point x="-24" y="112"/>
    </contour>
  </outline>
</glyph>
<glyph name="T" format="1">
  <advance width="576"/>
  <unicode hex="0054"/>
  <outline>
    <contour>
      <point x="11" y="78" type="qcurve" name="hr00"/>
      <point x="128" y="-29" type="line"/>
      <point x="161" y="49"/>
      <point x="222" y="180"/>
      <point x="286" y="298"/>
      <point x="355" y="408"/>
      <point x="397" y="465" type="qcurve"/>
      <point x="312" y="541" type="line"/>
      <point x="384" y="516"/>
      <point x="520" y="462"/>
      <point x="582" y="436" type="qcurve"/>
      <point x="651" y="574" type="line"/>
      <point x="525" y="623"/>
      <point x="266" y="704"/>
      <point x="145" y="727" type="qcurve"/>
      <point x="71" y="612" type="line"/>
      <point x="122" y="599"/>
      <point x="228" y="568"/>
      <point x="282" y="551" type="qcurve"/>
      <point x="217" y="461"/>
      <point x="72" y="230"/>
    </contour>
  </outline>
</glyph>
<glyph name="U" format="1">
  <advance width="680"/>
  <unicode hex="0055"/>
  <outline>
    <contour>
      <point x="76" y="-25" type="line" name="hr00"/>
      <point x="127" y="-7"/>
      <point x="229" y="34"/>
      <point x="273" y="57" type="qcurve"/>
      <point x="386" y="-50" type="line"/>
      <point x="425" y="48"/>
      <point x="505" y="226"/>
      <point x="586" y="379"/>
      <point x="668" y="506"/>
      <point x="707" y="553" type="qcurve"/>
      <point x="597" y="660" type="line"/>
      <point x="565" y="621"/>
      <point x="497" y="516"/>
      <point x="428" y="396"/>
      <point x="360" y="264"/>
      <point x="328" y="198" type="qcurve"/>
      <point x="328" y="200" type="line"/>
      <point x="308" y="192"/>
      <point x="257" y="175"/>
      <point x="202" y="159"/>
      <point x="148" y="145"/>
      <point x="126" y="140" type="qcurve"/>
      <point x="150" y="196"/>
      <point x="211" y="316"/>
      <point x="279" y="433"/>
      <point x="353" y="542"/>
      <point x="391" y="588" type="qcurve"/>
      <point x="283" y="695" type="line"/>
      <point x="184" y="566"/>
      <point x="13" y="262"/>
      <point x="-50" y="96" type="qcurve"/>
    </contour>
  </outline>
</glyph>
<glyph name="V" format="1">
  <advance width="655"/>
  <unicode hex="0056"/>
  <outline>
    <contour>
      <point x="79" y="59" type="qcurve" name="hr00"/>
      <point x="184" y="-38" type="line"/>
      <point x="253" y="9"/>
      <point x="391" y="138"/>
      <point x="522" y="291"/>
      <point x="640" y="463"/>
      <point x="688" y="553" type="qcurve"/>
      <point x="580" y="660" type="line"/>
      <point x="536" y="579"/>
      <point x="439" y="429"/>
      <point x="336" y="294"/>
      <point x="227" y="178"/>
      <point x="173" y="131" type="qcurve"/>
      <point x="205" y="253"/>
      <point x="315" y="483"/>
      <point x="383" y="589" type="qcurve"/>
      <point x="272" y="707" type="line"/>
      <point x="236" y="695"/>
      <point x="175" y="671"/>
      <point x="120" y="645"/>
      <point x="68" y="616"/>
      <point x="40" y="600" type="qcurve"/>
      <point x="89" y="485" type="line"/>
      <point x="115" y="499"/>
      <point x="171" y="529"/>
      <point x="202" y="544" type="qcurve"/>
      <point x="147" y="461"/>
      <point x="69" y="292"/>
      <point x="38" y="193" type="qcurve"/>
      <point x="140" y="104" type="line"/>
      <point x="125" y="91"/>
      <point x="94" y="69"/>
    </contour>
  </outline>
</glyph>
<glyph name="W" format="1">
  <advance width="974"/>
  <unicode hex="0057"/>
  <outline>
    <contour>
      <point x="36" y="106" type="qcurve" name="hr00"/>
      <point x="186" y="-29" type="line"/>
      <point x="214" y="-7"/>
      <point x="267" y="37"/>
      <point x="317" y="84"/>
      <point x="366" y="136"/>
      <point x="392" y="166" type="qcurve"/>
      <point x="384" y="140"/>
      <point x="370" y="93"/>
      <point x="364" y="70" type="qcurve"/>
      <point x="496" y="-47" type="line"/>
      <point x="570" y="-1"/>
      <point x="708" y="122"/>
      <point x="830" y="268"/>
      <point x="932" y="431"/>
      <point x="970" y="518" type="qcurve"/>
      <point x="861" y="618" type="line"/>
      <point x="786" y="450"/>
      <point x="605" y="201"/>
      <point x="500" y="115" type="qcurve"/>
      <point x="511" y="156"/>
      <point x="538" y="244"/>
      <point x="577" y="345"/>
      <point x="632" y="461"/>
      <point x="670" y="531" type="qcurve"/>
      <point x="688" y="564" type="line"/>
      <point x="584" y="660" type="line"/>
      <point x="498" y="502"/>
      <point x="297" y="233"/>
      <point x="187" y="141" type="qcurve"/>
      <point x="219" y="262"/>
      <point x="322" y="484"/>
      <point x="390" y="590" type="qcurve"/>
      <point x="278" y="702" type="line"/>
      <point x="242" y="690"/>
      <point x="180" y="664"/>
      <point x="124" y="637"/>
      <point x="71" y="607"/>
      <point x="43" y="591" type="qcurve"/>
      <point x="92" y="476" type="line"/>
      <point x="117" y="490"/>
      <point x="172" y="519"/>
      <point x="202" y="533" type="qcurve"/>
      <point x="142" y="436"/>
      <point x="59" y="221"/>
    </contour>
  </outline>
</glyph>
<glyph name="X" format="1">
  <advance width="604"/>
  <unicode hex="0058"/>
  <outline>
    <contour>
      <point x="3" y="3" type="line" name="hr00"/>
      <point x="61" y="68"/>
      <point x="167" y="178"/>
      <point x="227" y="224" type="qcurve"/>
      <point x="241" y="161"/>
      <point x="281" y="31"/>
      <point x="307" y="-38" type="qcurve"/>
      <point x="448" y="-1" type="line"/>
      <point x="419" y="71"/>
      <point x="367" y="228"/>
      <point x="350" y="302" type="qcurve"/>
      <point x="386" y="332"/>
      <point x="457" y="387"/>
      <point x="534" y="440"/>
      <point x="619" y="493"/>
      <point x="668" y="520" type="qcurve"/>
      <point x="578" y="640" type="line"/>
      <point x="509" y="596"/>
      <point x="388" y="505"/>
      <point x="330" y="454" type="qcurve"/>
      <point x="329" y="491"/>
      <point x="332" y="566"/>
      <point x="336" y="598" type="qcurve"/>
      <point x="249" y="694" type="line"/>
      <point x="198" y="676"/>
      <point x="103" y="631"/>
      <point x="56" y="602" type="qcurve"/>
      <point x="104" y="492" type="line"/>
      <point x="143" y="513"/>
      <point x="191" y="534" type="qcurve"/>
      <point x="191" y="449"/>
      <point x="200" y="367" type="qcurve"/>
      <point x="119" y="313"/>
      <point x="-24" y="183"/>
      <point x="-90" y="112" type="qcurve"/>
    </contour>
  </outline>
</glyph>
<glyph name="Y" format="1">
  <advance width="566"/>
  <unicode hex="0059"/>
  <outline>
    <contour>
      <point x="13" y="66" type="qcurve" name="hr00"/>
      <point x="137" y="-41" type="line"/>
      <point x="161" y="28"/>
      <point x="210" y="142"/>
      <point x="245" y="196" type="qcurve"/>
      <point x="353" y="262"/>
      <point x="544" y="441"/>
      <point x="635" y="556" type="qcurve"/>
      <point x="523" y="663" type="line"/>
      <point x="460" y="573"/>
      <point x="318" y="417"/>
      <point x="245" y="353" type="qcurve"/>
      <point x="247" y="421"/>
      <point x="267" y="546"/>
      <point x="283" y="608" type="qcurve"/>
      <point x="149" y="731" type="line"/>
      <point x="121" y="610"/>
      <point x="100" y="373"/>
      <point x="112" y="270" type="qcurve"/>
      <point x="92" y="238"/>
      <point x="66" y="190"/>
      <point x="45" y="146"/>
      <point x="26" y="98"/>
    </contour>
  </outline>
</glyph>
<glyph name="Z" format="1">
  <advance width="631"/>
  <unicode hex="005A"/>
  <outline>
    <contour>
      <point x="-65" y="79" type="line" name="hr00"/>
      <point x="23" y="34"/>
      <point x="252" y="-31"/>
      <point x="379" y="-52" type="qcurve"/>
      <point x="430" y="79" type="line"/>
      <point x="361" y="90"/>
      <point x="230" y="116"/>
      <point x="167" y="134" type="qcurve"/>
      <point x="231" y="167"/>
      <point x="355" y="242"/>
      <point x="466" y="321"/>
      <point x="563" y="400"/>
      <point x="601" y="437" type="qcurve"/>
      <point x="642" y="559" type="line"/>
      <point x="589" y="584"/>
      <point x="493" y="626"/>
      <point x="399" y="661"/>
      <point x="302" y="689"/>
      <point x="248" y="701" type="qcurve"/>
      <point x="119" y="611" type="line"/>
      <point x="123" y="567"/>
      <point x="137" y="488"/>
      <point x="151" y="439" type="qcurve"/>
      <point x="283" y="455" type="line"/>
      <point x="278" y="479"/>
      <point x="269" y="531"/>
      <point x="264" y="560" type="qcurve"/>
      <point x="318" y="547"/>
      <point x="413" y="518"/>
      <point x="463" y="499" type="qcurve"/>
      <point x="419" y="461"/>
      <point x="305" y="376"/>
      <point x="177" y="295"/>
      <point x="41" y="221"/>
      <point x="-26" y="193" type="qcurve"/>
    </contour>
  </outline>
</glyph>
<glyph name="bracketleft" format="1">
  <advance width="513"/>
  <unicode hex="005B"/>
  <outline>
    <contour>
      <point x="-8" y="-35" type="qcurve" name="hr00"/>
      <point x="81" y="-122" type="line"/>
      <point x="105" y="-132"/>
      <point x="147" y="-146"/>
      <point x="187" y="-157"/>
      <point x="232" y="-166"/>
      <point x="259" y="-170" type="qcurve"/>
      <point x="287" y="-81" type="line"/>
      <point x="239" y="-68"/>
      <point x="160" y="-40"/>
      <point x="123" y="-26" type="qcurve"/>
      <point x="166" y="69"/>
      <point x="256" y="241"/>
      <point x="348" y="405"/>
      <point x="445" y="565"/>
      <point x="496" y="647" type="qcurve"/>
      <point x="522" y="639"/>
      <point x="579" y="621"/>
      <point x="614" y="607" type="qcurve"/>
      <point x="646" y="692" type="line"/>
      <point x="616" y="705"/>
      <point x="567" y="726"/>
      <point x="521" y="743"/>
      <point x="469" y="760"/>
      <point x="436" y="771" type="qcurve"/>
      <point x="364" y="663"/>
      <point x="247" y="473"/>
      <point x="143" y="285"/>
      <point x="45" y="84"/>
    </contour>
  </outline>
</glyph>
<glyph name="backslash" format="1">
  <advance width="470"/>
  <unicode hex="005C"/>
  <outline>
    <contour>
      <point x="264" y="98" type="qcurve" name="hr00"/>
      <point x="285" y="33"/>
      <point x="309" y="-44" type="qcurve"/>
      <point x="391" y="4" type="line"/>
      <point x="368" y="77"/>
      <point x="328" y="201"/>
      <point x="290" y="311"/>
      <point x="251" y="415"/>
      <point x="208" y="524"/>
      <point x="159" y="644"/>
      <point x="129" y="715" type="qcurve"/>
      <point x="46" y="671" type="line"/>
      <point x="76" y="604"/>
      <point x="124" y="490"/>
      <point x="166" y="383"/>
      <point x="204" y="277"/>
      <point x="243" y="163"/>
    </contour>
  </outline>
</glyph>
<glyph name="asciicircum" format="1">
  <advance width="654"/>
  <unicode hex="005E"/>
  <outline>
    <contour>
      <point x="102" y="205" type="line" name="hr00"/>
      <point x="157" y="252"/>
      <point x="269" y="339"/>
      <point x="334" y="383" type="qcurve"/>
      <point x="348" y="307"/>
      <point x="371" y="160"/>
      <point x="379" y="91" type="qcurve"/>
      <point x="493" y="115" type="line"/>
      <point x="491" y="157"/>
      <point x="481" y="256"/>
      <point x="469" y="360"/>
      <point x="453" y="460"/>
      <point x="445" y="504" type="qcurve"/>
      <point x="347" y="549" type="line"/>
      <point x="309" y="526"/>
      <point x="230" y="469"/>
      <point x="151" y="405"/>
      <point x="76" y="336"/>
      <point x="43" y="302" type="qcurve"/>
    </contour>
  </outline>
</glyph>
<glyph name="underscore" format="1">
  <advance width="679"/>
  <unicode hex="005F"/>
  <outline>
    <contour>
      <point x="-91" y="-106" type="line" name="hr00"/>
      <point x="-91" y="-200" type="line"/>
      <point x="626" y="-200" type="line"/>
      <point x="626" y="-106" type="line"/>
    </contour>
  </outline>
</glyph>
<glyph name="grave" format="1">
  <advance width="355"/>
  <unicode hex="0060"/>
  <outline>
    <contour>
      <point x="226" y="544" type="qcurve" name="hr00"/>
      <point x="324" y="587" type="line"/>
      <point x="297" y="659"/>
      <point x="239" y="790"/>
      <point x="201" y="859" type="qcurve"/>
      <point x="88" y="797" type="line"/>
      <point x="126" y="741"/>
      <point x="193" y="621"/>
    </contour>
  </outline>
</glyph>
<glyph name="a" format="1">
  <advance width="616"/>
  <unicode hex="0061"/>
  <outline>
    <contour>
      <point x="90" y="-27" type="line" name="hr00"/>
      <point x="156" y="-9"/>
      <point x="240" y="38"/>
      <point x="272" y="63" type="qcurve"/>
      <point x="349" y="-23" type="line"/>
      <point x="366" y="-17"/>
      <point x="418" y="5"/>
      <point x="476" y="34"/>
      <point x="536" y="66"/>
      <point x="590" y="97"/>
      <point x="632" y="123"/>
      <point x="643" y="131" type="qcurve"/>
      <point x="621" y="232" type="line"/>
      <point x="600" y="221"/>
      <point x="538" y="192"/>
      <point x="472" y="163"/>
      <point x="409" y="139"/>
      <point x="386" y="133" type="qcurve"/>
      <point x="389" y="135" type="line"/>
      <point x="404" y="169"/>
      <point x="444" y="245"/>
      <point x="488" y="318"/>
      <point x="533" y="385"/>
      <point x="553" y="411" type="qcurve"/>
      <point x="455" y="495" type="line"/>
      <point x="441" y="478"/>
      <point x="415" y="446"/>
      <point x="404" y="429" type="qcurve"/>
      <point x="338" y="530" type="line"/>
      <point x="247" y="522"/>
      <point x="108" y="441"/>
      <point x="14" y="319"/>
      <point x="-34" y="167"/>
      <point x="-34" y="88" type="qcurve"/>
    </contour>
    <contour>
      <point x="106" y="117" type="qcurve"/>
      <point x="106" y="173"/>
      <point x="140" y="272"/>
      <point x="202" y="348"/>
      <point x="288" y="396"/>
      <point x="340" y="401" type="qcurve"/>
      <point x="334" y="363"/>
      <point x="318" y="297"/>
      <point x="301" y="259" type="qcurve"/>
      <point x="254" y="199"/>
      <point x="157" y="131"/>
    </contour>
  </outline>
</glyph>
<glyph name="b" format="1">
  <advance width="608"/>
  <unicode hex="0062"/>
  <outline>
    <contour>
      <point x="24" y="-27" type="line" name="hr00"/>
      <point x="30" y="-8"/>
      <point x="42" y="33"/>
      <point x="50" y="56" type="qcurve"/>
      <point x="154" y="-27" type="line"/>
      <point x="241" y="-9"/>
      <point x="368" y="21"/>
      <point x="474" y="56"/>
      <point x="573" y="100"/>
      <point x="634" y="131" type="qcurve"/>
      <point x="613" y="232" type="line"/>
      <point x="564" y="210"/>
      <point x="457" y="166"/>
      <point x="415" y="155" type="qcurve"/>
      <point x="446" y="205"/>
      <point x="490" y="320"/>
      <point x="499" y="382" type="qcurve"/>
      <point x="343" y="504" type="line"/>
      <point x="302" y="481"/>
      <point x="237" y="433"/>
      <point x="210" y="408" type="qcurve"/>
      <point x="250" y="475"/>
      <point x="321" y="591"/>
      <point x="353" y="637" type="qcurve"/>
      <point x="249" y="714" type="line"/>
      <point x="224" y="677"/>
      <point x="163" y="575"/>
      <point x="97" y="456"/>
      <point x="30" y="329"/>
      <point x="-28" y="208"/>
      <point x="-73" y="100"/>
      <point x="-86" y="59" type="qcurve"/>
    </contour>
    <contour>
      <point x="116" y="108" type="qcurve"/>
      <point x="118" y="155"/>
      <point x="132" y="216"/>
      <point x="144" y="248" type="qcurve"/>
      <point x="181" y="288"/>
      <point x="297" y="359"/>
      <point x="359" y="381" type="qcurve"/>
      <point x="355" y="344"/>
      <point x="330" y="268"/>
      <point x="297" y="200"/>
      <point x="257" y="146"/>
      <point x="238" y="133" type="qcurve"/>
      <point x="228" y="126"/>
      <point x="198" y="117"/>
      <point x="165" y="111"/>
      <point x="131" y="108"/>
    </contour>
  </outline>
</glyph>
<glyph name="c" format="1">
  <advance width="531"/>
  <unicode hex="0063"/>
  <outline>
    <contour>
      <point x="-32" y="88" type="qcurve" name="hr00"/>
      <point x="92" y="-27" type="line"/>
      <point x="153" y="-24"/>
      <point x="279" y="5"/>
      <point x="401" y="48"/>
      <point x="512" y="102"/>
      <point x="558" y="131" type="qcurve"/>
      <point x="536" y="232" type="line"/>
      <point x="437" y="179"/>
      <point x="217" y="117"/>
      <point x="110" y="103" type="qcurve"/>
      <point x="110" y="144"/>
      <point x="133" y="239"/>
      <point x="164" y="286" type="qcurve"/>
      <point x="199" y="339"/>
      <point x="278" y="400"/>
      <point x="320" y="418" type="qcurve"/>
      <point x="313" y="395"/>
      <point x="275" y="333"/>
      <point x="252" y="304" type="qcurve"/>
      <point x="378" y="224" type="line"/>
      <point x="388" y="238"/>
      <point x="416" y="290"/>
      <point x="442" y="347"/>
      <point x="463" y="398"/>
      <point x="466" y="412" type="qcurve"/>
      <point x="306" y="531" type="line"/>
      <point x="274" y="521"/>
      <point x="204" y="488"/>
      <point x="133" y="441"/>
      <point x="67" y="379"/>
      <point x="40" y="340" type="qcurve"/>
      <point x="14" y="304"/>
      <point x="-14" y="236"/>
      <point x="-29" y="172"/>
      <point x="-32" y="114"/>
    </contour>
  </outline>
</glyph>
<glyph name="d" format="1">
  <advance width="611"/>
  <unicode hex="0064"/>
  <outline>
    <contour>
      <point x="90" y="-27" type="line" name="hr00"/>
      <point x="156" y="-9"/>
      <point x="240" y="38"/>
      <point x="272" y="63" type="qcurve"/>
      <point x="349" y="-23" type="line"/>
      <point x="375" y="-14"/>
      <point x="460" y="27"/>
      <point x="548" y="74"/>
      <point x="622" y="119"/>
      <point x="638" y="131" type="qcurve"/>
      <point x="616" y="232" type="line"/>
      <point x="596" y="221"/>
      <point x="538" y="193"/>
      <point x="476" y="166"/>
      <point x="415" y="142"/>
      <point x="392" y="135" type="qcurve"/>
      <point x="417" y="202"/>
      <point x="481" y="342"/>
      <point x="550" y="473"/>
      <point x="621" y="588"/>
      <point x="654" y="630" type="qcurve"/>
      <point x="557" y="714" type="line"/>
      <point x="540" y="691"/>
      <point x="499" y="630"/>
      <point x="455" y="559"/>
      <point x="412" y="483"/>
      <point x="393" y="446" type="qcurve"/>
      <point x="338" y="530" type="line"/>
      <point x="247" y="522"/>
      <point x="108" y="441"/>
      <point x="14" y="319"/>
      <point x="-34" y="167"/>
      <point x="-34" y="88" type="qcurve"/>
    </contour>
    <contour>
      <point x="106" y="117" type="qcurve"/>
      <point x="106" y="173"/>
      <point x="140" y="272"/>
      <point x="202" y="348"/>
      <point x="288" y="396"/>
      <point x="340" y="401" type="qcurve"/>
      <point x="334" y="363"/>
      <point x="318" y="297"/>
      <point x="301" y="259" type="qcurve"/>
      <point x="254" y="199"/>
      <point x="157" y="131"/>
    </contour>
  </outline>
</glyph>
<glyph name="e" format="1">
  <advance width="538"/>
  <unicode hex="0065"/>
  <outline>
    <contour>
      <point x="89" y="-27" type="line" name="hr00"/>
      <point x="153" y="-24"/>
      <point x="283" y="5"/>
      <point x="406" y="49"/>
      <point x="518" y="102"/>
      <point x="564" y="131" type="qcurve"/>
      <point x="543" y="232" type="line"/>
      <point x="493" y="202"/>
      <point x="385" y="157"/>
      <point x="273" y="125"/>
      <point x="160" y="106"/>
      <point x="107" y="103" type="qcurve"/>
      <point x="109" y="130"/>
      <point x="119" y="180"/>
      <point x="127" y="200" type="qcurve"/>
      <point x="146" y="195"/>
      <point x="181" y="193"/>
      <point x="201" y="193" type="qcurve"/>
      <point x="298" y="193"/>
      <point x="438" y="287"/>
      <point x="463" y="391" type="qcurve"/>
      <point x="294" y="531" type="line"/>
      <point x="231" y="511"/>
      <point x="94" y="419"/>
      <point x="40" y="340" type="qcurve"/>
      <point x="19" y="308"/>
      <point x="-10" y="241"/>
      <point x="-28" y="175"/>
      <point x="-35" y="114"/>
      <point x="-35" y="88" type="qcurve"/>
    </contour>
    <contour>
      <point x="169" y="290" type="qcurve"/>
      <point x="181" y="310"/>
      <point x="214" y="349"/>
      <point x="254" y="385"/>
      <point x="298" y="416"/>
      <point x="320" y="428" type="qcurve"/>
      <point x="320" y="392"/>
      <point x="292" y="339"/>
      <point x="248" y="306"/>
      <point x="194" y="290"/>
    </contour>
  </outline>
</glyph>
<glyph name="f" format="1">
  <advance width="553"/>
  <unicode hex="0066"/>
  <outline>
    <contour>
      <point x="-19" y="58" type="qcurve" name="hr00"/>
      <point x="-37" y="17"/>
      <point x="-70" y="-64"/>
      <point x="-100" y="-149"/>
      <point x="-115" y="-198" type="qcurve"/>
      <point x="5" y="-284" type="line"/>
      <point x="31" y="-186"/>
      <point x="90" y="-15"/>
      <point x="125" y="70" type="qcurve"/>
      <point x="186" y="31" type="line"/>
      <point x="246" y="43"/>
      <point x="346" y="65"/>
      <point x="439" y="89"/>
      <point x="529" y="115"/>
      <point x="579" y="131" type="qcurve"/>
      <point x="558" y="232" type="line"/>
      <point x="494" y="212"/>
      <point x="374" y="183"/>
      <point x="303" y="171" type="qcurve"/>
      <point x="408" y="256"/>
      <point x="545" y="498"/>
      <point x="571" y="641" type="qcurve"/>
      <point x="402" y="762" type="line"/>
      <point x="352" y="727"/>
      <point x="254" y="626"/>
      <point x="165" y="497"/>
      <point x="90" y="341"/>
      <point x="65" y="253" type="qcurve"/>
      <point x="48" y="268"/>
      <point x="30" y="286" type="qcurve"/>
      <point x="-12" y="328" type="line"/>
      <point x="-75" y="251" type="line"/>
      <point x="-46" y="217"/>
      <point x="-4" y="172"/>
      <point x="21" y="147" type="qcurve"/>
      <point x="-1" y="100"/>
    </contour>
    <contour>
      <point x="160" y="180" type="qcurve"/>
      <point x="197" y="305"/>
      <point x="337" y="530"/>
      <point x="444" y="637" type="qcurve"/>
      <point x="436" y="589"/>
      <point x="384" y="466"/>
      <point x="307" y="340"/>
      <point x="211" y="223"/>
    </contour>
  </outline>
</glyph>
<glyph name="g" format="1">
  <advance width="620"/>
  <unicode hex="0067"/>
  <outline>
    <contour>
      <point x="19" y="25" type="line" name="hr00"/>
      <point x="-25" y="3"/>
      <point x="-93" y="-43"/>
      <point x="-125" y="-72" type="qcurve"/>
      <point x="-120" y="-237" type="line"/>
      <point x="-85" y="-249"/>
      <point x="-4" y="-269"/>
      <point x="80" y="-283"/>
      <point x="162" y="-293"/>
      <point x="197" y="-294" type="qcurve"/>
      <point x="227" y="-262"/>
      <point x="277" y="-195"/>
      <point x="317" y="-115"/>
      <point x="350" y="-19"/>
      <point x="364" y="43" type="qcurve"/>
      <point x="407" y="-5" type="line"/>
      <point x="433" y="4"/>
      <point x="503" y="39"/>
      <point x="571" y="79"/>
      <point x="630" y="119"/>
      <point x="646" y="131" type="qcurve"/>
      <point x="625" y="232" type="line"/>
      <point x="605" y="221"/>
      <point x="547" y="197"/>
      <point x="484" y="173"/>
      <point x="421" y="153"/>
      <point x="397" y="146" type="qcurve"/>
      <point x="412" y="180"/>
      <point x="452" y="252"/>
      <point x="494" y="322"/>
      <point x="537" y="386"/>
      <point x="556" y="411" type="qcurve"/>
      <point x="459" y="495" type="line"/>
      <point x="442" y="475"/>
      <point x="414" y="437"/>
      <point x="401" y="418" type="qcurve"/>
      <point x="345" y="512" type="line"/>
      <point x="254" y="504"/>
      <point x="112" y="426"/>
      <point x="14" y="307"/>
      <point x="-37" y="157"/>
      <point x="-37" y="78" type="qcurve"/>
    </contour>
    <contour>
      <point x="103" y="103" type="qcurve"/>
      <point x="103" y="159"/>
      <point x="137" y="257"/>
      <point x="199" y="330"/>
      <point x="285" y="377"/>
      <point x="337" y="382" type="qcurve"/>
      <point x="331" y="344"/>
      <point x="310" y="266"/>
      <point x="293" y="229" type="qcurve"/>
      <point x="270" y="199"/>
      <point x="223" y="157"/>
      <point x="176" y="128"/>
      <point x="128" y="110"/>
    </contour>
    <contour>
      <point x="-24" y="-145" type="qcurve"/>
      <point x="23" y="-103"/>
      <point x="158" y="-24"/>
      <point x="230" y="5" type="qcurve"/>
      <point x="208" y="-61"/>
      <point x="156" y="-144"/>
      <point x="128" y="-168" type="qcurve"/>
      <point x="112" y="-168"/>
      <point x="73" y="-163"/>
      <point x="33" y="-157"/>
      <point x="-7" y="-149"/>
    </contour>
  </outline>
</glyph>
<glyph name="h" format="1">
  <advance width="629"/>
  <unicode hex="0068"/>
  <outline>
    <contour>
      <point x="38" y="-27" type="line" name="hr00"/>
      <point x="53" y="26"/>
      <point x="91" y="131"/>
      <point x="113" y="185" type="qcurve"/>
      <point x="146" y="208"/>
      <point x="205" y="246"/>
      <point x="265" y="279"/>
      <point x="326" y="310"/>
      <point x="360" y="327" type="qcurve"/>
      <point x="348" y="274"/>
      <point x="267" y="133"/>
      <point x="207" y="61" type="qcurve"/>
      <point x="331" y="-27" type="line"/>
      <point x="358" y="-18"/>
      <point x="446" y="21"/>
      <point x="541" y="68"/>
      <point x="629" y="114"/>
      <point x="655" y="131" type="qcurve"/>
      <point x="634" y="232" type="line"/>
      <point x="577" y="203"/>
      <point x="471" y="155"/>
      <point x="407" y="133" type="qcurve"/>
      <point x="446" y="187"/>
      <point x="506" y="317"/>
      <point x="523" y="389" type="qcurve"/>
      <point x="402" y="484" type="line"/>
      <point x="338" y="450"/>
      <point x="238" y="387"/>
      <point x="188" y="349" type="qcurve"/>
      <point x="226" y="424"/>
      <point x="307" y="569"/>
      <point x="349" y="637" type="qcurve"/>
      <point x="247" y="714" type="line"/>
      <point x="222" y="677"/>
      <point x="161" y="573"/>
      <point x="96" y="453"/>
      <point x="32" y="324"/>
      <point x="-24" y="201"/>
      <point x="-69" y="91"/>
      <point x="-81" y="50" type="qcurve"/>
    </contour>
  </outline>
</glyph>
<glyph name="i" format="1">
  <advance width="332"/>
  <unicode hex="0069"/>
  <outline>
    <contour>
      <point x="243" y="566" type="qcurve" name="hr00"/>
      <point x="267" y="543"/>
      <point x="301" y="543" type="qcurve"/>
      <point x="335" y="543"/>
      <point x="382" y="590"/>
      <point x="382" y="624" type="qcurve"/>
      <point x="382" y="658"/>
      <point x="335" y="705"/>
      <point x="301" y="705" type="qcurve"/>
      <point x="267" y="705"/>
      <point x="220" y="658"/>
      <point x="220" y="624" type="qcurve"/>
      <point x="220" y="590"/>
    </contour>
    <contour>
      <point x="34" y="-27" type="line"/>
      <point x="78" y="-12"/>
      <point x="170" y="28"/>
      <point x="257" y="72"/>
      <point x="332" y="114"/>
      <point x="358" y="131" type="qcurve"/>
      <point x="337" y="232" type="line"/>
      <point x="282" y="203"/>
      <point x="162" y="147"/>
      <point x="92" y="126" type="qcurve"/>
      <point x="106" y="162"/>
      <point x="147" y="246"/>
      <point x="194" y="331"/>
      <point x="244" y="412"/>
      <point x="268" y="445" type="qcurve"/>
      <point x="169" y="518" type="line"/>
      <point x="133" y="473"/>
      <point x="57" y="353"/>
      <point x="-12" y="230"/>
      <point x="-67" y="117"/>
      <point x="-81" y="79" type="qcurve"/>
    </contour>
  </outline>
</glyph>
<glyph name="j" format="1">
  <advance width="332"/>
  <unicode hex="006A"/>
  <outline>
    <contour>
      <point x="243" y="566" type="qcurve" name="hr00"/>
      <point x="267" y="543"/>
      <point x="301" y="543" type="qcurve"/>
      <point x="335" y="543"/>
      <point x="382" y="590"/>
      <point x="382" y="624" type="qcurve"/>
      <point x="382" y="658"/>
      <point x="335" y="705"/>
      <point x="301" y="705" type="qcurve"/>
      <point x="267" y="705"/>
      <point x="220" y="658"/>
      <point x="220" y="624" type="qcurve"/>
      <point x="220" y="590"/>
    </contour>
    <contour>
      <point x="25" y="8" type="qcurve"/>
      <point x="52" y="-18" type="line"/>
      <point x="96" y="-3"/>
      <point x="183" y="35"/>
      <point x="262" y="75"/>
      <point x="332" y="114"/>
      <point x="358" y="131" type="qcurve"/>
      <point x="337" y="232" type="line"/>
      <point x="280" y="203"/>
      <point x="157" y="146"/>
      <point x="83" y="124" type="qcurve"/>
      <point x="98" y="160"/>
      <point x="141" y="245"/>
      <point x="191" y="330"/>
      <point x="244" y="412"/>
      <point x="268" y="445" type="qcurve"/>
      <point x="169" y="518" type="line"/>
      <point x="143" y="485"/>
      <point x="85" y="401"/>
      <point x="30" y="311"/>
      <point x="-21" y="220"/>
      <point x="-41" y="180" type="qcurve"/>
      <point x="-92" y="77"/>
      <point x="-175" y="-131"/>
      <point x="-204" y="-221" type="qcurve"/>
      <point x="-88" y="-294" type="line"/>
      <point x="-63" y="-215"/>
      <point x="-10" y="-68"/>
    </contour>
  </outline>
</glyph>
<glyph name="k" format="1">
  <advance width="552"/>
  <unicode hex="006B"/>
  <outline>
    <contour>
      <point x="33" y="-27" type="line" name="hr00"/>
      <point x="56" y="39"/>
      <point x="106" y="168"/>
      <point x="134" y="231" type="qcurve"/>
      <point x="144" y="149"/>
      <point x="175" y="61" type="qcurve"/>
      <point x="300" y="-27" type="line"/>
      <point x="334" y="-11"/>
      <point x="407" y="27"/>
      <point x="480" y="68"/>
      <point x="549" y="111"/>
      <point x="579" y="131" type="qcurve"/>
      <point x="557" y="232" type="line"/>
      <point x="497" y="201"/>
      <point x="380" y="151"/>
      <point x="312" y="128" type="qcurve"/>
      <point x="296" y="160"/>
      <point x="271" y="216"/>
      <point x="261" y="245" type="qcurve"/>
      <point x="322" y="289"/>
      <point x="460" y="380"/>
      <point x="545" y="434" type="qcurve"/>
      <point x="443" y="529" type="line"/>
      <point x="363" y="472"/>
      <point x="228" y="360"/>
      <point x="165" y="301" type="qcurve"/>
      <point x="253" y="488"/>
      <point x="354" y="637" type="qcurve"/>
      <point x="251" y="714" type="line"/>
      <point x="201" y="636"/>
      <point x="105" y="467"/>
      <point x="18" y="296"/>
      <point x="-57" y="128"/>
      <point x="-86" y="50" type="qcurve"/>
    </contour>
  </outline>
</glyph>
<glyph name="l" format="1">
  <advance width="492"/>
  <unicode hex="006C"/>
  <outline>
    <contour>
      <point x="61" y="-27" type="line" name="hr00"/>
      <point x="122" y="-24"/>
      <point x="245" y="2"/>
      <point x="364" y="44"/>
      <point x="472" y="99"/>
      <point x="518" y="131" type="qcurve"/>
      <point x="497" y="232" type="line"/>
      <point x="447" y="199"/>
      <point x="342" y="153"/>
      <point x="235" y="121"/>
      <point x="129" y="101"/>
      <point x="79" y="94" type="qcurve"/>
      <point x="85" y="114"/>
      <point x="104" y="166"/>
      <point x="116" y="195" type="qcurve"/>
      <point x="201" y="216"/>
      <point x="339" y="288"/>
      <point x="441" y="395"/>
      <point x="506" y="541"/>
      <point x="518" y="637" type="qcurve"/>
      <point x="349" y="756" type="line"/>
      <point x="300" y="721"/>
      <point x="209" y="620"/>
      <point x="126" y="503"/>
      <point x="54" y="375"/>
      <point x="-5" y="250"/>
      <point x="-50" y="135"/>
      <point x="-63" y="88" type="qcurve"/>
    </contour>
    <contour>
      <point x="174" y="320" type="qcurve"/>
      <point x="196" y="364"/>
      <point x="248" y="453"/>
      <point x="303" y="535"/>
      <point x="361" y="607"/>
      <point x="391" y="634" type="qcurve"/>
      <point x="373" y="525"/>
      <point x="265" y="363"/>
    </contour>
  </outline>
</glyph>
<glyph name="m" format="1">
  <advance width="917"/>
  <unicode hex="006D"/>
  <outline>
    <contour>
      <point x="38" y="-27" type="line" name="hr00"/>
      <point x="54" y="24"/>
      <point x="94" y="133"/>
      <point x="117" y="187" type="qcurve"/>
      <point x="148" y="209"/>
      <point x="204" y="248"/>
      <point x="260" y="282"/>
      <point x="319" y="314"/>
      <point x="353" y="330" type="qcurve"/>
      <point x="347" y="303"/>
      <point x="320" y="236"/>
      <point x="281" y="164"/>
      <point x="234" y="88"/>
      <point x="207" y="52" type="qcurve"/>
      <point x="322" y="-27" type="line"/>
      <point x="358" y="24"/>
      <point x="419" y="131"/>
      <point x="443" y="185" type="qcurve"/>
      <point x="492" y="220"/>
      <point x="586" y="276"/>
      <point x="641" y="303" type="qcurve"/>
      <point x="629" y="252"/>
      <point x="555" y="133"/>
      <point x="495" y="61" type="qcurve"/>
      <point x="619" y="-27" type="line"/>
      <point x="646" y="-18"/>
      <point x="734" y="21"/>
      <point x="829" y="68"/>
      <point x="917" y="114"/>
      <point x="943" y="131" type="qcurve"/>
      <point x="922" y="232" type="line"/>
      <point x="865" y="203"/>
      <point x="760" y="155"/>
      <point x="696" y="133" type="qcurve"/>
      <point x="733" y="181"/>
      <point x="785" y="291"/>
      <point x="802" y="362" type="qcurve"/>
      <point x="681" y="457" type="line"/>
      <point x="627" y="428"/>
      <point x="541" y="371"/>
      <point x="501" y="339" type="qcurve"/>
      <point x="514" y="389" type="line"/>
      <point x="393" y="484" type="line"/>
      <point x="289" y="428"/>
      <point x="198" y="353" type="qcurve"/>
      <point x="213" y="381"/>
      <point x="245" y="431"/>
      <point x="262" y="454" type="qcurve"/>
      <point x="161" y="527" type="line"/>
      <point x="128" y="486"/>
      <point x="57" y="373"/>
      <point x="-7" y="245"/>
      <point x="-63" y="111"/>
      <point x="-81" y="50" type="qcurve"/>
    </contour>
  </outline>
</glyph>
<glyph name="n" format="1">
  <advance width="629"/>
  <unicode hex="006E"/>
  <outline>
    <contour>
      <point x="38" y="-27" type="line" name="hr00"/>
      <point x="70" y="77"/>
      <point x="116" y="187" type="qcurve"/>
      <point x="148" y="209"/>
      <point x="207" y="246"/>
      <point x="265" y="280"/>
      <point x="326" y="311"/>
      <point x="360" y="327" type="qcurve"/>
      <point x="348" y="274"/>
      <point x="267" y="133"/>
      <point x="207" y="61" type="qcurve"/>
      <point x="331" y="-27" type="line"/>
      <point x="358" y="-18"/>
      <point x="446" y="21"/>
      <point x="541" y="68"/>
      <point x="629" y="114"/>
      <point x="655" y="131" type="qcurve"/>
      <point x="634" y="232" type="line"/>
      <point x="577" y="203"/>
      <point x="471" y="155"/>
      <point x="407" y="133" type="qcurve"/>
      <point x="446" y="187"/>
      <point x="506" y="317"/>
      <point x="523" y="389" type="qcurve"/>
      <point x="402" y="484" type="line"/>
      <point x="370" y="467"/>
      <point x="315" y="434"/>
      <point x="265" y="401"/>
      <point x="219" y="367"/>
      <point x="195" y="348" type="qcurve"/>
      <point x="227" y="407"/>
      <point x="262" y="454" type="qcurve"/>
      <point x="161" y="527" type="line"/>
      <point x="128" y="486"/>
      <point x="57" y="373"/>
      <point x="-7" y="245"/>
      <point x="-63" y="111"/>
      <point x="-81" y="50" type="qcurve"/>
    </contour>
  </outline>
</glyph>
<glyph name="o" format="1">
  <advance width="586"/>
  <unicode hex="006F"/>
  <outline>
    <contour>
      <point x="-34" y="92" type="qcurve" name="hr00"/>
      <point x="108" y="-27" type="line"/>
      <point x="189" y="-12"/>
      <point x="315" y="60"/>
      <point x="361" y="113" type="qcurve"/>
      <point x="409" y="58" type="line"/>
      <point x="436" y="65"/>
      <point x="484" y="81"/>
      <point x="533" y="98"/>
      <point x="584" y="119"/>
      <point x="613" y="131" type="qcurve"/>
      <point x="591" y="232" type="line"/>
      <point x="546" y="224"/>
      <point x="466" y="214"/>
      <point x="428" y="212" type="qcurve"/>
      <point x="450" y="255"/>
      <point x="478" y="349"/>
      <point x="486" y="400" type="qcurve"/>
      <point x="327" y="536" type="line"/>
      <point x="283" y="530"/>
      <point x="199" y="498"/>
      <point x="124" y="448"/>
      <point x="61" y="385"/>
      <point x="39" y="349" type="qcurve"/>
      <point x="18" y="316"/>
      <point x="-10" y="247"/>
      <point x="-27" y="179"/>
      <point x="-34" y="117"/>
    </contour>
    <contour>
      <point x="100" y="109" type="qcurve"/>
      <point x="102" y="153"/>
      <point x="128" y="241"/>
      <point x="160" y="287" type="qcurve"/>
      <point x="176" y="309"/>
      <point x="218" y="352"/>
      <point x="267" y="387"/>
      <point x="322" y="412"/>
      <point x="351" y="416" type="qcurve"/>
      <point x="350" y="389"/>
      <point x="332" y="330"/>
      <point x="306" y="274"/>
      <point x="274" y="226"/>
      <point x="259" y="208" type="qcurve"/>
      <point x="225" y="170"/>
      <point x="143" y="119"/>
    </contour>
  </outline>
</glyph>
<glyph name="p" format="1">
  <advance width="610"/>
  <unicode hex="0070"/>
  <outline>
    <contour>
      <point x="-23" y="-114" type="qcurve" name="hr00"/>
      <point x="10" y="-28"/>
      <point x="48" y="58" type="qcurve"/>
      <point x="141" y="-27" type="line"/>
      <point x="212" y="-14"/>
      <point x="352" y="21"/>
      <point x="481" y="62"/>
      <point x="593" y="107"/>
      <point x="636" y="131" type="qcurve"/>
      <point x="615" y="232" type="line"/>
      <point x="564" y="208"/>
      <point x="465" y="169"/>
      <point x="410" y="151" type="qcurve"/>
      <point x="451" y="193"/>
      <point x="487" y="309"/>
      <point x="495" y="389" type="qcurve"/>
      <point x="374" y="484" type="line"/>
      <point x="317" y="452"/>
      <point x="235" y="396"/>
      <point x="199" y="364" type="qcurve"/>
      <point x="213" y="390"/>
      <point x="238" y="439"/>
      <point x="252" y="463" type="qcurve"/>
      <point x="151" y="537" type="line"/>
      <point x="100" y="451"/>
      <point x="2" y="266"/>
      <point x="-86" y="77"/>
      <point x="-163" y="-114"/>
      <point x="-194" y="-207" type="qcurve"/>
      <point x="-80" y="-284" type="line"/>
      <point x="-56" y="-200"/>
    </contour>
    <contour>
      <point x="60" y="85" type="qcurve"/>
      <point x="102" y="174" type="line"/>
      <point x="135" y="199"/>
      <point x="194" y="242"/>
      <point x="253" y="280"/>
      <point x="315" y="317"/>
      <point x="351" y="336" type="qcurve"/>
      <point x="346" y="300"/>
      <point x="319" y="231"/>
      <point x="283" y="174"/>
      <point x="239" y="132"/>
      <point x="218" y="122" type="qcurve"/>
      <point x="198" y="114"/>
      <point x="111" y="93"/>
    </contour>
  </outline>
</glyph>
<glyph name="r" format="1">
  <advance width="584"/>
  <unicode hex="0072"/>
  <outline>
    <contour>
      <point x="27" y="131" type="line" name="hr00"/>
      <point x="101" y="178" type="line"/>
      <point x="118" y="207"/>
      <point x="164" y="284"/>
      <point x="187" y="328" type="qcurve"/>
      <point x="214" y="329"/>
      <point x="276" y="333"/>
      <point x="311" y="336" type="qcurve"/>
      <point x="268" y="273"/>
      <point x="200" y="143"/>
      <point x="172" y="79" type="qcurve"/>
      <point x="278" y="-27" type="line"/>
      <point x="322" y="-12"/>
      <point x="417" y="28"/>
      <point x="507" y="72"/>
      <point x="585" y="114"/>
      <point x="611" y="131" type="qcurve"/>
      <point x="589" y="232" type="line"/>
      <point x="568" y="219"/>
      <point x="510" y="191"/>
      <point x="444" y="163"/>
      <point x="376" y="137"/>
      <point x="344" y="126" type="qcurve"/>
      <point x="364" y="179"/>
      <point x="421" y="297"/>
      <point x="459" y="357" type="qcurve"/>
      <point x="504" y="366"/>
      <point x="545" y="378" type="qcurve"/>
      <point x="517" y="497" type="line"/>
      <point x="475" y="486"/>
      <point x="409" y="470"/>
      <point x="346" y="458"/>
      <point x="277" y="449"/>
      <point x="232" y="444" type="qcurve"/>
      <point x="237" y="458"/>
      <point x="245" y="487"/>
      <point x="251" y="511" type="qcurve"/>
      <point x="158" y="583" type="line"/>
      <point x="127" y="553"/>
      <point x="60" y="478"/>
      <point x="38" y="448" type="qcurve"/>
      <point x="65" y="407"/>
      <point x="94" y="375" type="qcurve"/>
      <point x="73" y="349"/>
      <point x="35" y="302"/>
      <point x="-4" y="257"/>
      <point x="-45" y="212"/>
      <point x="-68" y="187" type="qcurve"/>
    </contour>
  </outline>
</glyph>
<glyph name="s" format="1">
  <advance width="581"/>
  <unicode hex="0073"/>
  <outline>
    <contour>
      <point x="9" y="56" type="qcurve" name="hr00"/>
      <point x="35" y="35"/>
      <point x="94" y="-8"/>
      <point x="135" y="-35" type="qcurve"/>
      <point x="187" y="-28"/>
      <point x="316" y="3"/>
      <point x="447" y="47"/>
      <point x="565" y="101"/>
      <point x="607" y="131" type="qcurve"/>
      <point x="586" y="232" type="line"/>
      <point x="544" y="210"/>
      <point x="448" y="171"/>
      <point x="398" y="154" type="qcurve"/>
      <point x="374" y="176"/>
      <point x="325" y="219"/>
      <point x="279" y="258"/>
      <point x="241" y="295"/>
      <point x="229" y="313" type="qcurve"/>
      <point x="246" y="334"/>
      <point x="288" y="373"/>
      <point x="331" y="404"/>
      <point x="369" y="425"/>
      <point x="382" y="430" type="qcurve"/>
      <point x="379" y="418"/>
      <point x="366" y="389"/>
      <point x="351" y="357"/>
      <point x="334" y="327"/>
      <point x="326" y="315" type="qcurve"/>
      <point x="433" y="235" type="line"/>
      <point x="442" y="251"/>
      <point x="465" y="293"/>
      <point x="488" y="340"/>
      <point x="507" y="391"/>
      <point x="513" y="415" type="qcurve"/>
      <point x="353" y="544" type="line"/>
      <point x="315" y="533"/>
      <point x="228" y="485"/>
      <point x="146" y="421"/>
      <point x="76" y="348"/>
      <point x="56" y="312" type="qcurve"/>
      <point x="69" y="293"/>
      <point x="116" y="245"/>
      <point x="172" y="193"/>
      <point x="232" y="138"/>
      <point x="258" y="112" type="qcurve"/>
      <point x="230" y="105"/>
      <point x="184" y="95"/>
      <point x="167" y="93" type="qcurve"/>
      <point x="141" y="110"/>
      <point x="102" y="139"/>
      <point x="66" y="170"/>
      <point x="29" y="207"/>
      <point x="5" y="232" type="qcurve"/>
      <point x="-98" y="159" type="line"/>
      <point x="-66" y="126"/>
      <point x="-16" y="78"/>
    </contour>
  </outline>
</glyph>
<glyph name="t" format="1">
  <advance width="447"/>
  <unicode hex="0074"/>
  <outline>
    <contour>
      <point x="61" y="-27" type="line" name="hr00"/>
      <point x="105" y="-24"/>
      <point x="210" y="2"/>
      <point x="320" y="44"/>
      <point x="427" y="99"/>
      <point x="473" y="131" type="qcurve"/>
      <point x="452" y="232" type="line"/>
      <point x="359" y="179"/>
      <point x="175" y="126"/>
      <point x="94" y="112" type="qcurve"/>
      <point x="109" y="161"/>
      <point x="155" y="271"/>
      <point x="185" y="330" type="qcurve"/>
      <point x="246" y="332"/>
      <point x="364" y="345"/>
      <point x="409" y="356" type="qcurve"/>
      <point x="386" y="464" type="line"/>
      <point x="357" y="456"/>
      <point x="287" y="446"/>
      <point x="249" y="442" type="qcurve"/>
      <point x="282" y="496"/>
      <point x="321" y="550" type="qcurve"/>
      <point x="232" y="632" type="line"/>
      <point x="182" y="569"/>
      <point x="93" y="433"/>
      <point x="17" y="294"/>
      <point x="-43" y="155"/>
      <point x="-63" y="88" type="qcurve"/>
    </contour>
  </outline>
</glyph>
<glyph name="u" format="1">
  <advance width="600"/>
  <unicode hex="0075"/>
  <outline>
    <contour>
      <point x="83" y="-27" type="line" name="hr00"/>
      <point x="145" y="-1"/>
      <point x="217" y="48"/>
      <point x="245" y="75" type="qcurve"/>
      <point x="333" y="-23" type="line"/>
      <point x="350" y="-17"/>
      <point x="402" y="5"/>
      <point x="460" y="34"/>
      <point x="520" y="66"/>
      <point x="574" y="97"/>
      <point x="615" y="123"/>
      <point x="626" y="131" type="qcurve"/>
      <point x="605" y="232" type="line"/>
      <point x="584" y="220"/>
      <point x="521" y="191"/>
      <point x="454" y="163"/>
      <point x="391" y="139"/>
      <point x="369" y="133" type="qcurve"/>
      <point x="373" y="135" type="line"/>
      <point x="403" y="204"/>
      <point x="485" y="348"/>
      <point x="526" y="408" type="qcurve"/>
      <point x="419" y="491" type="line"/>
      <point x="384" y="442"/>
      <point x="313" y="316"/>
      <point x="285" y="259" type="qcurve"/>
      <point x="250" y="215"/>
      <point x="181" y="159"/>
      <point x="126" y="128"/>
      <point x="91" y="117"/>
      <point x="90" y="117" type="qcurve"/>
      <point x="107" y="188"/>
      <point x="193" y="361"/>
      <point x="267" y="461" type="qcurve"/>
      <point x="164" y="540" type="line"/>
      <point x="76" y="421"/>
      <point x="-36" y="201"/>
      <point x="-50" y="88" type="qcurve"/>
    </contour>
  </outline>
</glyph>
<glyph name="v" format="1">
  <advance width="597"/>
  <unicode hex="0076"/>
  <outline>
    <contour>
      <point x="86" y="-27" type="line" name="hr00"/>
      <point x="140" y="-2"/>
      <point x="234" y="64"/>
      <point x="278" y="103" type="qcurve"/>
      <point x="339" y="31" type="line"/>
      <point x="365" y="36"/>
      <point x="439" y="57"/>
      <point x="518" y="84"/>
      <point x="594" y="115"/>
      <point x="624" y="131" type="qcurve"/>
      <point x="602" y="232" type="line"/>
      <point x="573" y="223"/>
      <point x="503" y="207"/>
      <point x="435" y="194"/>
      <point x="376" y="185"/>
      <point x="358" y="184" type="qcurve"/>
      <point x="411" y="244"/>
      <point x="502" y="372"/>
      <point x="542" y="438" type="qcurve"/>
      <point x="427" y="513" type="line"/>
      <point x="388" y="445"/>
      <point x="301" y="319"/>
      <point x="216" y="215"/>
      <point x="136" y="141"/>
      <point x="103" y="126" type="qcurve"/>
      <point x="110" y="158"/>
      <point x="131" y="231"/>
      <point x="162" y="313"/>
      <point x="207" y="407"/>
      <point x="237" y="460" type="qcurve"/>
      <point x="127" y="535" type="line"/>
      <point x="89" y="466"/>
      <point x="32" y="348"/>
      <point x="-10" y="240"/>
      <point x="-38" y="139"/>
      <point x="-47" y="88" type="qcurve"/>
    </contour>
  </outline>
</glyph>
<glyph name="w" format="1">
  <advance width="912"/>
  <unicode hex="0077"/>
  <outline>
    <contour>
      <point x="84" y="-18" type="line" name="hr00"/>
      <point x="141" y="9"/>
      <point x="238" y="78"/>
      <point x="280" y="119" type="qcurve"/>
      <point x="271" y="70" type="line"/>
      <point x="401" y="-27" type="line"/>
      <point x="454" y="-2"/>
      <point x="549" y="63"/>
      <point x="592" y="102" type="qcurve"/>
      <point x="596" y="97"/>
      <point x="616" y="74"/>
      <point x="637" y="50"/>
      <point x="653" y="31"/>
      <point x="654" y="31" type="qcurve"/>
      <point x="680" y="36"/>
      <point x="754" y="57"/>
      <point x="833" y="84"/>
      <point x="909" y="115"/>
      <point x="939" y="131" type="qcurve"/>
      <point x="917" y="232" type="line"/>
      <point x="888" y="223"/>
      <point x="818" y="207"/>
      <point x="750" y="194"/>
      <point x="691" y="185"/>
      <point x="673" y="184" type="qcurve"/>
      <point x="726" y="244"/>
      <point x="817" y="372"/>
      <point x="857" y="438" type="qcurve"/>
      <point x="742" y="513" type="line"/>
      <point x="703" y="445"/>
      <point x="616" y="319"/>
      <point x="531" y="215"/>
      <point x="451" y="141"/>
      <point x="418" y="126" type="qcurve"/>
      <point x="425" y="158"/>
      <point x="448" y="228"/>
      <point x="483" y="307"/>
      <point x="531" y="398"/>
      <point x="561" y="451" type="qcurve"/>
      <point x="451" y="526" type="line"/>
      <point x="412" y="458"/>
      <point x="320" y="328"/>
      <point x="228" y="219"/>
      <point x="142" y="141"/>
      <point x="109" y="126" type="qcurve"/>
      <point x="116" y="158"/>
      <point x="137" y="231"/>
      <point x="168" y="313"/>
      <point x="213" y="407"/>
      <point x="243" y="460" type="qcurve"/>
      <point x="133" y="535" type="line"/>
      <point x="95" y="466"/>
      <point x="38" y="348"/>
      <point x="-3" y="240"/>
      <point x="-31" y="139"/>
      <point x="-41" y="88" type="qcurve"/>
    </contour>
  </outline>
</glyph>
<glyph name="x" format="1">
  <advance width="581"/>
  <unicode hex="0078"/>
  <outline>
    <contour>
      <point x="-16" y="72" type="qcurve" name="hr00"/>
      <point x="11" y="31"/>
      <point x="44" y="-9" type="qcurve"/>
      <point x="81" y="29"/>
      <point x="141" y="94"/>
      <point x="175" y="126" type="qcurve"/>
      <point x="192" y="89"/>
      <point x="232" y="14"/>
      <point x="256" y="-27" type="qcurve"/>
      <point x="293" y="-14"/>
      <point x="385" y="23"/>
      <point x="480" y="66"/>
      <point x="571" y="111"/>
      <point x="607" y="131" type="qcurve"/>
      <point x="586" y="232" type="line"/>
      <point x="550" y="216"/>
      <point x="489" y="191"/>
      <point x="429" y="169"/>
      <point x="363" y="149"/>
      <point x="322" y="137" type="qcurve"/>
      <point x="311" y="157"/>
      <point x="292" y="198"/>
      <point x="284" y="218" type="qcurve"/>
      <point x="356" y="279"/>
      <point x="491" y="388"/>
      <point x="565" y="441" type="qcurve"/>
      <point x="452" y="518" type="line"/>
      <point x="389" y="475"/>
      <point x="290" y="389"/>
      <point x="240" y="342" type="qcurve"/>
      <point x="226" y="387"/>
      <point x="208" y="483"/>
      <point x="201" y="534" type="qcurve"/>
      <point x="76" y="476" type="line"/>
      <point x="83" y="416"/>
      <point x="106" y="306"/>
      <point x="125" y="249" type="qcurve"/>
      <point x="103" y="232"/>
      <point x="68" y="199"/>
      <point x="43" y="173" type="qcurve"/>
      <point x="32" y="187"/>
      <point x="14" y="216"/>
      <point x="5" y="232" type="qcurve"/>
      <point x="-68" y="158" type="line"/>
      <point x="-43" y="114"/>
    </contour>
  </outline>
</glyph>
<glyph name="y" format="1">
  <advance width="606"/>
  <unicode hex="0079"/>
  <outline>
    <contour>
      <point x="3" y="28" type="line" name="hr00"/>
      <point x="-43" y="5"/>
      <point x="-113" y="-43"/>
      <point x="-146" y="-72" type="qcurve"/>
      <point x="-140" y="-237" type="line"/>
      <point x="-106" y="-249"/>
      <point x="-24" y="-269"/>
      <point x="60" y="-283"/>
      <point x="141" y="-293"/>
      <point x="176" y="-294" type="qcurve"/>
      <point x="207" y="-261"/>
      <point x="257" y="-194"/>
      <point x="298" y="-113"/>
      <point x="330" y="-14"/>
      <point x="344" y="49" type="qcurve"/>
      <point x="393" y="-5" type="line"/>
      <point x="419" y="4"/>
      <point x="489" y="39"/>
      <point x="558" y="79"/>
      <point x="617" y="119"/>
      <point x="633" y="131" type="qcurve"/>
      <point x="611" y="232" type="line"/>
      <point x="592" y="221"/>
      <point x="534" y="197"/>
      <point x="471" y="174"/>
      <point x="408" y="154"/>
      <point x="384" y="147" type="qcurve"/>
      <point x="414" y="214"/>
      <point x="494" y="350"/>
      <point x="532" y="408" type="qcurve"/>
      <point x="426" y="491" type="line"/>
      <point x="409" y="467"/>
      <point x="367" y="398"/>
      <point x="325" y="324"/>
      <point x="286" y="251"/>
      <point x="272" y="223" type="qcurve"/>
      <point x="251" y="187"/>
      <point x="202" y="141"/>
      <point x="153" y="115"/>
      <point x="105" y="102"/>
      <point x="85" y="99" type="qcurve"/>
      <point x="92" y="157"/>
      <point x="193" y="347"/>
      <point x="274" y="461" type="qcurve"/>
      <point x="170" y="540" type="line"/>
      <point x="122" y="475"/>
      <point x="42" y="345"/>
      <point x="-17" y="223"/>
      <point x="-52" y="114"/>
      <point x="-55" y="70" type="qcurve"/>
    </contour>
    <contour>
      <point x="-45" y="-145" type="qcurve"/>
      <point x="2" y="-102"/>
      <point x="138" y="-24"/>
      <point x="209" y="5" type="qcurve"/>
      <point x="188" y="-61"/>
      <point x="135" y="-144"/>
      <point x="107" y="-168" type="qcurve"/>
      <point x="75" y="-167"/>
      <point x="-10" y="-153"/>
    </contour>
  </outline>
</glyph>
<glyph name="z" format="1">
  <advance width="510"/>
  <unicode hex="007A"/>
  <outline>
    <contour>
      <point x="34" y="-27" type="line" name="hr00"/>
      <point x="95" y="-24"/>
      <point x="232" y="5"/>
      <point x="367" y="48"/>
      <point x="490" y="102"/>
      <point x="536" y="131" type="qcurve"/>
      <point x="515" y="232" type="line"/>
      <point x="409" y="179"/>
      <point x="169" y="124"/>
      <point x="56" y="117" type="qcurve"/>
      <point x="128" y="156"/>
      <point x="240" y="221"/>
      <point x="336" y="280"/>
      <point x="425" y="339"/>
      <point x="473" y="373" type="qcurve"/>
      <point x="419" y="477" type="line"/>
      <point x="364" y="440" type="line"/>
      <point x="313" y="475"/>
      <point x="214" y="522"/>
      <point x="154" y="522" type="qcurve"/>
      <point x="141" y="522"/>
      <point x="116" y="520"/>
      <point x="102" y="517" type="qcurve"/>
      <point x="22" y="382" type="line"/>
      <point x="56" y="386"/>
      <point x="127" y="390"/>
      <point x="148" y="390" type="qcurve"/>
      <point x="185" y="390"/>
      <point x="232" y="382"/>
      <point x="256" y="373" type="qcurve"/>
      <point x="189" y="333"/>
      <point x="41" y="251"/>
      <point x="-53" y="201" type="qcurve"/>
      <point x="-62" y="181"/>
      <point x="-79" y="117"/>
      <point x="-86" y="84" type="qcurve"/>
    </contour>
  </outline>
</glyph>
<glyph name="braceleft" format="1">
  <advance width="490"/>
  <unicode hex="007B"/>
  <outline>
    <contour>
      <point x="96" y="102" type="qcurve" name="hr00"/>
      <point x="82" y="44"/>
      <point x="79" y="-93"/>
      <point x="102" y="-166" type="qcurve"/>
      <point x="199" y="-145" type="line"/>
      <point x="193" y="-86"/>
      <point x="199" y="20"/>
      <point x="219" y="112"/>
      <point x="249" y="189"/>
      <point x="266" y="219" type="qcurve"/>
      <point x="269" y="284"/>
      <point x="233" y="361" type="qcurve"/>
      <point x="248" y="360"/>
      <point x="283" y="363"/>
      <point x="318" y="369"/>
      <point x="348" y="378"/>
      <point x="358" y="383" type="qcurve"/>
      <point x="384" y="427"/>
      <point x="431" y="513"/>
      <point x="488" y="590"/>
      <point x="559" y="654"/>
      <point x="609" y="676" type="qcurve"/>
      <point x="564" y="764" type="line"/>
      <point x="497" y="744"/>
      <point x="400" y="670"/>
      <point x="330" y="582"/>
      <point x="280" y="492"/>
      <point x="261" y="458" type="qcurve"/>
      <point x="253" y="444"/>
      <point x="179" y="440"/>
      <point x="119" y="454" type="qcurve"/>
      <point x="77" y="372" type="line"/>
      <point x="100" y="358"/>
      <point x="137" y="333"/>
      <point x="161" y="310"/>
      <point x="169" y="287"/>
      <point x="164" y="277" type="qcurve"/>
      <point x="150" y="251"/>
      <point x="110" y="160"/>
    </contour>
  </outline>
</glyph>
<glyph name="bar" format="1">
  <advance width="502"/>
  <unicode hex="007C"/>
  <outline>
    <contour>
      <point x="201" y="-117" type="line" name="hr00"/>
      <point x="270" y="-185" type="line"/>
      <point x="270" y="668" type="line"/>
      <point x="201" y="731" type="line"/>
    </contour>
  </outline>
</glyph>
<glyph name="asciitilde" format="1">
  <advance width="620"/>
  <unicode hex="007E"/>
  <outline>
    <contour>
      <point x="58" y="301" type="line"/>
      <point x="85" y="304"/>
      <point x="106" y="304" type="qcurve"/>
      <point x="150" y="304"/>
      <point x="215" y="267"/>
      <point x="273" y="222"/>
      <point x="334" y="185"/>
      <point x="374" y="185" type="qcurve" name="hr01"/>
      <point x="394" y="185"/>
      <point x="431" y="190"/>
      <point x="452" y="195" type="qcurve"/>
      <point x="488" y="308" type="line"/>
      <point x="462" y="305"/>
      <point x="440" y="305" type="qcurve"/>
      <point x="398" y="305"/>
      <point x="334" y="342"/>
      <point x="274" y="387"/>
      <point x="211" y="424"/>
      <point x="171" y="424" type="qcurve" name="hr02"/>
      <point x="151" y="424"/>
      <point x="115" y="418"/>
      <point x="94" y="414" type="qcurve"/>
    </contour>
  </outline>
</glyph>
<glyph name="exclamdown" format="1">
  <advance width="482"/>
  <unicode hex="00A1"/>
  <outline>
    <contour>
      <point x="373" y="556" type="qcurve" name="hr00"/>
      <point x="386" y="544"/>
      <point x="419" y="529"/>
      <point x="439" y="529" type="qcurve"/>
      <point x="458" y="529"/>
      <point x="492" y="544"/>
      <point x="518" y="569"/>
      <point x="532" y="603"/>
      <point x="532" y="622" type="qcurve"/>
      <point x="532" y="661"/>
      <point x="478" y="715"/>
      <point x="439" y="715" type="qcurve"/>
      <point x="400" y="715"/>
      <point x="346" y="661"/>
      <point x="346" y="622" type="qcurve"/>
      <point x="346" y="603"/>
      <point x="360" y="569"/>
    </contour>
    <contour>
      <point x="-1" y="12" type="qcurve"/>
      <point x="110" y="-86" type="line"/>
      <point x="144" y="-15"/>
      <point x="207" y="105"/>
      <point x="271" y="217"/>
      <point x="340" y="327"/>
      <point x="382" y="388" type="qcurve"/>
      <point x="273" y="489" type="line"/>
      <point x="229" y="421"/>
      <point x="155" y="303"/>
      <point x="89" y="189"/>
      <point x="29" y="75"/>
    </contour>
  </outline>
</glyph>
<glyph name="cent" format="1">
  <advance width="608"/>
  <unicode hex="00A2"/>
  <outline>
    <contour>
      <point x="1" y="16" type="qcurve" name="hr00"/>
      <point x="70" y="-37" type="line"/>
      <point x="87" y="-14"/>
      <point x="125" y="34"/>
      <point x="143" y="59" type="qcurve"/>
      <point x="178" y="31" type="line"/>
      <point x="244" y="42"/>
      <point x="365" y="79"/>
      <point x="425" y="106" type="qcurve"/>
      <point x="390" y="220" type="line"/>
      <point x="338" y="201"/>
      <point x="238" y="177"/>
      <point x="184" y="167" type="qcurve"/>
      <point x="181" y="208"/>
      <point x="198" y="305"/>
      <point x="224" y="355" type="qcurve"/>
      <point x="247" y="397"/>
      <point x="332" y="468"/>
      <point x="380" y="488" type="qcurve"/>
      <point x="375" y="470"/>
      <point x="355" y="424"/>
      <point x="339" y="400" type="qcurve"/>
      <point x="465" y="337" type="line"/>
      <point x="474" y="356"/>
      <point x="493" y="403"/>
      <point x="510" y="449"/>
      <point x="521" y="488"/>
      <point x="523" y="499" type="qcurve"/>
      <point x="476" y="528" type="line"/>
      <point x="494" y="553"/>
      <point x="530" y="602"/>
      <point x="546" y="625" type="qcurve"/>
      <point x="477" y="678" type="line"/>
      <point x="460" y="654"/>
      <point x="419" y="602"/>
      <point x="400" y="576" type="qcurve"/>
      <point x="348" y="609" type="line"/>
      <point x="317" y="597"/>
      <point x="250" y="559"/>
      <point x="183" y="507"/>
      <point x="121" y="441"/>
      <point x="96" y="400" type="qcurve"/>
      <point x="73" y="362"/>
      <point x="50" y="292"/>
      <point x="40" y="227"/>
      <point x="40" y="168"/>
      <point x="42" y="143" type="qcurve"/>
      <point x="73" y="117" type="line"/>
      <point x="55" y="90"/>
      <point x="17" y="39"/>
    </contour>
  </outline>
</glyph>
<glyph name="sterling" format="1">
  <advance width="659"/>
  <unicode hex="00A3"/>
  <outline>
    <contour>
      <point x="-48" y="91" type="line" name="hr00"/>
      <point x="12" y="65"/>
      <point x="117" y="25"/>
      <point x="221" y="-7"/>
      <point x="335" y="-31"/>
      <point x="404" y="-41" type="qcurve"/>
      <point x="443" y="82" type="line"/>
      <point x="369" y="95"/>
      <point x="251" y="123"/>
      <point x="197" y="140" type="qcurve"/>
      <point x="216" y="178"/>
      <point x="250" y="248"/>
      <point x="266" y="277" type="qcurve"/>
      <point x="299" y="263"/>
      <point x="366" y="236"/>
      <point x="399" y="225" type="qcurve"/>
      <point x="436" y="317" type="line"/>
      <point x="405" y="328"/>
      <point x="345" y="351"/>
      <point x="315" y="364" type="qcurve"/>
      <point x="317" y="367" type="line"/>
      <point x="331" y="390"/>
      <point x="373" y="445"/>
      <point x="421" y="499"/>
      <point x="472" y="548"/>
      <point x="496" y="566" type="qcurve"/>
      <point x="488" y="534"/>
      <point x="456" y="458"/>
      <point x="436" y="427" type="qcurve"/>
      <point x="553" y="364" type="line"/>
      <point x="577" y="405"/>
      <point x="613" y="502"/>
      <point x="624" y="544" type="qcurve"/>
      <point x="427" y="670" type="line"/>
      <point x="361" y="636"/>
      <point x="259" y="535"/>
      <point x="223" y="480" type="qcurve"/>
      <point x="205" y="452" type="line"/>
      <point x="196" y="438"/>
      <point x="188" y="424" type="qcurve"/>
      <point x="127" y="457" type="line"/>
      <point x="79" y="370" type="line"/>
      <point x="93" y="362"/>
      <point x="122" y="346"/>
      <point x="137" y="338" type="qcurve"/>
      <point x="120" y="309"/>
      <point x="90" y="250"/>
      <point x="75" y="218" type="qcurve"/>
      <point x="167" y="150" type="line"/>
      <point x="129" y="163"/>
      <point x="52" y="193"/>
      <point x="9" y="212" type="qcurve"/>
    </contour>
  </outline>
</glyph>
<glyph name="currency" format="1">
  <advance width="683"/>
  <unicode hex="00A4"/>
  <outline>
    <contour>
      <point x="67" y="130" type="line" name="hr00"/>
      <point x="87" y="142"/>
      <point x="136" y="167"/>
      <point x="162" y="179" type="qcurve"/>
      <point x="190" y="150"/>
      <point x="267" y="117"/>
      <point x="313" y="117" type="qcurve"/>
      <point x="336" y="117"/>
      <point x="353" y="121" type="qcurve"/>
      <point x="367" y="96"/>
      <point x="396" y="51"/>
      <point x="415" y="25" type="qcurve"/>
      <point x="503" y="78" type="line"/>
      <point x="490" y="98"/>
      <point x="465" y="146"/>
      <point x="453" y="172" type="qcurve"/>
      <point x="482" y="200"/>
      <point x="516" y="275"/>
      <point x="516" y="319" type="qcurve"/>
      <point x="516" y="344"/>
      <point x="510" y="367" type="qcurve"/>
      <point x="533" y="381"/>
      <point x="577" y="409"/>
      <point x="603" y="426" type="qcurve"/>
      <point x="550" y="515" type="line"/>
      <point x="506" y="488"/>
      <point x="457" y="466" type="qcurve"/>
      <point x="430" y="494"/>
      <point x="355" y="526"/>
      <point x="313" y="526" type="qcurve"/>
      <point x="287" y="526"/>
      <point x="263" y="520" type="qcurve"/>
      <point x="249" y="543"/>
      <point x="221" y="588"/>
      <point x="204" y="614" type="qcurve"/>
      <point x="116" y="560" type="line"/>
      <point x="128" y="539"/>
      <point x="153" y="491"/>
      <point x="164" y="465" type="qcurve"/>
      <point x="137" y="437"/>
      <point x="106" y="363"/>
      <point x="106" y="319" type="qcurve"/>
      <point x="106" y="308"/>
      <point x="108" y="288"/>
      <point x="110" y="278" type="qcurve"/>
      <point x="85" y="264"/>
      <point x="39" y="235"/>
      <point x="13" y="217" type="qcurve"/>
    </contour>
    <contour>
      <point x="273" y="231" type="qcurve"/>
      <point x="255" y="239"/>
      <point x="229" y="265"/>
      <point x="214" y="299"/>
      <point x="214" y="319" type="qcurve"/>
      <point x="214" y="360"/>
      <point x="270" y="415"/>
      <point x="311" y="415" type="qcurve"/>
      <point x="351" y="415"/>
      <point x="405" y="360"/>
      <point x="405" y="319" type="qcurve"/>
      <point x="405" y="299"/>
      <point x="391" y="265"/>
      <point x="365" y="239"/>
      <point x="331" y="224"/>
      <point x="311" y="224" type="qcurve"/>
      <point x="291" y="224"/>
    </contour>
  </outline>
</glyph>
<glyph name="yen" format="1">
  <advance width="659"/>
  <unicode hex="00A5"/>
  <outline>
    <contour>
      <point x="56" y="56" type="line" name="hr00"/>
      <point x="179" y="-42" type="line"/>
      <point x="188" y="-15"/>
      <point x="206" y="32"/>
      <point x="215" y="53" type="qcurve"/>
      <point x="236" y="42"/>
      <point x="275" y="23"/>
      <point x="291" y="16" type="qcurve"/>
      <point x="328" y="79" type="line"/>
      <point x="310" y="87"/>
      <point x="268" y="109"/>
      <point x="245" y="123" type="qcurve"/>
      <point x="265" y="163" type="line"/>
      <point x="319" y="132"/>
      <point x="357" y="117" type="qcurve"/>
      <point x="394" y="181" type="line"/>
      <point x="357" y="198"/>
      <point x="311" y="224" type="qcurve"/>
      <point x="367" y="258"/>
      <point x="456" y="320"/>
      <point x="536" y="383"/>
      <point x="610" y="453"/>
      <point x="651" y="495" type="qcurve"/>
      <point x="551" y="586" type="line"/>
      <point x="512" y="546"/>
      <point x="447" y="483"/>
      <point x="389" y="431"/>
      <point x="334" y="388"/>
      <point x="305" y="367" type="qcurve"/>
      <point x="309" y="418"/>
      <point x="324" y="522"/>
      <point x="337" y="572" type="qcurve"/>
      <point x="222" y="682" type="line"/>
      <point x="195" y="584"/>
      <point x="177" y="395"/>
      <point x="175" y="307" type="qcurve"/>
      <point x="155" y="321"/>
      <point x="118" y="345"/>
      <point x="104" y="356" type="qcurve"/>
      <point x="61" y="295" type="line"/>
      <point x="78" y="282"/>
      <point x="119" y="253"/>
      <point x="143" y="237" type="qcurve"/>
      <point x="130" y="214"/>
      <point x="122" y="197" type="qcurve"/>
      <point x="71" y="229"/>
      <point x="38" y="255" type="qcurve"/>
      <point x="-5" y="193" type="line"/>
      <point x="32" y="164"/>
      <point x="88" y="128" type="qcurve"/>
    </contour>
  </outline>
</glyph>
<glyph name="brokenbar" format="1">
  <advance width="502"/>
  <unicode hex="00A6"/>
  <outline>
    <contour>
      <point x="270" y="337" type="line" name="hr00"/>
      <point x="270" y="668" type="line"/>
      <point x="201" y="731" type="line"/>
      <point x="201" y="404" type="line"/>
    </contour>
    <contour>
      <point x="201" y="-117" type="line"/>
      <point x="270" y="-185" type="line"/>
      <point x="270" y="147" type="line"/>
      <point x="201" y="210" type="line"/>
    </contour>
  </outline>
</glyph>
<glyph name="section" format="1">
  <advance width="706"/>
  <unicode hex="00A7"/>
  <outline>
    <contour>
      <point x="70" y="-69" type="qcurve" name="hr00"/>
      <point x="29" y="-81"/>
      <point x="-14" y="-90" type="qcurve"/>
      <point x="58" y="-211" type="line"/>
      <point x="181" y="-184"/>
      <point x="372" y="-71"/>
      <point x="424" y="13" type="qcurve"/>
      <point x="397" y="91" type="line"/>
      <point x="458" y="134"/>
      <point x="558" y="235"/>
      <point x="598" y="299" type="qcurve"/>
      <point x="560" y="419" type="line"/>
      <point x="529" y="438"/>
      <point x="481" y="466"/>
      <point x="441" y="489"/>
      <point x="403" y="511"/>
      <point x="382" y="524" type="qcurve"/>
      <point x="421" y="578"/>
      <point x="551" y="654"/>
      <point x="640" y="668" type="qcurve"/>
      <point x="559" y="778" type="line"/>
      <point x="449" y="751"/>
      <point x="254" y="614"/>
      <point x="188" y="499" type="qcurve"/>
      <point x="209" y="479"/>
      <point x="244" y="457" type="qcurve"/>
      <point x="211" y="442"/>
      <point x="141" y="392"/>
      <point x="76" y="326"/>
      <point x="20" y="245"/>
      <point x="1" y="199" type="qcurve"/>
      <point x="20" y="182"/>
      <point x="82" y="142"/>
      <point x="155" y="99"/>
      <point x="230" y="55"/>
      <point x="262" y="34" type="qcurve"/>
      <point x="242" y="10"/>
      <point x="183" y="-27"/>
      <point x="111" y="-57"/>
    </contour>
    <contour>
      <point x="189" y="239" type="qcurve"/>
      <point x="218" y="289"/>
      <point x="309" y="372"/>
      <point x="357" y="390" type="qcurve"/>
      <point x="384" y="375"/>
      <point x="435" y="344"/>
      <point x="458" y="329" type="qcurve"/>
      <point x="426" y="280"/>
      <point x="341" y="199"/>
      <point x="292" y="168" type="qcurve"/>
      <point x="265" y="187"/>
      <point x="215" y="223"/>
    </contour>
  </outline>
</glyph>
<glyph name="dieresis" format="1">
  <advance width="355"/>
  <unicode hex="00A8"/>
  <outline>
    <contour>
      <point x="95" y="648" type="qcurve"/>
      <point x="118" y="625"/>
      <point x="151" y="625" type="qcurve"/>
      <point x="184" y="625"/>
      <point x="230" y="672"/>
      <point x="230" y="705" type="qcurve"/>
      <point x="230" y="738"/>
      <point x="184" y="784"/>
      <point x="151" y="784" type="qcurve"/>
      <point x="118" y="784"/>
      <point x="72" y="738"/>
      <point x="72" y="705" type="qcurve"/>
      <point x="72" y="672"/>
    </contour>
    <contour>
      <point x="351" y="552" type="qcurve"/>
      <point x="375" y="529"/>
      <point x="408" y="529" type="qcurve"/>
      <point x="441" y="529"/>
      <point x="487" y="575"/>
      <point x="487" y="608" type="qcurve" name="hr01"/>
      <point x="487" y="641"/>
      <point x="441" y="688"/>
      <point x="408" y="688" type="qcurve"/>
      <point x="375" y="688"/>
      <point x="328" y="641"/>
      <point x="328" y="608" type="qcurve"/>
      <point x="328" y="575"/>
    </contour>
  </outline>
</glyph>
<glyph name="copyright" format="1">
  <advance width="1202"/>
  <unicode hex="00A9"/>
  <outline>
    <contour>
      <point x="111" y="90" type="qcurve" name="hr00"/>
      <point x="138" y="15"/>
      <point x="243" y="-102"/>
      <point x="402" y="-172"/>
      <point x="508" y="-172" type="qcurve"/>
      <point x="613" y="-172"/>
      <point x="812" y="-87"/>
      <point x="968" y="63"/>
      <point x="1063" y="268"/>
      <point x="1063" y="389" type="qcurve"/>
      <point x="1063" y="471"/>
      <point x="1002" y="611"/>
      <point x="891" y="712"/>
      <point x="733" y="769"/>
      <point x="636" y="769" type="qcurve"/>
      <point x="591" y="769"/>
      <point x="495" y="756"/>
      <point x="401" y="733"/>
      <point x="312" y="699"/>
      <point x="275" y="678" type="qcurve"/>
      <point x="310" y="580" type="line"/>
      <point x="385" y="616"/>
      <point x="558" y="658"/>
      <point x="638" y="658" type="qcurve"/>
      <point x="704" y="658"/>
      <point x="815" y="618"/>
      <point x="895" y="546"/>
      <point x="940" y="445"/>
      <point x="940" y="384" type="qcurve"/>
      <point x="940" y="290"/>
      <point x="864" y="128"/>
      <point x="741" y="8"/>
      <point x="588" y="-61"/>
      <point x="510" y="-61" type="qcurve"/>
      <point x="432" y="-61"/>
      <point x="319" y="-12"/>
      <point x="246" y="69"/>
      <point x="211" y="176"/>
      <point x="211" y="233" type="qcurve"/>
      <point x="211" y="311"/>
      <point x="263" y="463"/>
      <point x="308" y="520" type="qcurve"/>
      <point x="190" y="564" type="line"/>
      <point x="138" y="495"/>
      <point x="85" y="330"/>
      <point x="85" y="246" type="qcurve"/>
      <point x="85" y="165"/>
    </contour>
    <contour>
      <point x="303" y="139" type="qcurve"/>
      <point x="402" y="45" type="line"/>
      <point x="456" y="51"/>
      <point x="543" y="64"/>
      <point x="620" y="80"/>
      <point x="695" y="102"/>
      <point x="738" y="117" type="qcurve"/>
      <point x="716" y="220" type="line"/>
      <point x="676" y="210"/>
      <point x="614" y="196"/>
      <point x="555" y="185"/>
      <point x="491" y="176"/>
      <point x="448" y="171" type="qcurve"/>
      <point x="456" y="220"/>
      <point x="497" y="318"/>
      <point x="560" y="405"/>
      <point x="641" y="478"/>
      <point x="689" y="501" type="qcurve"/>
      <point x="684" y="483"/>
      <point x="672" y="451"/>
      <point x="658" y="421"/>
      <point x="641" y="391"/>
      <point x="631" y="373" type="qcurve"/>
      <point x="724" y="319" type="line"/>
      <point x="737" y="337"/>
      <point x="763" y="381"/>
      <point x="787" y="429"/>
      <point x="807" y="477"/>
      <point x="813" y="500" type="qcurve"/>
      <point x="670" y="604" type="line"/>
      <point x="594" y="572"/>
      <point x="473" y="470"/>
      <point x="381" y="346"/>
      <point x="319" y="207"/>
    </contour>
  </outline>
</glyph>
<glyph name="ordfeminine" format="1">
  <advance width="612"/>
  <unicode hex="00AA"/>
  <outline>
    <contour>
      <point x="198" y="368" type="line" name="hr00"/>
      <point x="240" y="381"/>
      <point x="307" y="415"/>
      <point x="333" y="434" type="qcurve"/>
      <point x="393" y="367" type="line"/>
      <point x="411" y="373"/>
      <point x="472" y="402"/>
      <point x="533" y="435"/>
      <point x="586" y="466"/>
      <point x="597" y="474" type="qcurve"/>
      <point x="580" y="558" type="line"/>
      <point x="566" y="550"/>
      <point x="525" y="531"/>
      <point x="481" y="512"/>
      <point x="438" y="496"/>
      <point x="422" y="491" type="qcurve"/>
      <point x="434" y="517"/>
      <point x="466" y="576"/>
      <point x="501" y="633"/>
      <point x="535" y="685"/>
      <point x="550" y="705" type="qcurve"/>
      <point x="476" y="764" type="line"/>
      <point x="464" y="750"/>
      <point x="444" y="727"/>
      <point x="436" y="716" type="qcurve"/>
      <point x="387" y="791" type="line"/>
      <point x="318" y="785"/>
      <point x="212" y="724"/>
      <point x="140" y="631"/>
      <point x="103" y="515"/>
      <point x="103" y="455" type="qcurve"/>
    </contour>
    <contour>
      <point x="215" y="478" type="qcurve"/>
      <point x="216" y="515"/>
      <point x="237" y="583"/>
      <point x="279" y="637"/>
      <point x="343" y="675"/>
      <point x="387" y="684" type="qcurve"/>
      <point x="379" y="642"/>
      <point x="355" y="576"/>
      <point x="316" y="525"/>
      <point x="257" y="489"/>
    </contour>
  </outline>
</glyph>
<glyph name="logicalnot" format="1">
  <advance width="609"/>
  <unicode hex="00AC"/>
  <outline>
    <contour>
      <point x="269" y="117" type="qcurve" name="hr00"/>
      <point x="385" y="66" type="line"/>
      <point x="407" y="114"/>
      <point x="456" y="234"/>
      <point x="479" y="292" type="qcurve"/>
      <point x="438" y="310"/>
      <point x="341" y="348"/>
      <point x="241" y="382"/>
      <point x="143" y="413"/>
      <point x="101" y="424" type="qcurve"/>
      <point x="55" y="310" type="line"/>
      <point x="99" y="299"/>
      <point x="197" y="270"/>
      <point x="246" y="253" type="qcurve"/>
      <point x="284" y="240"/>
      <point x="321" y="226" type="qcurve"/>
      <point x="298" y="173"/>
    </contour>
  </outline>
</glyph>
<glyph name="registered" format="1">
  <advance width="1203"/>
  <unicode hex="00AE"/>
  <outline>
    <contour>
      <point x="111" y="90" type="qcurve" name="hr00"/>
      <point x="138" y="15"/>
      <point x="243" y="-102"/>
      <point x="402" y="-172"/>
      <point x="508" y="-172" type="qcurve"/>
      <point x="613" y="-172"/>
      <point x="812" y="-87"/>
      <point x="968" y="63"/>
      <point x="1063" y="268"/>
      <point x="1063" y="389" type="qcurve"/>
      <point x="1063" y="471"/>
      <point x="1002" y="611"/>
      <point x="891" y="712"/>
      <point x="733" y="769"/>
      <point x="636" y="769" type="qcurve"/>
      <point x="591" y="769"/>
      <point x="495" y="756"/>
      <point x="401" y="733"/>
      <point x="312" y="699"/>
      <point x="275" y="678" type="qcurve"/>
      <point x="310" y="580" type="line"/>
      <point x="385" y="616"/>
      <point x="558" y="658"/>
      <point x="638" y="658" type="qcurve"/>
      <point x="704" y="658"/>
      <point x="815" y="618"/>
      <point x="895" y="546"/>
      <point x="940" y="445"/>
      <point x="940" y="384" type="qcurve"/>
      <point x="940" y="290"/>
      <point x="864" y="128"/>
      <point x="741" y="8"/>
      <point x="588" y="-61"/>
      <point x="510" y="-61" type="qcurve"/>
      <point x="432" y="-61"/>
      <point x="319" y="-12"/>
      <point x="246" y="69"/>
      <point x="211" y="176"/>
      <point x="211" y="233" type="qcurve"/>
      <point x="211" y="311"/>
      <point x="263" y="463"/>
      <point x="308" y="520" type="qcurve"/>
      <point x="190" y="564" type="line"/>
      <point x="138" y="495"/>
      <point x="85" y="330"/>
      <point x="85" y="246" type="qcurve"/>
      <point x="85" y="165"/>
    </contour>
    <contour>
      <point x="287" y="116" type="qcurve"/>
      <point x="380" y="31" type="line"/>
      <point x="403" y="86"/>
      <point x="450" y="181"/>
      <point x="476" y="226" type="qcurve"/>
      <point x="588" y="23" type="line"/>
      <point x="703" y="91" type="line"/>
      <point x="614" y="220" type="line"/>
      <point x="686" y="249"/>
      <point x="804" y="328"/>
      <point x="842" y="381" type="qcurve"/>
      <point x="785" y="510" type="line"/>
      <point x="745" y="528"/>
      <point x="667" y="551"/>
      <point x="587" y="566"/>
      <point x="504" y="575"/>
      <point x="459" y="577" type="qcurve"/>
      <point x="424" y="476" type="line"/>
      <point x="441" y="476"/>
      <point x="480" y="472"/>
      <point x="501" y="469" type="qcurve"/>
      <point x="467" y="428"/>
      <point x="411" y="348"/>
      <point x="360" y="264"/>
      <point x="312" y="171"/>
    </contour>
    <contour>
      <point x="510" y="284" type="qcurve"/>
      <point x="532" y="317"/>
      <point x="577" y="380"/>
      <point x="602" y="412" type="qcurve"/>
      <point x="540" y="463" type="line"/>
      <point x="588" y="454"/>
      <point x="681" y="426"/>
      <point x="717" y="409" type="qcurve"/>
      <point x="698" y="391"/>
      <point x="649" y="356"/>
      <point x="594" y="323"/>
      <point x="537" y="295"/>
    </contour>
  </outline>
</glyph>
<glyph name="macron" format="1">
  <advance width="355"/>
  <unicode hex="00AF"/>
  <outline>
    <contour>
      <point x="222" y="673" type="qcurve" name="hr00"/>
      <point x="303" y="646"/>
      <point x="387" y="608" type="qcurve"/>
      <point x="434" y="720" type="line"/>
      <point x="350" y="757"/>
      <point x="188" y="813"/>
      <point x="103" y="834" type="qcurve"/>
      <point x="61" y="720" type="line"/>
      <point x="142" y="700"/>
    </contour>
  </outline>
</glyph>
<glyph name="twosuperior" format="1">
  <advance width="434"/>
  <unicode hex="00B2"/>
  <outline>
    <contour>
      <point x="96" y="417" type="line" name="hr00"/>
      <point x="118" y="408"/>
      <point x="174" y="390"/>
      <point x="236" y="374"/>
      <point x="299" y="361"/>
      <point x="328" y="358" type="qcurve"/>
      <point x="377" y="461" type="line"/>
      <point x="329" y="467"/>
      <point x="252" y="483"/>
      <point x="219" y="494" type="qcurve"/>
      <point x="250" y="513"/>
      <point x="310" y="538"/>
      <point x="372" y="568"/>
      <point x="435" y="614"/>
      <point x="468" y="655" type="qcurve"/>
      <point x="435" y="760" type="line"/>
      <point x="396" y="779"/>
      <point x="311" y="796"/>
      <point x="276" y="796" type="qcurve"/>
      <point x="251" y="796"/>
      <point x="227" y="793" type="qcurve"/>
      <point x="183" y="702" type="line"/>
      <point x="194" y="703"/>
      <point x="219" y="704"/>
      <point x="230" y="704" type="qcurve"/>
      <point x="255" y="704"/>
      <point x="311" y="696"/>
      <point x="338" y="688" type="qcurve"/>
      <point x="313" y="667"/>
      <point x="249" y="634"/>
      <point x="177" y="599"/>
      <point x="101" y="556"/>
      <point x="64" y="525" type="qcurve"/>
    </contour>
  </outline>
</glyph>
<glyph name="threesuperior" format="1">
  <advance width="437"/>
  <unicode hex="00B3"/>
  <outline>
    <contour>
      <point x="65" y="376" type="line" name="hr00"/>
      <point x="92" y="367"/>
      <point x="146" y="359"/>
      <point x="172" y="359" type="qcurve"/>
      <point x="235" y="359"/>
      <point x="347" y="407"/>
      <point x="392" y="456" type="qcurve"/>
      <point x="365" y="541" type="line"/>
      <point x="352" y="548"/>
      <point x="328" y="560"/>
      <point x="316" y="565" type="qcurve"/>
      <point x="354" y="575"/>
      <point x="429" y="615"/>
      <point x="468" y="648" type="qcurve"/>
      <point x="437" y="756" type="line"/>
      <point x="405" y="774"/>
      <point x="319" y="796"/>
      <point x="271" y="796" type="qcurve"/>
      <point x="248" y="796" type="line"/>
      <point x="237" y="796"/>
      <point x="227" y="794" type="qcurve"/>
      <point x="182" y="702" type="line"/>
      <point x="193" y="703"/>
      <point x="216" y="704"/>
      <point x="229" y="704" type="qcurve"/>
      <point x="262" y="704"/>
      <point x="321" y="693"/>
      <point x="348" y="683" type="qcurve"/>
      <point x="313" y="658"/>
      <point x="228" y="636"/>
      <point x="173" y="636" type="qcurve"/>
      <point x="129" y="558" type="line"/>
      <point x="164" y="547"/>
      <point x="240" y="512"/>
      <point x="266" y="496" type="qcurve"/>
      <point x="241" y="476"/>
      <point x="180" y="460"/>
      <point x="151" y="460" type="qcurve"/>
      <point x="122" y="460"/>
      <point x="68" y="470"/>
      <point x="45" y="476" type="qcurve"/>
    </contour>
  </outline>
</glyph>
<glyph name="acute" format="1">
  <advance width="355"/>
  <unicode hex="00B4"/>
  <outline>
    <contour>
      <point x="164" y="539" type="line" name="hr00"/>
      <point x="228" y="583"/>
      <point x="342" y="669"/>
      <point x="400" y="723" type="qcurve"/>
      <point x="303" y="817" type="line"/>
      <point x="258" y="767"/>
      <point x="155" y="667"/>
      <point x="89" y="616" type="qcurve"/>
    </contour>
  </outline>
</glyph>
<glyph name="mu" format="1">
  <advance width="691"/>
  <unicode hex="00B5"/>
  <outline>
    <contour>
      <point x="47" y="-86" type="qcurve" name="hr00"/>
      <point x="64" y="-30"/>
      <point x="82" y="22" type="qcurve"/>
      <point x="140" y="-27" type="line"/>
      <point x="168" y="-15"/>
      <point x="211" y="8"/>
      <point x="244" y="31"/>
      <point x="271" y="54"/>
      <point x="284" y="66" type="qcurve"/>
      <point x="364" y="-23" type="line"/>
      <point x="380" y="-18"/>
      <point x="428" y="3"/>
      <point x="482" y="30"/>
      <point x="539" y="60"/>
      <point x="565" y="75" type="qcurve"/>
      <point x="537" y="185" type="line"/>
      <point x="499" y="168"/>
      <point x="425" y="140"/>
      <point x="399" y="133" type="qcurve"/>
      <point x="403" y="135" type="line"/>
      <point x="434" y="204"/>
      <point x="516" y="348"/>
      <point x="556" y="408" type="qcurve"/>
      <point x="450" y="491" type="line"/>
      <point x="415" y="442"/>
      <point x="344" y="316"/>
      <point x="316" y="259" type="qcurve"/>
      <point x="267" y="197"/>
      <point x="168" y="131"/>
      <point x="118" y="118" type="qcurve"/>
      <point x="157" y="214"/>
      <point x="246" y="380"/>
      <point x="298" y="461" type="qcurve"/>
      <point x="194" y="540" type="line"/>
      <point x="144" y="459"/>
      <point x="62" y="303"/>
      <point x="-7" y="142"/>
      <point x="-67" y="-29"/>
      <point x="-95" y="-125" type="qcurve"/>
      <point x="13" y="-205" type="line"/>
      <point x="30" y="-142"/>
    </contour>
  </outline>
</glyph>
<glyph name="paragraph" format="1">
  <advance width="768"/>
  <unicode hex="00B6"/>
  <outline>
    <contour>
      <point x="144" y="-83" type="qcurve" name="hr00"/>
      <point x="258" y="-185" type="line"/>
      <point x="345" y="16"/>
      <point x="544" y="364"/>
      <point x="650" y="524" type="qcurve"/>
      <point x="681" y="511"/>
      <point x="746" y="483"/>
      <point x="783" y="466" type="qcurve"/>
      <point x="779" y="604" type="line"/>
      <point x="711" y="645"/>
      <point x="592" y="701"/>
      <point x="476" y="735"/>
      <point x="354" y="750"/>
      <point x="283" y="750" type="qcurve"/>
      <point x="261" y="750"/>
      <point x="234" y="747" type="qcurve"/>
      <point x="94" y="594" type="line"/>
      <point x="125" y="497"/>
      <point x="234" y="314"/>
      <point x="310" y="240" type="qcurve"/>
      <point x="264" y="159"/>
      <point x="181" y="-2"/>
    </contour>
    <contour>
      <point x="386" y="368" type="qcurve"/>
      <point x="338" y="423"/>
      <point x="269" y="540"/>
      <point x="246" y="606" type="qcurve"/>
      <point x="255" y="607"/>
      <point x="263" y="607" type="qcurve"/>
      <point x="281" y="607" type="line"/>
      <point x="343" y="607"/>
      <point x="455" y="590"/>
      <point x="514" y="573" type="qcurve"/>
      <point x="481" y="522"/>
      <point x="418" y="420"/>
    </contour>
  </outline>
</glyph>
<glyph name="cedilla" format="1">
  <advance width="355"/>
  <unicode hex="00B8"/>
  <outline>
    <contour>
      <point x="33" y="-58" type="line" name="hr00"/>
      <point x="48" y="-70"/>
      <point x="70" y="-91"/>
      <point x="81" y="-104" type="qcurve"/>
      <point x="44" y="-115"/>
      <point x="-36" y="-129"/>
      <point x="-75" y="-133" type="qcurve"/>
      <point x="-61" y="-214" type="line"/>
      <point x="4" y="-212"/>
      <point x="131" y="-196"/>
      <point x="187" y="-179" type="qcurve"/>
      <point x="222" y="-104" type="line"/>
      <point x="202" y="-85"/>
      <point x="166" y="-52"/>
      <point x="148" y="-38" type="qcurve"/>
      <point x="217" y="62" type="line"/>
      <point x="119" y="58" type="line"/>
    </contour>
  </outline>
</glyph>
<glyph name="onesuperior" format="1">
  <advance width="335"/>
  <unicode hex="00B9"/>
  <outline>
    <contour>
      <point x="178" y="365" type="line" name="hr00"/>
      <point x="227" y="462"/>
      <point x="330" y="631"/>
      <point x="385" y="709" type="qcurve"/>
      <point x="302" y="795" type="line"/>
      <point x="248" y="776"/>
      <point x="153" y="733"/>
      <point x="104" y="707" type="qcurve"/>
      <point x="138" y="621" type="line"/>
      <point x="176" y="641"/>
      <point x="217" y="659" type="qcurve"/>
      <point x="181" y="607"/>
      <point x="113" y="501"/>
      <point x="84" y="449" type="qcurve"/>
    </contour>
  </outline>
</glyph>
<glyph name="ordmasculine" format="1">
  <advance width="519"/>
  <unicode hex="00BA"/>
  <outline>
    <contour>
      <point x="229" y="368" type="line" name="hr00"/>
      <point x="352" y="391"/>
      <point x="424" y="467" type="qcurve"/>
      <point x="465" y="512"/>
      <point x="514" y="627"/>
      <point x="523" y="688" type="qcurve"/>
      <point x="400" y="791" type="line"/>
      <point x="337" y="781"/>
      <point x="216" y="711"/>
      <point x="178" y="651" type="qcurve"/>
      <point x="163" y="628"/>
      <point x="142" y="576"/>
      <point x="128" y="524"/>
      <point x="121" y="476"/>
      <point x="121" y="457" type="qcurve"/>
    </contour>
    <contour>
      <point x="235" y="480" type="qcurve"/>
      <point x="237" y="509"/>
      <point x="256" y="571"/>
      <point x="274" y="597" type="qcurve"/>
      <point x="285" y="614"/>
      <point x="316" y="647"/>
      <point x="352" y="672"/>
      <point x="390" y="689"/>
      <point x="410" y="690" type="qcurve"/>
      <point x="410" y="672"/>
      <point x="397" y="630"/>
      <point x="378" y="589"/>
      <point x="355" y="554"/>
      <point x="345" y="542" type="qcurve"/>
      <point x="322" y="515"/>
      <point x="264" y="487"/>
    </contour>
  </outline>
</glyph>
<glyph name="onequarter" format="1">
  <advance width="904"/>
  <unicode hex="00BC"/>
  <outline>
    <contour>
      <point x="169" y="365" type="line" name="hr00"/>
      <point x="218" y="462"/>
      <point x="321" y="631"/>
      <point x="376" y="709" type="qcurve"/>
      <point x="293" y="795" type="line"/>
      <point x="239" y="776"/>
      <point x="144" y="733"/>
      <point x="95" y="707" type="qcurve"/>
      <point x="129" y="621" type="line"/>
      <point x="167" y="641"/>
      <point x="208" y="659" type="qcurve"/>
      <point x="172" y="607"/>
      <point x="104" y="501"/>
      <point x="75" y="449" type="qcurve"/>
    </contour>
    <contour>
      <point x="25" y="67" type="qcurve"/>
      <point x="92" y="-5" type="line"/>
      <point x="173" y="87"/>
      <point x="321" y="245"/>
      <point x="467" y="390"/>
      <point x="619" y="529"/>
      <point x="703" y="603" type="qcurve"/>
      <point x="644" y="671" type="line"/>
      <point x="560" y="597"/>
      <point x="407" y="456"/>
      <point x="259" y="311"/>
      <point x="108" y="156"/>
    </contour>
    <contour>
      <point x="412" y="87" type="line"/>
      <point x="444" y="81"/>
      <point x="512" y="68"/>
      <point x="547" y="60" type="qcurve"/>
      <point x="536" y="39"/>
      <point x="518" y="-1"/>
      <point x="510" y="-21" type="qcurve"/>
      <point x="594" y="-96" type="line"/>
      <point x="608" y="-64"/>
      <point x="638" y="0"/>
      <point x="655" y="32" type="qcurve"/>
      <point x="673" y="27"/>
      <point x="690" y="22" type="qcurve"/>
      <point x="724" y="12" type="line"/>
      <point x="766" y="101" type="line"/>
      <point x="705" y="122" type="line"/>
      <point x="728" y="160"/>
      <point x="776" y="232"/>
      <point x="801" y="265" type="qcurve"/>
      <point x="725" y="329" type="line"/>
      <point x="692" y="287"/>
      <point x="629" y="198"/>
      <point x="600" y="151" type="qcurve"/>
      <point x="580" y="156"/>
      <point x="542" y="164"/>
      <point x="524" y="168" type="qcurve"/>
      <point x="556" y="206"/>
      <point x="623" y="271"/>
      <point x="662" y="303" type="qcurve"/>
      <point x="586" y="368" type="line"/>
      <point x="533" y="327"/>
      <point x="442" y="235"/>
      <point x="400" y="175" type="qcurve"/>
    </contour>
  </outline>
</glyph>
<glyph name="threequarters" format="1">
  <advance width="1026"/>
  <unicode hex="00BE"/>
  <outline>
    <contour>
      <point x="83" y="376" type="line" name="hr00"/>
      <point x="110" y="367"/>
      <point x="164" y="359"/>
      <point x="190" y="359" type="qcurve"/>
      <point x="253" y="359"/>
      <point x="365" y="407"/>
      <point x="410" y="456" type="qcurve"/>
      <point x="383" y="541" type="line"/>
      <point x="370" y="548"/>
      <point x="346" y="560"/>
      <point x="334" y="565" type="qcurve"/>
      <point x="372" y="575"/>
      <point x="447" y="615"/>
      <point x="486" y="648" type="qcurve"/>
      <point x="455" y="756" type="line"/>
      <point x="423" y="774"/>
      <point x="337" y="796"/>
      <point x="289" y="796" type="qcurve"/>
      <point x="266" y="796" type="line"/>
      <point x="255" y="796"/>
      <point x="245" y="794" type="qcurve"/>
      <point x="200" y="702" type="line"/>
      <point x="211" y="703"/>
      <point x="234" y="704"/>
      <point x="247" y="704" type="qcurve"/>
      <point x="280" y="704"/>
      <point x="339" y="693"/>
      <point x="366" y="683" type="qcurve"/>
      <point x="331" y="658"/>
      <point x="246" y="636"/>
      <point x="191" y="636" type="qcurve"/>
      <point x="147" y="558" type="line"/>
      <point x="182" y="547"/>
      <point x="258" y="512"/>
      <point x="284" y="496" type="qcurve"/>
      <point x="259" y="476"/>
      <point x="198" y="460"/>
      <point x="169" y="460" type="qcurve"/>
      <point x="140" y="460"/>
      <point x="86" y="470"/>
      <point x="63" y="476" type="qcurve"/>
    </contour>
    <contour>
      <point x="142" y="67" type="qcurve"/>
      <point x="209" y="-5" type="line"/>
      <point x="290" y="87"/>
      <point x="438" y="245"/>
      <point x="584" y="390"/>
      <point x="736" y="529"/>
      <point x="820" y="603" type="qcurve"/>
      <point x="761" y="671" type="line"/>
      <point x="677" y="597"/>
      <point x="524" y="456"/>
      <point x="376" y="311"/>
      <point x="225" y="156"/>
    </contour>
    <contour>
      <point x="534" y="87" type="line"/>
      <point x="566" y="81"/>
      <point x="634" y="68"/>
      <point x="669" y="60" type="qcurve"/>
      <point x="658" y="39"/>
      <point x="640" y="-1"/>
      <point x="632" y="-21" type="qcurve"/>
      <point x="715" y="-96" type="line"/>
      <point x="729" y="-64"/>
      <point x="759" y="1"/>
      <point x="776" y="33" type="qcurve"/>
      <point x="846" y="12" type="line"/>
      <point x="887" y="101" type="line"/>
      <point x="826" y="122" type="line"/>
      <point x="849" y="160"/>
      <point x="897" y="232"/>
      <point x="922" y="265" type="qcurve"/>
      <point x="847" y="329" type="line"/>
      <point x="814" y="287"/>
      <point x="751" y="198"/>
      <point x="722" y="151" type="qcurve"/>
      <point x="702" y="156"/>
      <point x="664" y="164"/>
      <point x="646" y="167" type="qcurve"/>
      <point x="678" y="205"/>
      <point x="745" y="271"/>
      <point x="784" y="303" type="qcurve"/>
      <point x="707" y="368" type="line"/>
      <point x="654" y="327"/>
      <point x="564" y="235"/>
      <point x="521" y="175" type="qcurve"/>
    </contour>
  </outline>
</glyph>
<glyph name="AE" format="1">
  <advance width="951"/>
  <unicode hex="00C6"/>
  <outline>
    <contour>
      <point x="35" y="-29" type="line" name="hr00"/>
      <point x="69" y="46"/>
      <point x="153" y="182"/>
      <point x="199" y="244" type="qcurve"/>
      <point x="256" y="203"/>
      <point x="308" y="148" type="qcurve"/>
      <point x="296" y="125"/>
      <point x="272" y="82"/>
      <point x="261" y="62" type="qcurve"/>
      <point x="374" y="-41" type="line"/>
      <point x="408" y="24" type="line"/>
      <point x="482" y="4"/>
      <point x="661" y="-28"/>
      <point x="745" y="-36" type="qcurve"/>
      <point x="790" y="92" type="line"/>
      <point x="702" y="100"/>
      <point x="546" y="126"/>
      <point x="467" y="146" type="qcurve"/>
      <point x="498" y="212"/>
      <point x="524" y="275" type="qcurve"/>
      <point x="551" y="267"/>
      <point x="602" y="253"/>
      <point x="654" y="240"/>
      <point x="712" y="227"/>
      <point x="747" y="220" type="qcurve"/>
      <point x="791" y="343" type="line"/>
      <point x="758" y="349"/>
      <point x="703" y="360"/>
      <point x="651" y="372"/>
      <point x="597" y="385"/>
      <point x="566" y="393" type="qcurve"/>
      <point x="577" y="428"/>
      <point x="596" y="498"/>
      <point x="604" y="533" type="qcurve"/>
      <point x="674" y="520"/>
      <point x="824" y="475"/>
      <point x="893" y="446" type="qcurve"/>
      <point x="947" y="573" type="line"/>
      <point x="908" y="589"/>
      <point x="821" y="620"/>
      <point x="731" y="645"/>
      <point x="643" y="664"/>
      <point x="603" y="669" type="qcurve"/>
      <point x="592" y="607" type="line"/>
      <point x="493" y="695" type="line"/>
      <point x="487" y="641"/>
      <point x="472" y="580" type="qcurve"/>
      <point x="397" y="649" type="line"/>
      <point x="351" y="612"/>
      <point x="233" y="498"/>
      <point x="170" y="426" type="qcurve"/>
      <point x="153" y="437"/>
      <point x="116" y="458"/>
      <point x="96" y="469" type="qcurve"/>
      <point x="10" y="361" type="line"/>
      <point x="29" y="350"/>
      <point x="65" y="331"/>
      <point x="82" y="320" type="qcurve"/>
      <point x="36" y="261"/>
      <point x="-47" y="136"/>
      <point x="-82" y="72" type="qcurve"/>
    </contour>
    <contour>
      <point x="280" y="344" type="qcurve"/>
      <point x="328" y="399"/>
      <point x="419" y="490"/>
      <point x="457" y="525" type="qcurve"/>
      <point x="439" y="459"/>
      <point x="389" y="326"/>
      <point x="361" y="262" type="qcurve"/>
      <point x="343" y="283"/>
      <point x="303" y="324"/>
    </contour>
  </outline>
</glyph>
<glyph name="Ccedilla" format="1">
  <advance width="608"/>
  <unicode hex="00C7"/>
  <outline>
    <contour>
      <point x="44" y="-3" type="line" name="hr00"/>
      <point x="-10" y="-76" type="line"/>
      <point x="5" y="-88"/>
      <point x="27" y="-109"/>
      <point x="38" y="-122" type="qcurve"/>
      <point x="1" y="-133"/>
      <point x="-79" y="-147"/>
      <point x="-118" y="-151" type="qcurve"/>
      <point x="-104" y="-232" type="line"/>
      <point x="-39" y="-230"/>
      <point x="88" y="-214"/>
      <point x="144" y="-197" type="qcurve"/>
      <point x="179" y="-122" type="line"/>
      <point x="159" y="-103"/>
      <point x="123" y="-70"/>
      <point x="105" y="-56" type="qcurve"/>
      <point x="125" y="-27" type="line"/>
      <point x="143" y="-24"/>
      <point x="163" y="-21" type="qcurve"/>
      <point x="210" y="-13"/>
      <point x="308" y="15"/>
      <point x="407" y="56"/>
      <point x="454" y="85" type="qcurve"/>
      <point x="415" y="199" type="line"/>
      <point x="340" y="162"/>
      <point x="200" y="129"/>
      <point x="127" y="124" type="qcurve"/>
      <point x="137" y="188"/>
      <point x="196" y="321"/>
      <point x="285" y="441"/>
      <point x="398" y="540"/>
      <point x="461" y="571" type="qcurve"/>
      <point x="447" y="522"/>
      <point x="398" y="422"/>
      <point x="370" y="374" type="qcurve"/>
      <point x="486" y="310" type="line"/>
      <point x="503" y="334"/>
      <point x="541" y="396"/>
      <point x="577" y="464"/>
      <point x="607" y="532"/>
      <point x="616" y="562" type="qcurve"/>
      <point x="426" y="699" type="line"/>
      <point x="326" y="657"/>
      <point x="168" y="523"/>
      <point x="49" y="359"/>
      <point x="-31" y="177"/>
      <point x="-52" y="86" type="qcurve"/>
    </contour>
  </outline>
</glyph>
<glyph name="Eth" format="1">
  <advance width="692"/>
  <unicode hex="00D0"/>
  <outline>
    <contour>
      <point x="71" y="-26" type="line" name="hr00"/>
      <point x="174" y="-7"/>
      <point x="362" y="74"/>
      <point x="516" y="198"/>
      <point x="627" y="366"/>
      <point x="652" y="472" type="qcurve"/>
      <point x="593" y="606" type="line"/>
      <point x="487" y="652"/>
      <point x="265" y="689"/>
      <point x="145" y="694" type="qcurve"/>
      <point x="102" y="575" type="line"/>
      <point x="128" y="575"/>
      <point x="192" y="569"/>
      <point x="227" y="564" type="qcurve"/>
      <point x="180" y="507"/>
      <point x="141" y="452" type="qcurve"/>
      <point x="131" y="438"/>
      <point x="121" y="423" type="qcurve"/>
      <point x="97" y="429" type="line"/>
      <point x="58" y="439"/>
      <point x="13" y="448" type="qcurve"/>
      <point x="-29" y="336" type="line"/>
      <point x="13" y="327"/>
      <point x="54" y="317" type="qcurve"/>
      <point x="28" y="270"/>
      <point x="3" y="221" type="qcurve"/>
      <point x="-27" y="160"/>
      <point x="-57" y="92" type="qcurve"/>
    </contour>
    <contour>
      <point x="119" y="123" type="qcurve"/>
      <point x="155" y="203"/>
      <point x="197" y="273" type="qcurve"/>
      <point x="241" y="258"/>
      <point x="288" y="239" type="qcurve"/>
      <point x="335" y="351" type="line"/>
      <point x="297" y="366"/>
      <point x="264" y="378" type="qcurve"/>
      <point x="301" y="433"/>
      <point x="344" y="487" type="qcurve"/>
      <point x="256" y="559" type="line"/>
      <point x="322" y="548"/>
      <point x="454" y="512"/>
      <point x="506" y="490" type="qcurve"/>
      <point x="488" y="422"/>
      <point x="412" y="304"/>
      <point x="308" y="210"/>
      <point x="185" y="142"/>
    </contour>
  </outline>
</glyph>
<glyph name="multiply" format="1">
  <advance width="609"/>
  <unicode hex="00D7"/>
  <outline>
    <contour>
      <point x="102" y="126" type="line" name="hr00"/>
      <point x="129" y="143"/>
      <point x="199" y="183"/>
      <point x="237" y="205" type="qcurve"/>
      <point x="258" y="168"/>
      <point x="299" y="100"/>
      <point x="318" y="73" type="qcurve"/>
      <point x="426" y="130" type="line"/>
      <point x="407" y="156"/>
      <point x="366" y="225"/>
      <point x="344" y="263" type="qcurve"/>
      <point x="382" y="283"/>
      <point x="454" y="321"/>
      <point x="485" y="335" type="qcurve"/>
      <point x="432" y="442" type="line"/>
      <point x="401" y="428"/>
      <point x="326" y="390"/>
      <point x="286" y="370" type="qcurve"/>
      <point x="253" y="436" type="line"/>
      <point x="237" y="468"/>
      <point x="225" y="497" type="qcurve"/>
      <point x="117" y="446" type="line"/>
      <point x="130" y="417"/>
      <point x="162" y="349"/>
      <point x="180" y="313" type="qcurve"/>
      <point x="141" y="292"/>
      <point x="70" y="250"/>
      <point x="43" y="233" type="qcurve"/>
    </contour>
  </outline>
</glyph>
<glyph name="Oslash" format="1">
  <advance width="695"/>
  <unicode hex="00D8"/>
  <outline>
    <contour>
      <point x="12" y="56" type="line" name="hr00"/>
      <point x="-11" y="30"/>
      <point x="-58" y="-17"/>
      <point x="-81" y="-39" type="qcurve"/>
      <point x="-11" y="-109" type="line"/>
      <point x="11" y="-86"/>
      <point x="59" y="-37"/>
      <point x="85" y="-11" type="qcurve"/>
      <point x="130" y="-52" type="line"/>
      <point x="226" y="-34"/>
      <point x="375" y="40"/>
      <point x="490" y="150"/>
      <point x="575" y="296"/>
      <point x="607" y="386" type="qcurve"/>
      <point x="652" y="521" type="line"/>
      <point x="619" y="554" type="line"/>
      <point x="708" y="652" type="line"/>
      <point x="637" y="719" type="line"/>
      <point x="615" y="695"/>
      <point x="567" y="644"/>
      <point x="543" y="618" type="qcurve"/>
      <point x="514" y="640"/>
      <point x="452" y="678"/>
      <point x="418" y="695" type="qcurve"/>
      <point x="313" y="646"/>
      <point x="157" y="515"/>
      <point x="51" y="359"/>
      <point x="-9" y="181"/>
      <point x="-18" y="84" type="qcurve"/>
    </contour>
    <contour>
      <point x="136" y="91" type="qcurve"/>
      <point x="141" y="160"/>
      <point x="190" y="297"/>
      <point x="265" y="417"/>
      <point x="359" y="511"/>
      <point x="409" y="537" type="qcurve"/>
      <point x="437" y="520"/>
      <point x="484" y="488"/>
      <point x="529" y="453"/>
      <point x="578" y="412"/>
      <point x="607" y="386" type="qcurve"/>
      <point x="469" y="436" type="line"/>
      <point x="441" y="362"/>
      <point x="366" y="246"/>
      <point x="279" y="160"/>
      <point x="184" y="104"/>
    </contour>
  </outline>
</glyph>
<glyph name="Thorn" format="1">
  <advance width="667"/>
  <unicode hex="00DE"/>
  <outline>
    <contour>
      <point x="50" y="-29" type="line" name="hr00"/>
      <point x="92" y="70"/>
      <point x="145" y="176" type="qcurve"/>
      <point x="194" y="96" type="line"/>
      <point x="246" y="106"/>
      <point x="340" y="133"/>
      <point x="433" y="172"/>
      <point x="530" y="225"/>
      <point x="586" y="260" type="qcurve"/>
      <point x="508" y="435" type="line"/>
      <point x="462" y="462"/>
      <point x="384" y="503"/>
      <point x="343" y="520" type="qcurve"/>
      <point x="356" y="540"/>
      <point x="381" y="576"/>
      <point x="394" y="594" type="qcurve"/>
      <point x="285" y="690" type="line"/>
      <point x="228" y="611"/>
      <point x="130" y="459"/>
      <point x="45" y="308"/>
      <point x="-31" y="156"/>
      <point x="-66" y="78" type="qcurve"/>
    </contour>
    <contour>
      <point x="172" y="229" type="qcurve"/>
      <point x="196" y="275"/>
      <point x="245" y="364"/>
      <point x="271" y="408" type="qcurve"/>
      <point x="311" y="391"/>
      <point x="388" y="354"/>
      <point x="430" y="328" type="qcurve"/>
      <point x="402" y="311"/>
      <point x="345" y="283"/>
      <point x="284" y="259"/>
      <point x="214" y="238"/>
    </contour>
  </outline>
</glyph>
<glyph name="germandbls" format="1">
  <advance width="679"/>
  <unicode hex="00DF"/>
  <outline>
    <contour>
      <point x="31" y="-29" type="line" name="hr00"/>
      <point x="53" y="44"/>
      <point x="120" y="209"/>
      <point x="196" y="369"/>
      <point x="273" y="511"/>
      <point x="304" y="561" type="qcurve"/>
      <point x="342" y="548"/>
      <point x="420" y="517"/>
      <point x="461" y="495" type="qcurve"/>
      <point x="428" y="476"/>
      <point x="364" y="432"/>
      <point x="307" y="385"/>
      <point x="261" y="336"/>
      <point x="245" y="312" type="qcurve"/>
      <point x="257" y="294"/>
      <point x="301" y="248"/>
      <point x="353" y="197"/>
      <point x="408" y="144"/>
      <point x="433" y="119" type="qcurve"/>
      <point x="410" y="111"/>
      <point x="367" y="98"/>
      <point x="347" y="93" type="qcurve"/>
      <point x="318" y="110"/>
      <point x="261" y="152"/>
      <point x="231" y="181" type="qcurve"/>
      <point x="153" y="87" type="line"/>
      <point x="188" y="52"/>
      <point x="262" y="-4"/>
      <point x="315" y="-35" type="qcurve"/>
      <point x="424" y="-12"/>
      <point x="621" y="71"/>
      <point x="706" y="131" type="qcurve"/>
      <point x="684" y="232" type="line"/>
      <point x="652" y="215"/>
      <point x="590" y="185"/>
      <point x="560" y="171" type="qcurve"/>
      <point x="518" y="211"/>
      <point x="439" y="281"/>
      <point x="418" y="313" type="qcurve"/>
      <point x="450" y="348"/>
      <point x="551" y="408"/>
      <point x="606" y="431" type="qcurve"/>
      <point x="590" y="559" type="line"/>
      <point x="536" y="596"/>
      <point x="400" y="655"/>
      <point x="336" y="672" type="qcurve"/>
      <point x="291" y="658"/>
      <point x="210" y="621"/>
      <point x="175" y="598" type="qcurve"/>
      <point x="138" y="534"/>
      <point x="59" y="386"/>
      <point x="-12" y="239"/>
      <point x="-71" y="102"/>
      <point x="-87" y="49" type="qcurve"/>
    </contour>
  </outline>
</glyph>
<glyph name="ae" format="1">
  <advance width="839"/>
  <unicode hex="00E6"/>
  <outline>
    <contour>
      <point x="90" y="-27" type="line" name="hr00"/>
      <point x="155" y="-1"/>
      <point x="238" y="54"/>
      <point x="272" y="86" type="qcurve"/>
      <point x="395" y="-27" type="line"/>
      <point x="459" y="-24"/>
      <point x="588" y="5"/>
      <point x="709" y="49"/>
      <point x="820" y="102"/>
      <point x="866" y="131" type="qcurve"/>
      <point x="844" y="232" type="line"/>
      <point x="795" y="202"/>
      <point x="685" y="157"/>
      <point x="571" y="125"/>
      <point x="457" y="106"/>
      <point x="404" y="103" type="qcurve"/>
      <point x="406" y="130"/>
      <point x="416" y="180"/>
      <point x="424" y="200" type="qcurve"/>
      <point x="443" y="195"/>
      <point x="487" y="193"/>
      <point x="507" y="193" type="qcurve"/>
      <point x="604" y="193"/>
      <point x="744" y="287"/>
      <point x="769" y="391" type="qcurve"/>
      <point x="600" y="531" type="line"/>
      <point x="551" y="515"/>
      <point x="499" y="483" type="qcurve"/>
      <point x="424" y="562" type="line"/>
      <point x="410" y="539"/>
      <point x="389" y="491"/>
      <point x="379" y="467" type="qcurve"/>
      <point x="338" y="530" type="line"/>
      <point x="247" y="522"/>
      <point x="108" y="441"/>
      <point x="14" y="319"/>
      <point x="-34" y="167"/>
      <point x="-34" y="88" type="qcurve"/>
    </contour>
    <contour>
      <point x="466" y="290" type="qcurve"/>
      <point x="489" y="331"/>
      <point x="575" y="404"/>
      <point x="626" y="428" type="qcurve"/>
      <point x="626" y="392"/>
      <point x="595" y="339"/>
      <point x="547" y="306"/>
      <point x="491" y="290"/>
    </contour>
    <contour>
      <point x="106" y="117" type="qcurve"/>
      <point x="106" y="173"/>
      <point x="140" y="272"/>
      <point x="202" y="348"/>
      <point x="288" y="396"/>
      <point x="340" y="401" type="qcurve"/>
      <point x="334" y="363"/>
      <point x="321" y="297"/>
      <point x="310" y="259" type="qcurve"/>
      <point x="263" y="199"/>
      <point x="157" y="131"/>
    </contour>
  </outline>
</glyph>
<glyph name="ccedilla" format="1">
  <advance width="531"/>
  <unicode hex="00E7"/>
  <outline>
    <contour>
      <point x="67" y="-3" type="line" name="hr00"/>
      <point x="20" y="-67" type="line"/>
      <point x="35" y="-79"/>
      <point x="57" y="-100"/>
      <point x="68" y="-113" type="qcurve"/>
      <point x="31" y="-124"/>
      <point x="-49" y="-138"/>
      <point x="-88" y="-142" type="qcurve"/>
      <point x="-74" y="-223" type="line"/>
      <point x="-9" y="-221"/>
      <point x="118" y="-205"/>
      <point x="174" y="-188" type="qcurve"/>
      <point x="209" y="-113" type="line"/>
      <point x="189" y="-94"/>
      <point x="153" y="-61"/>
      <point x="135" y="-47" type="qcurve"/>
      <point x="153" y="-21" type="line"/>
      <point x="184" y="-17"/>
      <point x="216" y="-9" type="qcurve"/>
      <point x="279" y="5"/>
      <point x="401" y="48"/>
      <point x="512" y="102"/>
      <point x="558" y="131" type="qcurve"/>
      <point x="536" y="232" type="line"/>
      <point x="437" y="179"/>
      <point x="217" y="117"/>
      <point x="110" y="103" type="qcurve"/>
      <point x="110" y="144"/>
      <point x="133" y="239"/>
      <point x="164" y="286" type="qcurve"/>
      <point x="199" y="339"/>
      <point x="278" y="400"/>
      <point x="320" y="418" type="qcurve"/>
      <point x="313" y="395"/>
      <point x="275" y="333"/>
      <point x="252" y="304" type="qcurve"/>
      <point x="378" y="224" type="line"/>
      <point x="388" y="238"/>
      <point x="416" y="290"/>
      <point x="442" y="347"/>
      <point x="463" y="398"/>
      <point x="466" y="412" type="qcurve"/>
      <point x="306" y="531" type="line"/>
      <point x="274" y="521"/>
      <point x="204" y="488"/>
      <point x="133" y="441"/>
      <point x="67" y="379"/>
      <point x="40" y="340" type="qcurve"/>
      <point x="14" y="304"/>
      <point x="-14" y="236"/>
      <point x="-29" y="172"/>
      <point x="-32" y="114"/>
      <point x="-32" y="88" type="qcurve"/>
    </contour>
  </outline>
</glyph>
<glyph name="eth" format="1">
  <advance width="581"/>
  <unicode hex="00F0"/>
  <outline>
    <contour>
      <point x="91" y="-27" type="line" name="hr00"/>
      <point x="176" y="-11"/>
      <point x="303" y="63"/>
      <point x="345" y="106" type="qcurve"/>
      <point x="386" y="58" type="line"/>
      <point x="491" y="82"/>
      <point x="607" y="131" type="qcurve"/>
      <point x="586" y="232" type="line"/>
      <point x="545" y="224"/>
      <point x="460" y="214"/>
      <point x="422" y="212" type="qcurve"/>
      <point x="456" y="275"/>
      <point x="499" y="438"/>
      <point x="499" y="541" type="qcurve"/>
      <point x="523" y="543"/>
      <point x="573" y="544"/>
      <point x="599" y="545" type="qcurve"/>
      <point x="593" y="654" type="line"/>
      <point x="567" y="653"/>
      <point x="517" y="651"/>
      <point x="493" y="649" type="qcurve"/>
      <point x="490" y="671"/>
      <point x="484" y="708"/>
      <point x="481" y="725" type="qcurve"/>
      <point x="343" y="705" type="line"/>
      <point x="345" y="689"/>
      <point x="351" y="655"/>
      <point x="353" y="635" type="qcurve"/>
      <point x="329" y="632"/>
      <point x="278" y="624"/>
      <point x="252" y="619" type="qcurve"/>
      <point x="267" y="510" type="line"/>
      <point x="290" y="515"/>
      <point x="335" y="523"/>
      <point x="358" y="526" type="qcurve"/>
      <point x="357" y="483"/>
      <point x="348" y="412"/>
      <point x="340" y="382" type="qcurve"/>
      <point x="249" y="474" type="line"/>
      <point x="182" y="454"/>
      <point x="81" y="392"/>
      <point x="39" y="338" type="qcurve"/>
      <point x="18" y="311"/>
      <point x="-14" y="246"/>
      <point x="-37" y="180"/>
      <point x="-49" y="117"/>
      <point x="-51" y="92" type="qcurve"/>
    </contour>
    <contour>
      <point x="89" y="108" type="qcurve"/>
      <point x="95" y="154"/>
      <point x="132" y="238"/>
      <point x="193" y="305"/>
      <point x="280" y="354"/>
      <point x="336" y="366" type="qcurve"/>
      <point x="321" y="314"/>
      <point x="275" y="239"/>
      <point x="248" y="207" type="qcurve"/>
      <point x="215" y="168"/>
      <point x="133" y="118"/>
    </contour>
  </outline>
</glyph>
<glyph name="divide" format="1">
  <advance width="609"/>
  <unicode hex="00F7"/>
  <outline>
    <contour>
      <point x="284" y="443" type="qcurve"/>
      <point x="309" y="419"/>
      <point x="344" y="419" type="qcurve"/>
      <point x="362" y="419"/>
      <point x="392" y="432"/>
      <point x="415" y="455"/>
      <point x="428" y="486"/>
      <point x="428" y="503" type="qcurve"/>
      <point x="428" y="539"/>
      <point x="379" y="588"/>
      <point x="344" y="588" type="qcurve"/>
      <point x="309" y="588"/>
      <point x="260" y="539"/>
      <point x="260" y="503" type="qcurve"/>
      <point x="260" y="468"/>
    </contour>
    <contour>
      <point x="64" y="319" type="line"/>
      <point x="108" y="308"/>
      <point x="206" y="279"/>
      <point x="305" y="245"/>
      <point x="400" y="208"/>
      <point x="442" y="190" type="qcurve"/>
      <point x="488" y="301" type="line"/>
      <point x="447" y="319"/>
      <point x="350" y="357"/>
      <point x="250" y="391"/>
      <point x="152" y="422"/>
      <point x="110" y="433" type="qcurve"/>
    </contour>
    <contour>
      <point x="125" y="125" type="qcurve"/>
      <point x="125" y="90"/>
      <point x="174" y="41"/>
      <point x="209" y="41" type="qcurve" name="hr01"/>
      <point x="227" y="41"/>
      <point x="257" y="54"/>
      <point x="280" y="77"/>
      <point x="293" y="108"/>
      <point x="293" y="125" type="qcurve"/>
      <point x="293" y="161"/>
      <point x="244" y="210"/>
      <point x="209" y="210" type="qcurve"/>
      <point x="174" y="210"/>
      <point x="125" y="161"/>
    </contour>
  </outline>
</glyph>
<glyph name="oslash" format="1">
  <advance width="586"/>
  <unicode hex="00F8"/>
  <outline>
    <contour>
      <point x="-35" y="25" type="qcurve" name="hr00"/>
      <point x="-56" y="1"/>
      <point x="-77" y="-22" type="qcurve"/>
      <point x="-13" y="-77" type="line"/>
      <point x="64" y="10" type="line"/>
      <point x="108" y="-27" type="line"/>
      <point x="189" y="-12"/>
      <point x="315" y="60"/>
      <point x="361" y="113" type="qcurve"/>
      <point x="409" y="58" type="line"/>
      <point x="436" y="65"/>
      <point x="484" y="81"/>
      <point x="533" y="98"/>
      <point x="584" y="119"/>
      <point x="613" y="131" type="qcurve"/>
      <point x="591" y="232" type="line"/>
      <point x="546" y="224"/>
      <point x="466" y="214"/>
      <point x="428" y="212" type="qcurve"/>
      <point x="450" y="255"/>
      <point x="478" y="349"/>
      <point x="486" y="400" type="qcurve"/>
      <point x="440" y="439" type="line"/>
      <point x="456" y="459"/>
      <point x="471" y="478" type="qcurve"/>
      <point x="491" y="503"/>
      <point x="511" y="526" type="qcurve"/>
      <point x="445" y="580" type="line"/>
      <point x="428" y="557"/>
      <point x="408" y="533" type="qcurve"/>
      <point x="392" y="514"/>
      <point x="376" y="494" type="qcurve"/>
      <point x="327" y="536" type="line"/>
      <point x="283" y="530"/>
      <point x="199" y="498"/>
      <point x="124" y="448"/>
      <point x="61" y="385"/>
      <point x="39" y="349" type="qcurve"/>
      <point x="18" y="316"/>
      <point x="-10" y="247"/>
      <point x="-27" y="179"/>
      <point x="-34" y="117"/>
      <point x="-34" y="92" type="qcurve"/>
      <point x="-1" y="64" type="line"/>
      <point x="-19" y="44"/>
    </contour>
    <contour>
      <point x="100" y="109" type="qcurve"/>
      <point x="102" y="153"/>
      <point x="128" y="241"/>
      <point x="160" y="287" type="qcurve"/>
      <point x="176" y="309"/>
      <point x="218" y="352"/>
      <point x="267" y="387"/>
      <point x="322" y="412"/>
      <point x="351" y="416" type="qcurve"/>
      <point x="350" y="389"/>
      <point x="332" y="330"/>
      <point x="306" y="274"/>
      <point x="274" y="226"/>
      <point x="259" y="208" type="qcurve"/>
      <point x="225" y="170"/>
      <point x="143" y="119"/>
    </contour>
  </outline>
</glyph>
<glyph name="thorn" format="1">
  <advance width="611"/>
  <unicode hex="00FE"/>
  <outline>
    <contour>
      <point x="16" y="-8" type="qcurve" name="hr00"/>
      <point x="30" y="27"/>
      <point x="45" y="62" type="qcurve"/>
      <point x="142" y="-27" type="line"/>
      <point x="213" y="-14"/>
      <point x="353" y="21"/>
      <point x="482" y="62"/>
      <point x="594" y="107"/>
      <point x="637" y="131" type="qcurve"/>
      <point x="616" y="232" type="line"/>
      <point x="565" y="208"/>
      <point x="465" y="169"/>
      <point x="411" y="151" type="qcurve"/>
      <point x="452" y="193"/>
      <point x="488" y="309"/>
      <point x="496" y="389" type="qcurve"/>
      <point x="375" y="484" type="line"/>
      <point x="312" y="449"/>
      <point x="224" y="386"/>
      <point x="184" y="351" type="qcurve"/>
      <point x="200" y="379"/>
      <point x="235" y="440"/>
      <point x="278" y="509"/>
      <point x="330" y="589"/>
      <point x="363" y="637" type="qcurve"/>
      <point x="259" y="714" type="line"/>
      <point x="116" y="498"/>
      <point x="-110" y="29"/>
      <point x="-194" y="-207" type="qcurve"/>
      <point x="-79" y="-284" type="line"/>
      <point x="-59" y="-223"/>
      <point x="-27" y="-126"/>
      <point x="2" y="-44"/>
    </contour>
    <contour>
      <point x="54" y="83" type="qcurve"/>
      <point x="91" y="165" type="line"/>
      <point x="127" y="192"/>
      <point x="189" y="237"/>
      <point x="250" y="278"/>
      <point x="314" y="316"/>
      <point x="352" y="336" type="qcurve"/>
      <point x="347" y="300"/>
      <point x="320" y="231"/>
      <point x="284" y="174"/>
      <point x="240" y="132"/>
      <point x="219" y="122" type="qcurve"/>
      <point x="209" y="117"/>
      <point x="174" y="108"/>
      <point x="131" y="97"/>
      <point x="80" y="87"/>
    </contour>
  </outline>
</glyph>
<glyph name="hbar" format="1">
  <advance width="629"/>
  <unicode hex="0127"/>
  <outline>
    <contour>
      <point x="38" y="-27" type="line" name="hr00"/>
      <point x="53" y="26"/>
      <point x="91" y="131"/>
      <point x="113" y="185" type="qcurve"/>
      <point x="146" y="208"/>
      <point x="205" y="246"/>
      <point x="265" y="279"/>
      <point x="326" y="310"/>
      <point x="360" y="327" type="qcurve"/>
      <point x="348" y="274"/>
      <point x="267" y="133"/>
      <point x="207" y="61" type="qcurve"/>
      <point x="331" y="-27" type="line"/>
      <point x="358" y="-18"/>
      <point x="446" y="21"/>
      <point x="541" y="68"/>
      <point x="629" y="114"/>
      <point x="655" y="131" type="qcurve"/>
      <point x="634" y="232" type="line"/>
      <point x="577" y="203"/>
      <point x="471" y="155"/>
      <point x="407" y="133" type="qcurve"/>
      <point x="446" y="187"/>
      <point x="506" y="317"/>
      <point x="523" y="389" type="qcurve"/>
      <point x="402" y="484" type="line"/>
      <point x="338" y="450"/>
      <point x="238" y="387"/>
      <point x="188" y="349" type="qcurve"/>
      <point x="226" y="424"/>
      <point x="266" y="496" type="qcurve"/>
      <point x="268" y="500" type="line"/>
      <point x="297" y="482"/>
      <point x="325" y="463" type="qcurve"/>
      <point x="379" y="547" type="line"/>
      <point x="349" y="567"/>
      <point x="318" y="586" type="qcurve"/>
      <point x="333" y="612"/>
      <point x="349" y="637" type="qcurve"/>
      <point x="247" y="714" type="line"/>
      <point x="228" y="685"/>
      <point x="205" y="648" type="qcurve"/>
      <point x="171" y="664"/>
      <point x="139" y="677" type="qcurve"/>
      <point x="91" y="591" type="line"/>
      <point x="123" y="577"/>
      <point x="155" y="561" type="qcurve"/>
      <point x="142" y="538"/>
      <point x="128" y="513" type="qcurve"/>
      <point x="96" y="453"/>
      <point x="32" y="324"/>
      <point x="-24" y="201"/>
      <point x="-69" y="91"/>
      <point x="-81" y="50" type="qcurve"/>
    </contour>
  </outline>
</glyph>
<glyph name="dotlessi" format="1">
  <advance width="332"/>
  <unicode hex="0131"/>
  <outline>
    <contour>
      <point x="34" y="-27" type="line" name="hr00"/>
      <point x="78" y="-12"/>
      <point x="170" y="28"/>
      <point x="257" y="72"/>
      <point x="332" y="114"/>
      <point x="358" y="131" type="qcurve"/>
      <point x="337" y="232" type="line"/>
      <point x="282" y="203"/>
      <point x="162" y="147"/>
      <point x="92" y="126" type="qcurve"/>
      <point x="106" y="162"/>
      <point x="147" y="246"/>
      <point x="194" y="331"/>
      <point x="244" y="412"/>
      <point x="268" y="445" type="qcurve"/>
      <point x="169" y="518" type="line"/>
      <point x="133" y="473"/>
      <point x="57" y="353"/>
      <point x="-12" y="230"/>
      <point x="-67" y="117"/>
      <point x="-81" y="79" type="qcurve"/>
    </contour>
  </outline>
</glyph>
<glyph name="ij" format="1">
  <advance width="663"/>
  <unicode hex="0133"/>
  <outline>
    <contour>
      <point x="551" y="624" type="qcurve" name="hr00"/>
      <point x="551" y="590"/>
      <point x="598" y="543"/>
      <point x="632" y="543" type="qcurve"/>
      <point x="666" y="543"/>
      <point x="713" y="590"/>
      <point x="713" y="624" type="qcurve"/>
      <point x="713" y="658"/>
      <point x="666" y="705"/>
      <point x="632" y="705" type="qcurve"/>
      <point x="598" y="705"/>
      <point x="551" y="658"/>
    </contour>
    <contour>
      <point x="243" y="566" type="qcurve"/>
      <point x="267" y="543"/>
      <point x="301" y="543" type="qcurve"/>
      <point x="335" y="543"/>
      <point x="382" y="590"/>
      <point x="382" y="624" type="qcurve"/>
      <point x="382" y="658"/>
      <point x="335" y="705"/>
      <point x="301" y="705" type="qcurve"/>
      <point x="267" y="705"/>
      <point x="220" y="658"/>
      <point x="220" y="624" type="qcurve"/>
      <point x="220" y="590"/>
    </contour>
    <contour>
      <point x="34" y="-27" type="line"/>
      <point x="83" y="-10"/>
      <point x="186" y="36"/>
      <point x="234" y="60" type="qcurve"/>
      <point x="202" y="-14"/>
      <point x="147" y="-157"/>
      <point x="127" y="-221" type="qcurve"/>
      <point x="243" y="-294" type="line"/>
      <point x="268" y="-215"/>
      <point x="321" y="-68"/>
      <point x="356" y="8" type="qcurve"/>
      <point x="383" y="-18" type="line"/>
      <point x="427" y="-3"/>
      <point x="514" y="35"/>
      <point x="593" y="75"/>
      <point x="663" y="114"/>
      <point x="689" y="131" type="qcurve"/>
      <point x="668" y="232" type="line"/>
      <point x="611" y="203"/>
      <point x="488" y="146"/>
      <point x="414" y="124" type="qcurve"/>
      <point x="429" y="160"/>
      <point x="472" y="245"/>
      <point x="522" y="330"/>
      <point x="575" y="412"/>
      <point x="599" y="445" type="qcurve"/>
      <point x="500" y="518" type="line"/>
      <point x="477" y="488"/>
      <point x="426" y="416"/>
      <point x="376" y="337"/>
      <point x="329" y="255"/>
      <point x="309" y="217" type="qcurve"/>
      <point x="260" y="192"/>
      <point x="153" y="145"/>
      <point x="92" y="126" type="qcurve"/>
      <point x="106" y="162"/>
      <point x="147" y="246"/>
      <point x="194" y="331"/>
      <point x="244" y="412"/>
      <point x="268" y="445" type="qcurve"/>
      <point x="169" y="518" type="line"/>
      <point x="133" y="473"/>
      <point x="57" y="353"/>
      <point x="-12" y="230"/>
      <point x="-67" y="117"/>
      <point x="-81" y="79" type="qcurve"/>
    </contour>
  </outline>
</glyph>
<glyph name="kgreenlandic" format="1">
  <advance width="552"/>
  <unicode hex="0138"/>
  <outline>
    <contour>
      <point x="38" y="-27" type="line" name="hr00"/>
      <point x="60" y="44"/>
      <point x="104" y="174"/>
      <point x="132" y="237" type="qcurve"/>
      <point x="137" y="195"/>
      <point x="160" y="104"/>
      <point x="175" y="61" type="qcurve"/>
      <point x="300" y="-27" type="line"/>
      <point x="334" y="-11"/>
      <point x="407" y="27"/>
      <point x="480" y="68"/>
      <point x="549" y="111"/>
      <point x="579" y="131" type="qcurve"/>
      <point x="557" y="232" type="line"/>
      <point x="497" y="201"/>
      <point x="380" y="151"/>
      <point x="312" y="128" type="qcurve"/>
      <point x="296" y="160"/>
      <point x="271" y="216"/>
      <point x="261" y="245" type="qcurve"/>
      <point x="322" y="289"/>
      <point x="460" y="380"/>
      <point x="545" y="434" type="qcurve"/>
      <point x="443" y="529" type="line"/>
      <point x="362" y="472"/>
      <point x="225" y="356"/>
      <point x="160" y="296" type="qcurve"/>
      <point x="185" y="346"/>
      <point x="244" y="442"/>
      <point x="282" y="491" type="qcurve"/>
      <point x="172" y="568" type="line"/>
      <point x="128" y="506"/>
      <point x="52" y="375"/>
      <point x="-12" y="242"/>
      <point x="-63" y="111"/>
      <point x="-81" y="50" type="qcurve"/>
    </contour>
  </outline>
</glyph>
<glyph name="ldot" format="1">
  <advance width="465"/>
  <unicode hex="0140"/>
  <outline>
    <contour>
      <point x="61" y="-27" type="line" name="hr00"/>
      <point x="115" y="-24"/>
      <point x="229" y="2"/>
      <point x="340" y="44"/>
      <point x="445" y="99"/>
      <point x="491" y="131" type="qcurve"/>
      <point x="470" y="232" type="line"/>
      <point x="420" y="199"/>
      <point x="317" y="152"/>
      <point x="216" y="119"/>
      <point x="123" y="100"/>
      <point x="83" y="97" type="qcurve"/>
      <point x="95" y="143"/>
      <point x="152" y="280"/>
      <point x="235" y="434"/>
      <point x="337" y="593"/>
      <point x="394" y="661" type="qcurve"/>
      <point x="292" y="736" type="line"/>
      <point x="232" y="666"/>
      <point x="119" y="491"/>
      <point x="23" y="313"/>
      <point x="-47" y="148"/>
      <point x="-63" y="88" type="qcurve"/>
    </contour>
    <contour>
      <point x="238" y="301" type="qcurve"/>
      <point x="238" y="266"/>
      <point x="286" y="218"/>
      <point x="321" y="218" type="qcurve"/>
      <point x="356" y="218"/>
      <point x="404" y="266"/>
      <point x="404" y="301" type="qcurve"/>
      <point x="404" y="335"/>
      <point x="356" y="383"/>
      <point x="321" y="383" type="qcurve"/>
      <point x="286" y="383"/>
      <point x="238" y="335"/>
    </contour>
  </outline>
</glyph>
<glyph name="Lslash" format="1">
  <advance width="510"/>
  <unicode hex="0141"/>
  <outline>
    <contour>
      <point x="58" y="4" type="line" name="hr00"/>
      <point x="92" y="-3"/>
      <point x="156" y="-15"/>
      <point x="224" y="-24"/>
      <point x="301" y="-33"/>
      <point x="348" y="-37" type="qcurve"/>
      <point x="391" y="102" type="line"/>
      <point x="309" y="110"/>
      <point x="186" y="127"/>
      <point x="125" y="140" type="qcurve"/>
      <point x="158" y="201"/>
      <point x="193" y="263" type="qcurve"/>
      <point x="204" y="282" type="line"/>
      <point x="319" y="300"/>
      <point x="427" y="322" type="qcurve"/>
      <point x="410" y="422" type="line"/>
      <point x="355" y="411"/>
      <point x="295" y="399" type="qcurve"/>
      <point x="283" y="397"/>
      <point x="272" y="394" type="qcurve"/>
      <point x="304" y="446"/>
      <point x="335" y="492" type="qcurve"/>
      <point x="370" y="544"/>
      <point x="400" y="585" type="qcurve"/>
      <point x="297" y="689" type="line"/>
      <point x="255" y="632"/>
      <point x="158" y="493"/>
      <point x="110" y="417" type="qcurve"/>
      <point x="91" y="388"/>
      <point x="73" y="359" type="qcurve"/>
      <point x="65" y="357"/>
      <point x="57" y="356" type="qcurve"/>
      <point x="-1" y="346"/>
      <point x="-52" y="339" type="qcurve"/>
      <point x="-40" y="248" type="line"/>
      <point x="-14" y="251"/>
      <point x="12" y="255" type="qcurve"/>
      <point x="-29" y="182"/>
      <point x="-62" y="113" type="qcurve"/>
    </contour>
  </outline>
</glyph>
<glyph name="lslash" format="1">
  <advance width="465"/>
  <unicode hex="0142"/>
  <outline>
    <contour>
      <point x="141" y="673" type="line" name="hr00"/>
      <point x="173" y="684"/>
      <point x="232" y="699"/>
      <point x="255" y="703" type="qcurve"/>
      <point x="284" y="688"/>
      <point x="339" y="656"/>
      <point x="394" y="620"/>
      <point x="454" y="577"/>
      <point x="487" y="550" type="qcurve"/>
      <point x="530" y="635" type="line"/>
      <point x="497" y="663"/>
      <point x="435" y="711"/>
      <point x="373" y="753"/>
      <point x="309" y="791"/>
      <point x="274" y="810" type="qcurve"/>
      <point x="233" y="801"/>
      <point x="146" y="764"/>
      <point x="98" y="735" type="qcurve"/>
    </contour>
    <contour>
      <point x="61" y="-27" type="line"/>
      <point x="115" y="-24"/>
      <point x="229" y="2"/>
      <point x="340" y="44"/>
      <point x="445" y="99"/>
      <point x="491" y="131" type="qcurve"/>
      <point x="470" y="232" type="line"/>
      <point x="420" y="199"/>
      <point x="316" y="152"/>
      <point x="215" y="120"/>
      <point x="121" y="102"/>
      <point x="81" y="99" type="qcurve"/>
      <point x="93" y="138"/>
      <point x="144" y="249"/>
      <point x="217" y="377"/>
      <point x="309" y="514"/>
      <point x="362" y="579" type="qcurve"/>
      <point x="250" y="655" type="line"/>
      <point x="196" y="589"/>
      <point x="96" y="438"/>
      <point x="14" y="287"/>
      <point x="-47" y="145"/>
      <point x="-63" y="88" type="qcurve"/>
    </contour>
  </outline>
</glyph>
<glyph name="OE" format="1">
  <advance width="951"/>
  <unicode hex="0152"/>
  <outline>
    <contour>
      <point x="-18" y="84" type="qcurve"/>
      <point x="130" y="-52" type="line"/>
      <point x="208" y="-39"/>
      <point x="331" y="13"/>
      <point x="380" y="51" type="qcurve"/>
      <point x="422" y="13" type="line"/>
      <point x="491" y="-4"/>
      <point x="647" y="-31"/>
      <point x="741" y="-36" type="qcurve" name="hr01"/>
      <point x="786" y="92" type="line"/>
      <point x="697" y="97"/>
      <point x="551" y="122"/>
      <point x="478" y="141" type="qcurve"/>
      <point x="497" y="179"/>
      <point x="533" y="249"/>
      <point x="550" y="279" type="qcurve"/>
      <point x="574" y="271"/>
      <point x="621" y="259"/>
      <point x="671" y="247"/>
      <point x="726" y="236"/>
      <point x="758" y="229" type="qcurve"/>
      <point x="802" y="352" type="line"/>
      <point x="752" y="361"/>
      <point x="659" y="381"/>
      <point x="609" y="394" type="qcurve"/>
      <point x="652" y="521" type="line"/>
      <point x="721" y="504"/>
      <point x="845" y="466"/>
      <point x="893" y="446" type="qcurve"/>
      <point x="947" y="573" type="line"/>
      <point x="869" y="606"/>
      <point x="677" y="663"/>
      <point x="562" y="679" type="qcurve"/>
      <point x="536" y="623" type="line"/>
      <point x="508" y="643"/>
      <point x="450" y="678"/>
      <point x="418" y="695" type="qcurve"/>
      <point x="313" y="646"/>
      <point x="157" y="515"/>
      <point x="51" y="359"/>
      <point x="-9" y="181"/>
    </contour>
    <contour>
      <point x="136" y="96" type="qcurve"/>
      <point x="142" y="164"/>
      <point x="192" y="300"/>
      <point x="267" y="418"/>
      <point x="360" y="511"/>
      <point x="409" y="537" type="qcurve"/>
      <point x="435" y="521"/>
      <point x="479" y="491"/>
      <point x="522" y="458"/>
      <point x="567" y="421"/>
      <point x="593" y="398" type="qcurve"/>
      <point x="565" y="406"/>
      <point x="508" y="422"/>
      <point x="476" y="433" type="qcurve"/>
      <point x="423" y="326"/>
      <point x="332" y="199"/>
      <point x="250" y="129"/>
      <point x="174" y="102"/>
    </contour>
  </outline>
</glyph>
